<?xml version="1.0" encoding="UTF-8"?><svg id="b" xmlns="http://www.w3.org/2000/svg" width="478.321" height="289.748" viewBox="0 0 478.321 289.748"><defs><style>.e{fill:#fff;}.f{fill:#f8b8b4;}.g{fill:#211715;}.h{fill:#c6c6c6;}.i{fill:#645d5c;}</style></defs><g id="c"><g id="d"><path class="e" d="M239.635,199.486c-.199-.936.022-1.954.397-2.753.776-1.655,2.268-2.231,3.443-2.489,2.928-.644,7.034-1.142,12.753-1.653,8.005-.716,12.036-1.069,21.956-2.08,0,0,.626-.064,1.251-.128l-.624-1.622c-.417-1.083-2.8-3.281-5.626-5.666-1.292-1.09-3.473-3.132-4.358-4.307s-.598-2.931.317-4.083c1.27-1.599,3.469-1.421,5.083-.778,7.111,2.833,16.667,8.222,22.7,10.618,3.379,1.342,6.608,5.934,6.391,10.311,0,0,3.124,4.276,5.169,7.076-7.571,5.097-14.075,13.901-16.417,18.818l-6.509-2.768c-2.833-1.167-11.333-1.085-13.611-1.138-4.288-.1-8.778-.213-13.444-.266l-.483-1.925c-3.18.03-6.175.024-7.03-.061-1.531-.152-2.612-1.179-2.846-2.466-.229-1.263.895-2.801,2.161-3.237,0,0,.186-.064.373-.128l-2.801.272c-3.896.378-6.363-1.265-6.187-3.809.093-1.339,1.056-2.403,2.644-3.025l-1.1-.122c-2.344-.259-3.34-1.354-3.602-2.592Z"/><path class="e" d="M393.79,102.278c.035-.04.07-.08.103-.119,2.783-3.309,3.299-6.632,3.56-8.985.375-3.329-.943-8.14-3.54-10.207-.869-.691-2.738-1.756-6.134-.87-1.72.449-3.607,1.524-4.586,3.229-1.352-2.512-3.273-7.135-6.881-11.593-4.431-3.707-11.056-6.371-18.376-6.945-.364,1.799-.666,3.637-1.019,5.578-.378,2.079-.679,4.189-1.43,6.164-.477,1.255-1.244,2.334-2.06,3.371-1.488,1.892-3.141,3.644-3.507,6.064-.227,1.504.811,3.908.957,5.422.111,1.156.158,1.532.269,2.688l.869,4.945c1.032-.034,3.343-.014,4.959-.013.525,0,.948.493.922,1.086-.105,2.332-.928,3.256-1.717,4.917-.447.941-1.673,2.462-2.114,2.832l-.434.364c.233,1.327.77,4.38.77,4.38.929,1.87,1.135,2.095,2.529,3.649,1.427,1.591,2.791,2.627,5.169,3.58,4.737,1.898,10.595,3.195,17.529,2.28,1.536,2.096,3.476,6.461,4.227,8.516l1.232,3.373c3.506-2.538,7.399-4.469,11.08-5.683,6.127-2.021,12.5-3.395,18.935-3.726l-1.039-3.258c-11-1.167-19.909-11.873-23.666-17.217,0,0-.27-.384-.701-.997,1.82-.706,3.24-1.85,4.096-2.823Z"/><path class="g" d="M351.958,103.022c1.237-.043,2.477-.023,3.714-.019.31,0,.62.002.93.002.083,0,.167,0,.25,0,.227.006.163-.009-.192-.042-.197-.055-.367-.156-.509-.303-.184-.271-.221-.317-.11-.139-.106-.17-.155-.355-.146-.556.003.097,0,.193-.008.29-.003.057-.068.419-.04.466.042-.288.045-.323.011-.103-.015.09-.032.179-.05.268-.035.167-.075.334-.123.498-.044.154-.094.307-.149.458-.027.073-.054.145-.083.217.129-.301.152-.355.067-.163-.114.238-.227.475-.349.709-.272.52-.533,1.047-.807,1.566-.14.265-.302.517-.47.765-.092.135-.186.268-.282.4-.081.111-.356.389.019-.016-.336.363-.605.779-.981,1.107-.792.689-.758,2.132,0,2.828.844.775,1.984.735,2.828,0,.802-.698,1.465-1.66,2.034-2.548.547-.853,1.018-1.818,1.439-2.74.279-.61.537-1.232.686-1.888.197-.867.379-1.883.172-2.765-.241-1.028-1.023-1.879-2.035-2.189-.653-.201-1.424-.119-2.102-.121-1.237-.004-2.477-.024-3.714.019-1.044.036-2.05.894-2,2,.047,1.052.88,2.039,2,2h0Z"/><path class="i" d="M383.558,38.453c-12.679,3.826-18.904,10.62-23.634,21.267-.936,2.392-1.516,4.701-1.993,7.077,7.322.564,13.949,3.228,18.38,6.936,3.609,4.459,5.53,9.083,6.882,11.594.978-1.705,2.865-2.781,4.585-3.229,3.396-.887,5.265.179,6.134.87,2.597,2.067,3.915,6.878,3.54,10.207-.261,2.352-.777,5.675-3.56,8.985-.843.998-2.303,2.207-4.198,2.942.43.614.7.997.7.997,4.254,6.051,15.111,18.974,28.129,17.146,2.448-3.645,6.233-7.204,8.704-9.651,6.19-6.13,13.889-17.111,14.793-31.07.568-8.776-2.561-17.85-6.395-24.253-9.865-16.475-21.866-19.907-29.306-21.27s-16.08-.559-22.723,1.441c-.013.004-.025.008-.038.011Z"/><path class="g" d="M352.672,115.594c1.09,2.177,2.639,4.15,4.541,5.686,2.176,1.757,4.822,2.758,7.476,3.561,6.06,1.834,12.416,1.95,18.591.631,2.516-.538,1.451-4.395-1.063-3.857-5.361,1.146-10.851,1.009-16.118-.528-2.081-.607-4.307-1.312-6.057-2.635-1.694-1.281-2.976-2.999-3.916-4.877-1.153-2.302-4.604-.279-3.454,2.019h0Z"/><path class="g" d="M357.995,59.188c-1.339,3.495-2.032,7.14-2.681,10.813-.585,3.313-.842,6.987-2.814,9.818-1.634,2.346-3.837,4.353-4.447,7.268-.32,1.528-.014,2.996.372,4.484.389,1.504.57,2.958.721,4.504.105,1.075.844,2,2,2,1,0,2.106-.918,2-2-.146-1.499-.229-3.027-.584-4.494-.295-1.22-.862-2.506-.573-3.769.604-2.64,3.201-4.588,4.532-6.854,1.771-3.017,2.093-6.738,2.69-10.119.635-3.598,1.33-7.165,2.641-10.588.387-1.009-.428-2.194-1.397-2.46-1.127-.31-2.072.384-2.46,1.397h0Z"/><path class="g" d="M378.431,125.887c.796,1.272,1.473,2.619,2.107,3.978.159.34.315.682.467,1.025.069.156.138.313.206.469.037.085.073.17.11.254.032.074.164.385.026.059-.139-.33.057.139.098.238.061.149.121.297.18.447.103.26.204.521.3.784.36.979,1.373,1.749,2.46,1.397.961-.311,1.783-1.409,1.397-2.46-1.035-2.82-2.302-5.66-3.897-8.21-.554-.886-1.81-1.315-2.736-.718-.888.573-1.311,1.787-.718,2.736h0Z"/><path class="g" d="M388.667,107.108c6.022,8.535,14.544,16.959,25.393,18.208,1.075.124,2-1.008,2-2,0-1.184-.922-1.876-2-2-9.252-1.065-16.871-9.044-21.939-16.227-.622-.881-1.747-1.296-2.736-.718-.872.51-1.343,1.849-.718,2.736h0Z"/><path class="g" d="M385.209,85.874c1.458-1.892,5.059-2.759,6.98-1.659.054.031.605.389.387.23-.169-.124.468.428.562.527.422.443.738.956,1.028,1.494.676,1.255,1.103,2.709,1.275,4.124.689,5.655-2.453,12.15-8.418,13.153-1.066.179-1.662,1.495-1.397,2.46.31,1.13,1.391,1.577,2.46,1.397,6.959-1.17,10.596-7.682,11.338-14.168.577-5.042-1.728-12.338-7.369-13.475-3.855-.777-7.926.82-10.299,3.9-.66.856-.131,2.24.718,2.736,1.032.604,2.075.141,2.736-.718h0Z"/><path class="g" d="M356.53,80.195c-.681,1.732-.864,5.868,1.981,6.532,3.817.389,4.611-4.549,3.604-7.022-.824-2.024-3.821-3.155-5.585.49Z"/><path class="g" d="M361.65,60.729c2.069-4.626,4.626-9.054,8.312-12.586,3.764-3.606,8.475-5.977,13.411-7.541,9.999-3.169,21.347-3.238,31.127.785,10.097,4.154,17.831,13.286,22.095,23.149,2.68,6.197,3.993,12.978,3.278,19.716-.662,6.237-2.894,12.278-6.076,17.657-2.94,4.97-6.725,8.953-10.763,13.018-4.631,4.662-9.684,10.118-8.887,17.186.121,1.073.833,2,2,2,.987,0,2.122-.92,2-2-.362-3.212.565-5.673,2.383-8.272,1.747-2.496,3.921-4.69,6.077-6.83,3.776-3.747,7.268-7.612,10.083-12.157,3.382-5.462,5.833-11.596,6.833-17.955,1.129-7.18.313-14.369-2.183-21.188-4.126-11.271-12.368-21.908-23.371-27.132-9.851-4.677-21.282-5.267-31.831-2.875-6.382,1.447-12.608,4.119-17.629,8.37-4.627,3.918-7.859,9.15-10.312,14.634-.441.985-.285,2.15.718,2.736.854.5,2.293.273,2.736-.718h0Z"/><path class="g" d="M374.897,75.147c.111.138.221.275.33.414.215.275-.137-.183.071.093.186.247.37.495.551.747.35.487.688.982,1.016,1.484.625.959,1.211,1.943,1.765,2.944.878,1.584,1.66,3.216,2.482,4.83.476.934,1.865,1.279,2.736.718.954-.615,1.226-1.737.718-2.736-.848-1.666-1.656-3.35-2.567-4.983-1.246-2.234-2.67-4.345-4.273-6.338-.659-.819-2.152-.737-2.828,0-.798.869-.703,1.955,0,2.828h0Z"/><path class="g" d="M359.699,68.967c5.425.782,11.05,2.745,15.197,6.18.831.688,2.014.814,2.828,0,.709-.709.836-2.136,0-2.828-4.811-3.985-10.81-6.322-16.962-7.209-1.068-.154-2.149.263-2.46,1.397-.258.939.321,2.305,1.397,2.46h0Z"/><path class="h" d="M403.173,128.315c-2.364.556-4.704,1.225-7.008,1.985-8.968,2.958-19.193,10.176-22.047,20.012-.967.413-1.932.837-2.895,1.271-8.374,3.773-15.711,8.391-21.174,15.969-8.72,12.095-8.566,27.426-11.71,41.478-.749,3.35-1.078,7.414-3.644,11.232-7.439-6.602-12.115-12.03-19.232-19.409-1.057-1.096-2.712-1.36-4.064-.659-9.828,5.098-18.581,17.617-20.045,22.325-.087.279-.059.574.094.823,6.009,9.793,15.288,22.764,20.446,28.307,9.395,10.094,22.444,18.278,36.167,16,.258-.043.516-.095.772-.154,2.083,6.903,4.48,11.081,10.978,14.321,3.928,1.958,9.972,4.444,15.972,4.889,5.685.421,16.413.391,21.444-.222,5.222-7.444,19.061-27.825,25.222-36.333,7-9.667,24.778-38.111,27.124-42.026.563-4.574,1.219-9.737,1.32-13.891.25-10.25.787-18.546-2.021-27.996-2.808-9.45-9.924-21.616-21.102-24.751-1.224-2.691-3.744-10.444-5.366-12.915-.45-.686-.948-1.392-1.687-1.75-.602-.292-1.295-.317-1.964-.324-5.244-.059-10.471.618-15.581,1.82Z"/><path class="e" d="M74.735,201.033c-.654-2.859-.048-5.843.668-8.687.701-2.779,1.592-5.673,3.68-7.636,1.696-1.595,4.104-2.814,6.394-3.228,3.458-.625,13.068-1.514,15.193-1.34,5.188.424,10.128,3.259,13.113,7.523,1.165,1.665,2.062,3.632,1.932,5.66,0,0-2.168,2.476-6.779,7.698-3.837,4.346-6.708,8.958-6.708,8.958-.458,1.125-1.961,1.542-3.403,1.034-1.221-.43-2.557-2.027-3.805-2.367-2.292-.625-5.833-.042-8.22-.532-3.166-.65-6.802-1.449-8.179-4.373l-3.885-2.711Z"/><path class="e" d="M64.342,41.244c3.442-6.8,11.744-13.306,30.996-12.983,29.107.488,25.951,22.27,25.951,22.27-.326,4.697-.446,9.384-.651,13.702-.356,7.489-2.207,14.356-7.155,18.945-2.515,2.333-5.147,4.05-7.992,5.18.029.269.046.414.046.414.129,1.116.695,2.158.869,2.418,1.231,1.66,2.776,2.289,4.493,2.862-4.384,6.475-10.173,9.252-18.701,9.335-8.541.084-17.741-2.776-24.55-8.095,1.578-.812,2.524-1.49,3.155-1.952,1.02-.732,1.844-1.844,2.143-2.823.94-3.195,1.327-5.138,1.699-7.909-2.288-1.972-4.108-4.03-5.806-6.236,0,0-1.472-1.99-2.114-3.14l-.26-.635c-1.834.221-3.798-.319-4.61-.742-2.727-1.429-4.102-3.623-5.014-5.21-1.293-2.245-2.049-6.109-1.16-8.444.298-.781,1.074-2.162,3.389-2.661,1.064-.23,2.375-.138,3.457.539,0,0-1.855-7.584,1.814-14.834Z"/><path class="e" d="M97.204,180.231c.332-.021.651-.039.953-.055,14.2-2.712,29.214-5.579,44.543-8.506.113-15.35.292-31.34-1.979-45.921-2.82-18.101-11.083-26.727-29.773-31.767-4.387,6.522-10.188,9.321-18.751,9.405-8.679.085-18.038-2.869-24.877-8.352-13.022,5.59-22.58,10.355-29.775,22.872-4.173,7.26-6.711,19.658-8.928,27.962-2.217,8.303-2.783,17.346-.534,25.547,1.402,5.112,3.882,9.805,7.167,13.563,6.755,7.728,21.096,13.456,31.4,15.059,0,0,8.085.495,8.085.995-.654-2.859-.048-5.843.668-8.687.701-2.779,1.592-5.673,3.68-7.636,1.696-1.595,4.104-2.814,6.394-3.228,2.442-.441,7.952-1.014,11.727-1.252Z"/><path class="i" d="M200.005,88.705c-12.222,0-23.95-1.78-23.95-1.78-9.766-3.133-8.805-16.411-7.304-22.024,1.296-4.847,1.488-17.173.189-24.122-.19-1.396-.364-2.648-.453-3.592-.263-2.827.257-7.636.87-10.415,1.222-5.522,2.862-8.694,6.877-13.396,8.768-9.758,18.531-11.539,25.139-11.383,9.804.233,16.914,2.347,23.186,9.137,4.628,3.873,7.254,9.733,8.476,15.619.859,4.142,1.103,10.201.4,15.637-.443,4.562-.665,9.134-.963,13.331-.248,3.485-.838,6.819-1.949,9.806.197,2.981.933,6.047.642,9.084-.192,1.995-.868,4.005-2.25,5.456,0,0-.602,8.032-6.935,8.421-6.077.373-21.972.222-21.972.222Z"/><path class="e" d="M178.096,46.78c-.646-.13-1.547-.905-3.234-.582-2.185.418-2.944,1.697-3.241,2.424-.886,2.173-.261,5.817.903,7.953.82,1.511,2.063,3.6,4.592,5.002.796.439,2.799,1.03,4.609.766-1.332-.889,1.848,3.629,1.848,3.629,1.612,2.2,3.353,4.25,5.589,6.228-.343,3-.688,4.971-1.62,8.336-.274.989-1.086,2.11-2.091,2.859-.698.521-1.867,1.261-3.763,2.265,9.178,5.884,18.583,6.83,25.977,6.219,5.682-.469,10.989-2.289,14.647-6.908-2.015-.654-3.924-1.738-5.626-3.222-.23-.192-.461-.414-.609-.706-.14-.272-.189-.595-.239-.918,0,0-.094-.624-.216-1.44,3.509-.898,6.687-2.663,9.713-5.341,4.747-4.199,6.636-10.606,7.135-17.628.229-3.223.413-6.666.686-10.157-.343-.046-.576-.078-.576-.078.129-4.377-.993-9.025-2.136-11.368-1.857-3.806-3.31-6.193-5.17-7.385-3.361,3.458-7.458,6.16-11.801,8.224-2.289,1.087-4.661,2-7.083,2.743-1.497.459-5.609,1.375-6.705-.544,0,0-.273-.478-.741-1.298-3.486,2.928-7.491,5.482-11.717,8.131-.554.347-1.889,1.556-2.556,3.222l-6.576-.425Z"/><path class="f" d="M160.224,110.322c-.274,1.049-.536,2.236-.781,3.522-1.405,7.372-2.29,18.023-2.189,24.711.12,8,.4,20.959.98,30.149,33.033-6.306,66.733-12.738,96.24-18.368-1.35-7.11-3.46-17.04-4.93-25.93-1.63-9.83-4.13-22.47-9.87-29.78-3.26-4.15-6.756-6.355-11.5-8.4-.88-.38-3.613-1.285-3.613-1.285,0,0-.764-.253-1.785-.59-3.668,5.081-9.185,7.039-15.111,7.528-7.433.614-16.898-.345-26.119-6.31-11.157,7.472-17.032,11.894-20.782,22.927-.185.546-.365,1.158-.54,1.826Z"/><path class="i" d="M67.58,13.484c6.783-4.562,13.551-5.668,18.604-5.668,10.776,0,18.554,2.208,25.561,9.84,4.993,4.237,7.352,9.619,8.77,15.724,1.141,4.918,1.519,12.419.549,18.706l-.166-2.368c-.419-5.497-4.983-11.165-8.148-12.351,0,0-3.468-.977-7.011-1.605-.787.265-1.253.421-1.253.421-4.733,1.589-11.46,5.04-15.225,6.739-.898.405-1.903-.326-1.745-1.276.104-.626.134-1.29-.065-2.173-.206-.914-.967-1.326-1.584-1.064-4.858,2.063-10.313,6.424-14.543,10.232-.647.582-1.112,1.33-1.348,2.161-.447,1.571-.794,2.873-1.174,4.915l-6.273.362c-1.082-.677-2.393-.769-3.457-.539-2.316.5-3.091,1.88-3.389,2.661-.139.366-.238.768-.296,1.197-2.071-3.582-2.961-10.132-3.331-13.292-.35-3,.09-8.14.67-11.11,1.16-5.91,2.83-9.33,6.99-14.43,2.556-2.984,5.212-5.298,7.866-7.082Z"/><path class="g" d="M2.506,200.494c13.443-2.569,26.885-5.146,40.33-7.71,2.526-.482,1.456-4.338-1.063-3.857-13.445,2.564-26.887,5.141-40.33,7.71-2.526.483-1.456,4.339,1.063,3.857h0Z"/><path class="g" d="M255.092,268.695c13.14-3.301,26.135-7.272,39.182-10.919,2.162-.604,4.32-1.228,6.492-1.795,2.489-.65,1.433-4.509-1.063-3.857-12.995,3.394-25.877,7.254-38.818,10.846-2.281.633-4.559,1.292-6.855,1.868-2.495.627-1.438,4.486,1.063,3.857h0Z"/><path class="g" d="M345.259,150.998c-6.942-1.943-13.891-3.862-20.84-5.782-4.103-1.133-8.206-2.265-12.309-3.397-1.884-.519-3.767-1.039-5.651-1.558-.859-.237-1.718-.473-2.577-.71-1.124-.31-1.936-.297-3.073-.08-14.017,2.672-28.033,5.345-42.049,8.018-16.638,3.174-33.276,6.348-49.914,9.524-17.634,3.365-35.268,6.731-52.902,10.098-17.268,3.297-34.535,6.594-51.803,9.892-2.013.384-4.025.769-6.038,1.153-2.526.482-1.456,4.338,1.063,3.857,13.701-2.617,27.403-5.234,41.105-7.85,14.364-2.743,28.729-5.485,43.094-8.227,14.094-2.69,28.188-5.38,42.282-8.07,13.163-2.512,26.327-5.023,39.49-7.534,11.311-2.157,22.621-4.314,33.932-6.47,1.273-.243,2.546-.485,3.819-.728h-1.063c14.127,3.893,28.26,7.77,42.371,11.72,2.483.695,3.543-3.163,1.063-3.857h0Z"/><path class="g" d="M115.996,214.664c5.826,2.955,11.693,5.83,17.552,8.72,3.364,1.659,6.727,3.319,10.086,4.988.781.388,1.619.956,2.461,1.188.821.226,1.789-.17,2.59-.358,1.695-.398,3.39-.796,5.085-1.195,14.029-3.303,28.05-6.64,42.074-9.964,7.372-1.748,14.745-3.493,22.121-5.226.85-.2,1.468-1.075,1.468-1.929,0-.954-.643-1.586-1.468-1.929-11.215-4.659-22.443-9.284-33.658-13.942-5.962-2.476-11.922-4.96-17.873-7.463-2.555-1.075-5.107-2.154-7.657-3.24-1.167-.497-2.334-.996-3.499-1.497-1.078-.463-2.655-1.492-3.83-1.492-1.119,0-2.358.428-3.455.642-1.199.235-2.398.47-3.596.705-2.254.443-4.507.887-6.761,1.332-4.369.863-8.737,1.729-13.106,2.592-2.523.499-1.455,4.355,1.063,3.857,8.794-1.739,17.587-3.484,26.386-5.2l-1.541-.202c17.591,7.639,35.354,14.888,53.076,22.219,4.464,1.846,8.927,3.693,13.388,5.546v-3.857c-18.558,4.36-37.099,8.79-55.65,13.175-5.051,1.194-10.103,2.385-15.156,3.569l1.541.202c-9.866-4.912-19.791-9.708-29.621-14.694-2.291-1.162-4.318,2.288-2.019,3.454h0Z"/><path class="g" d="M238.259,185.054c-11.995-4.895-24.289-9.05-36.415-13.602v3.857c16.885-3.359,33.748-6.831,50.624-10.235,4.096-.826,8.192-1.647,12.291-2.456h-1.063c9.723,3.172,19.486,6.226,29.243,9.293,10.647,3.347,21.299,6.678,31.956,9.994,3.235,1.007,6.47,2.014,9.709,3.007v-3.857c-6.967,1.783-13.963,3.453-20.97,5.072-2.507.579-1.446,4.437,1.063,3.857,7.007-1.618,14.003-3.289,20.97-5.072,1.964-.503,1.84-3.293,0-3.857-12.921-3.96-25.812-8.022-38.706-12.071-8.008-2.514-16.014-5.034-24.01-7.586-1.576-.503-3.151-1.007-4.725-1.514-1.343-.433-3.12-1.352-4.53-1.123-5.847.95-11.658,2.326-17.464,3.502-15.149,3.069-30.291,6.173-45.451,9.189-2.113.42-1.674,3.229,0,3.857,12.126,4.552,24.421,8.708,36.415,13.602,1.001.408,2.198-.443,2.46-1.397.315-1.146-.393-2.05-1.397-2.46h0Z"/><path class="g" d="M204.497,181.021c-5.364,2.108-10.757,4.139-16.105,6.285-1.755.704-2.032,3.253,0,3.857,13.551,4.031,27.004,8.392,40.494,12.622,2.462.772,3.515-3.088,1.063-3.857-13.49-4.23-26.943-8.591-40.494-12.622v3.857c5.348-2.146,10.742-4.178,16.105-6.285,1.005-.395,1.705-1.34,1.397-2.46-.263-.958-1.449-1.794-2.46-1.397h0Z"/><path class="g" d="M187.08,72.91c-.202,1.634-.582,3.678-1.034,5.467-.264,1.044-.355,1.794-.931,2.569-.213.287-.568.615-.88.88.313-.266-.165.109-.262.175-2.603,1.776-5.536,3.108-8.388,4.421-.981.452-1.225,1.869-.718,2.736.589,1.007,1.751,1.171,2.736.718,2.95-1.358,6.039-2.726,8.69-4.632.956-.688,1.773-1.482,2.411-2.481.644-1.009.91-2.178,1.199-3.323.544-2.153.904-4.328,1.176-6.53.133-1.074-1.014-2-2-2-1.191,0-1.867.923-2,2h0Z"/><path class="g" d="M224.439,28.569c.076.055.231.183.072.051.106.088.209.18.31.274.24.224.462.464.678.711.371.423.735.977,1.079,1.53.822,1.323,1.775,3.087,2.288,4.3,1.315,3.113,1.789,6.691,1.715,10.046-.057,2.575,3.943,2.574,4,0,.088-3.97-.561-8.14-2.146-11.797-1.358-3.134-3.14-6.539-5.977-8.568-.879-.629-2.227-.154-2.736.718-.588,1.006-.163,2.106.718,2.736h0Z"/><path class="g" d="M167.575,45.883c.31,4.125.342,8.281.073,12.409-.181,2.786-.78,5.375-1.273,8.101-.961,5.315-.937,11.271,1.621,16.161,1.598,3.055,4.278,5.211,7.527,6.3,2.446.819,3.496-3.042,1.063-3.857-4.866-1.63-6.558-6.679-6.755-11.386-.209-5,1.379-9.499,1.763-14.558.332-4.377.309-8.793-.02-13.169-.192-2.551-4.193-2.572-4,0h0Z"/><path class="g" d="M192.302,72.217c-2.184-1.712-4.154-3.66-5.899-5.818-.09-.112-.18-.224-.269-.336-.027-.034-.378-.485-.111-.138-.192-.25-.382-.502-.57-.756-.16-.216-.312-.435-.464-.656-.566-.827-1.131-1.663-1.605-2.546-.495-.923-1.851-1.288-2.736-.718-.938.605-1.247,1.749-.718,2.736.975,1.818,2.249,3.504,3.535,5.108,1.772,2.21,3.777,4.204,6.007,5.952.822.644,2.038.861,2.828,0,.66-.719.879-2.139,0-2.828h0Z"/><path class="g" d="M225.225,14.552c3.817,4.35,5.79,10.23,6.364,15.924.656,6.504-.317,12.944-.738,19.428-.37,5.699-.434,11.676-3.051,16.9-2.354,4.699-6.905,8.247-11.924,9.734-6.234,1.848-12.695.448-18.564-1.964-.999-.411-2.199.445-2.46,1.397-.315,1.148.394,2.048,1.397,2.46,5.98,2.458,12.464,3.731,18.884,2.416,5.734-1.175,11.24-4.719,14.618-9.504,3.689-5.227,4.471-11.703,4.875-17.911.239-3.683.416-7.378.809-11.049.365-3.416.521-6.816.293-10.249-.489-7.386-2.72-14.768-7.673-20.412-1.701-1.938-4.521.9-2.828,2.828h0Z"/><path class="g" d="M223.253,7.068c-4.792-4.18-10.404-6.154-16.674-6.78-5.407-.541-10.878-.424-16.089,1.256-6.453,2.08-12.234,6.187-16.515,11.426-2.08,2.546-3.854,5.216-5.071,8.281-1.145,2.885-1.744,5.944-2.127,9.014-.413,3.304-.386,6.457.057,9.749.466,3.458,1.04,6.968.853,10.468-.138,2.572,3.863,2.565,4,0,.3-5.595-1.5-11.052-1.228-16.633.268-5.483,1.435-11.022,4.537-15.63,3.5-5.199,8.552-9.584,14.357-12.012,4.387-1.836,8.978-2.357,13.69-2.159,6.386.27,12.447,1.547,17.381,5.851,1.932,1.686,4.773-1.132,2.828-2.828h0Z"/><path class="g" d="M179.105,45.053c-2.423-1.481-5.73-1.146-7.86.717-1.633,1.428-2.119,3.704-2.033,5.789.188,4.598,2.799,9.717,7.055,11.826,2.429,1.204,5.541,1.444,7.988.199.963-.489,1.24-1.843.718-2.736-.572-.978-1.77-1.209-2.736-.718-.244.124-.853.27-1.107.269-.298,0-.591.01-.889-.011-.146-.01-.291-.024-.436-.041.177.02.144.011-.099-.027-.489-.113-.96-.239-1.436-.396-.387-.127.271.191-.04-.021-.248-.169-.529-.299-.781-.465-.843-.558-1.722-1.519-2.166-2.161-.25-.363-.482-.738-.702-1.12-.112-.195-.223-.392-.329-.591-.036-.068-.331-.681-.239-.464-.415-.98-.7-2.202-.772-3.077-.049-.601-.066-1.218.008-1.818-.035.286.095-.423.115-.498.034-.127.074-.253.118-.377-.109.24-.127.278-.052.114.078-.137.148-.278.226-.415.079-.138.327-.338.02-.043.059-.057.543-.508.197-.24.199-.155.43-.29.659-.394-.152.06-.107.045.136-.043.155-.05.312-.094.471-.131.286-.051.342-.066.166-.046.154-.014.308-.021.462-.021.521.001.83.094,1.319.393,2.203,1.346,4.214-2.112,2.019-3.454h0Z"/><path class="g" d="M58.119,146.903c-1.388,5.226-2.319,10.66-3.113,16.006-.316,2.126-.595,4.356.107,6.441.582,1.727,1.671,3.238,3.061,4.41,2.941,2.481,6.712,4.054,10.292,5.362,3.478,1.27,7.088,1.952,10.703,2.696,2.513.517,3.587-3.338,1.063-3.857-6.26-1.288-12.535-2.682-18.015-6.166-1.203-.765-2.38-1.716-3.032-3.014-.77-1.533-.545-3.356-.295-4.993.375-2.458.828-4.906,1.29-7.35.535-2.832,1.055-5.685,1.796-8.472.661-2.49-3.196-3.553-3.857-1.063h0Z"/><path class="g" d="M65.469,93.671c-8.021,3.469-16.057,7.281-22.317,13.54-3.23,3.229-6.048,7.045-8.108,11.125-2.111,4.182-3.529,8.706-4.789,13.205-1.281,4.575-2.362,9.202-3.568,13.797-1.473,5.614-2.27,11.463-1.979,17.272.516,10.301,4.623,20.75,12.856,27.292,8.039,6.388,18.454,10.459,28.553,12.065,1.065.169,2.152-.274,2.46-1.397.261-.952-.324-2.29-1.397-2.46-8.589-1.366-17.214-4.541-24.464-9.369-7.906-5.264-12.618-13.774-13.76-23.152-1.248-10.246,1.749-20.115,4.325-29.913,1.157-4.402,2.387-8.835,4.158-13.035,1.642-3.894,3.984-7.549,6.775-10.719,6.236-7.083,14.761-11.115,23.272-14.796.992-.429,1.216-1.884.718-2.736-.599-1.024-1.741-1.148-2.736-.718h0Z"/><path class="g" d="M116.092,97.67c4.153,1.492,8.268,3.445,11.685,6.28,3.158,2.619,5.615,5.849,7.384,9.546,2.051,4.286,3.076,9.017,3.77,13.691.986,6.647,1.417,13.376,1.639,20.088.259,7.846.196,15.698.137,23.547-.019,2.574,3.981,2.577,4,0,.108-14.454.259-28.983-1.724-43.334-1.318-9.537-4.188-19.119-11.618-25.716-4.118-3.657-9.058-6.109-14.209-7.96-2.427-.872-3.472,2.992-1.063,3.857h0Z"/><path class="g" d="M120.837,125.662c-1.238,14.527-1.731,29.109-1.475,43.686.045,2.571,4.045,2.579,4,0-.256-14.577.238-29.159,1.475-43.686.219-2.565-3.783-2.55-4,0h0Z"/><path class="g" d="M65.637,96.232c5.942,4.807,13.16,7.758,20.722,8.77,6.442.863,13.575.509,19.248-2.986,3.063-1.887,5.472-4.561,7.421-7.559,1.407-2.165-2.055-4.172-3.454-2.019-1.84,2.83-4.175,5.25-7.197,6.809-3.123,1.612-6.703,2.107-10.178,2.14-8.415.08-17.156-2.664-23.732-7.984-.839-.679-2.008-.82-2.828,0-.702.702-.844,2.146,0,2.828h0Z"/><path class="g" d="M67.856,97.417c2.431-1.173,5.271-2.726,6.544-5.223.71-1.393,1.034-3.039,1.383-4.556.319-1.389.555-2.792.751-4.203.143-1.031-.25-2.199-1.397-2.46-.942-.215-2.306.289-2.46,1.397-.178,1.282-.388,2.558-.666,3.822-.146.665-.31,1.326-.485,1.984-.098.367-.199.734-.303,1.1-.056.196-.111.393-.17.588-.02.065-.183.494-.025.141-.436.977-.995,1.456-1.843,2.043-1.06.733-2.188,1.354-3.347,1.914-.945.456-1.271,1.878-.718,2.736.625.97,1.726,1.205,2.736.718h0Z"/><path class="g" d="M103.537,88.772c.073.577.153,1.129.343,1.679.155.447.342.889.553,1.312.343.685.868,1.298,1.431,1.813,1.295,1.184,2.859,1.856,4.504,2.406.993.332,2.229-.383,2.46-1.397.252-1.105-.334-2.105-1.397-2.46-.478-.16-.952-.328-1.416-.523l.478.202c-.626-.269-1.224-.591-1.768-1.003l.405.313c-.448-.348-.846-.746-1.198-1.191l.313.405c-.226-.293-.386-.625-.533-.963l.202.478c-.204-.485-.359-.987-.436-1.508l.071.532-.012-.093c-.07-.551-.177-1.006-.586-1.414-.347-.347-.916-.608-1.414-.586-.517.023-1.054.193-1.414.586-.333.362-.651.902-.586,1.414h0Z"/><path class="g" d="M77.826,82.618c-.167-.124-.334-.249-.498-.376.24.186-.243-.196-.238-.191-.285-.229-.567-.462-.846-.699-.562-.478-1.11-.973-1.642-1.484-1.016-.975-1.973-2.008-2.881-3.084-.426-.505-.845-1.017-1.247-1.541.196.256.045.057.004,0-.098-.137-.198-.272-.296-.409-.608-.847-1.215-1.703-1.729-2.611s-1.837-1.297-2.736-.718c-.92.593-1.27,1.762-.718,2.736,1.084,1.912,2.482,3.695,3.894,5.371,2.049,2.43,4.369,4.559,6.915,6.459.842.628,2.27.164,2.736-.718.554-1.048.181-2.066-.718-2.736h0Z"/><path class="g" d="M112.313,20.952c3.605,3.909,5.521,8.965,6.519,14.126,1.033,5.344,1.104,11.098.302,16.476-.159,1.067.267,2.15,1.397,2.46.943.259,2.3-.322,2.46-1.397,1.731-11.611.449-25.493-7.85-34.494-1.749-1.897-4.572.938-2.828,2.828h0Z"/><path class="g" d="M57.111,58.387c-1.398-2.499-1.981-5.455-2.473-8.248-.439-2.496-.759-4.986-.696-7.525.147-5.933,1.243-11.957,4.512-17.003,3.629-5.601,8.796-10.271,14.874-13.065,4.523-2.08,9.411-2.815,14.351-2.714,7.093.145,14.016,1.64,19.581,6.279,1.964,1.637,4.809-1.178,2.828-2.828-5.459-4.55-11.905-6.716-18.935-7.282-5.814-.467-11.69-.081-17.19,1.982-6.97,2.614-12.828,7.347-17.301,13.254-4.156,5.488-6.005,11.739-6.565,18.543-.282,3.426-.063,6.7.463,10.087.558,3.591,1.304,7.336,3.097,10.539,1.257,2.247,4.713.232,3.454-2.019h0Z"/><path class="g" d="M82.631,89.184c8.401,3.229,17.889,4.202,26.098-.127,3.773-1.99,7.245-4.94,9.539-8.556,2.397-3.78,3.517-8.184,4.061-12.582.711-5.748.569-11.61.961-17.387.174-2.569-3.826-2.559-4,0-.329,4.84-.391,9.692-.697,14.532-.247,3.909-.94,7.951-2.694,11.488-3.388,6.832-10.81,11.125-18.327,11.436-4.809.199-9.415-.945-13.878-2.66-1.008-.388-2.194.428-2.46,1.397-.31,1.128.385,2.071,1.397,2.46h0Z"/><path class="g" d="M63.537,54.351c-2.562-1.484-6.002-1.115-8.201.879-1.664,1.509-2.145,3.856-2.023,6.017.275,4.862,3.109,10.22,7.643,12.39,2.567,1.228,5.893,1.462,8.44.091,2.267-1.221.25-4.675-2.019-3.454-.318.171-.89.327-1.23.357-.314.027-.632.025-.947.011-.155-.007-.31-.018-.465-.033-.257-.026-.304-.032-.142-.017-.524-.083-1.036-.22-1.539-.385-.101-.035-.201-.072-.3-.112.257.11.293.122.11.035-.201-.172-.503-.277-.732-.421-1.822-1.146-3.12-2.943-3.942-4.798-.381-.86-.747-2.279-.84-3.18-.064-.621-.081-1.257-.022-1.879.026-.271.001-.137.101-.537.018-.073.265-.833.12-.44-.132.359.065-.122.103-.191.056-.102.418-.564.098-.197.15-.172.305-.339.482-.486-.268.223.354-.203.432-.241.853-.416,1.905-.503,2.854.048,2.232,1.293,4.248-2.163,2.019-3.454h0Z"/><path class="g" d="M122.897,49.718c-.271-3.204-1.511-6.265-3.371-8.877-1.609-2.26-3.614-4.379-6.246-5.403-.977-.38-2.237.418-2.46,1.397-.261,1.147.35,2.053,1.397,2.46.387.151-.425-.221-.043-.015.092.05.187.094.279.144.196.106.386.222.571.344.098.065.195.131.291.2.076.055.433.367.066.044.195.171.4.331.592.506.436.395.846.818,1.235,1.259.196.223.385.451.571.682.136.169-.137-.194.076.101.109.15.218.299.324.451.361.516.697,1.051,1.005,1.601.172.307.336.619.49.935.07.144.139.289.206.435-.006-.012.205.481.129.291-.082-.204.097.257.112.297.067.18.131.361.192.543.101.302.192.607.273.915.08.305.15.613.209.923.006.033.106.641.045.21.026.184.041.371.056.556.088,1.04.857,2.051,2,2,1.008-.045,2.094-.884,2-2h0Z"/><path class="g" d="M76.664,200.502c-.477-2.323-.045-4.676.502-6.947.47-1.952.961-3.964,1.983-5.712,1.836-3.141,5.372-4.274,8.732-4.718,3.142-.415,6.309-.71,9.472-.903,2.922-.178,5.62.011,8.339,1.268,3.637,1.682,8.159,5.431,8.023,9.836-.079,2.575,3.921,2.572,4,0,.154-4.989-3.75-9.395-7.681-11.989-3.287-2.169-7.237-3.339-11.174-3.192-3.621.136-7.251.503-10.844.963-4.314.552-8.558,1.756-11.373,5.346-1.676,2.137-2.511,4.762-3.168,7.362-.813,3.219-1.345,6.457-.668,9.75.518,2.52,4.374,1.453,3.857-1.063h0Z"/><path class="g" d="M100.585,191.068c1.207.198,2.398.482,3.553.888.235.083.469.17.7.262.195.077.293.128.042.015.119.054.239.106.357.161.449.209.889.438,1.315.689.371.218.732.453,1.08.706.053.038.375.214.103.074-.269-.139.022.021.088.076.152.126.301.257.445.392.349.325.669.678.974,1.044.076.091.15.183.225.274.36.44-.12-.174.071.089.18.248.362.494.534.748.585.865,1.788,1.329,2.736.718.862-.556,1.344-1.809.718-2.736-1.301-1.925-2.835-3.561-4.833-4.766-2.141-1.291-4.587-2.087-7.044-2.491-1.028-.169-2.203.267-2.46,1.397-.219.964.293,2.279,1.397,2.46h0Z"/><path class="g" d="M100.824,198.577c.145.01.29.025.434.044l-.532-.071c.62.092,1.201.279,1.788.493.211.077-.495-.221-.15-.064.062.028.125.056.187.085.157.073.312.15.465.23.311.164.614.342.909.535.133.087.265.177.394.27.07.051.15.098.214.157-.091-.085-.363-.287-.113-.084.258.209.507.431.744.665.122.121.241.246.356.374.041.046.271.385.328.388-.025-.001-.294-.396-.131-.166.048.067.096.134.142.202.1.148.194.299.283.453.523.907,1.832,1.3,2.736.718.915-.59,1.277-1.766.718-2.736-.908-1.575-2.303-2.849-3.832-3.809-1.489-.935-3.182-1.559-4.941-1.683-1.046-.073-2.046.972-2,2,.051,1.146.88,1.921,2,2h0Z"/><path class="g" d="M98.079,205.167c.445.073.875.207,1.291.382l-.478-.202c.514.222.996.504,1.441.843l-.405-.313c.426.331.809.709,1.139,1.135l-.313-.405c.275.363.507.753.692,1.17.19.429.764.8,1.195.919.479.132,1.116.072,1.541-.202.427-.275.803-.685.919-1.195l.071-.532c-.001-.361-.092-.697-.273-1.009-.58-1.306-1.597-2.352-2.749-3.17-.535-.38-1.114-.645-1.718-.897-.416-.174-.845-.309-1.291-.382-.547-.089-1.045-.088-1.541.202-.415.243-.811.718-.919,1.195-.117.512-.091,1.087.202,1.541.265.411.692.837,1.195.919h0Z"/><path class="g" d="M76.893,204.754c2.299,4.522,8.714,5.589,13.285,5.582,1.215-.002,2.479-.086,3.684.105,1.158.183,1.953,1.057,2.882,1.705,2.234,1.558,5.834,1.546,7.209-1.154,1.166-2.289-2.284-4.316-3.454-2.019-.099.195-.229.24-.048.163-.142.06-.211.109-.38.089-.409-.048-.684-.13-1.038-.349-.812-.502-1.491-1.199-2.33-1.662-1.943-1.072-4.382-.881-6.526-.878-1.99.003-3.836-.274-5.75-.826-1.672-.482-3.259-1.158-4.081-2.776-1.167-2.295-4.619-.273-3.454,2.019h0Z"/><path class="g" d="M103.953,34.253c-3.199,1.091-6.286,2.511-9.342,3.945-1.437.674-2.868,1.362-4.303,2.04-.391.185-1.422.446-1.678.783l-.129.059c.452-.131.72.009.804.42l.185.359.071-.532c.041-.416.036-.819-.005-1.235-.171-1.739-1.021-3.497-2.944-3.721-1.657-.194-3.563,1.125-4.942,1.925-3.289,1.907-6.324,4.263-9.223,6.713-1.571,1.328-3.346,2.607-4.143,4.57-.718,1.768-1.077,3.737-1.432,5.605-.478,2.516,3.377,3.593,3.857,1.063.202-1.062.426-2.118.695-3.164.218-.846.353-1.893.898-2.6.611-.792,1.542-1.436,2.298-2.086.883-.759,1.778-1.504,2.688-2.229,1.805-1.438,3.688-2.79,5.66-3.99.928-.565,1.878-1.095,2.858-1.566.232-.112.466-.22.701-.325-.414.061-.75-.033-1.006-.283-.064.094.076.89.066,1.053-.069,1.075-.065,1.985.695,2.846.679.767,1.649,1.175,2.675,1.113,1.679-.102,3.602-1.433,5.101-2.146,3.591-1.709,7.187-3.473,10.957-4.759,2.423-.826,1.383-4.691-1.063-3.857h0Z"/><path class="g" d="M202.053,30.033c-2.842,3.244-6.222,5.903-9.78,8.317-1.894,1.285-3.831,2.501-5.764,3.724-1.557.985-2.836,2.422-3.563,4.122-.425.992-.296,2.144.718,2.736.842.492,2.309.281,2.736-.718.327-.765.742-1.452,1.328-2.045.144-.146.297-.277.446-.417.177-.166.116-.073-.035.024.417-.267.838-.529,1.257-.793,1.922-1.212,3.836-2.438,5.705-3.732,3.537-2.45,6.939-5.143,9.782-8.389.711-.812.799-2.029,0-2.828-.726-.726-2.114-.816-2.828,0h0Z"/><path class="g" d="M223.747,25.429c-3.592,3.612-7.927,6.345-12.578,8.388-2.029.891-4.165,1.721-6.329,2.219-.741.171-1.477.284-2.24.283-.283,0-.56-.003-.835-.07-.171-.042-.429-.227-.352-.109-1.412-2.139-4.878-.138-3.454,2.019,2.752,4.168,9.445,1.458,12.998.048,5.788-2.296,11.209-5.514,15.619-9.949,1.817-1.827-1.01-4.657-2.828-2.828h0Z"/><path class="g" d="M176.793,128.427c-.009,5.16.082,10.322.218,15.48.154,5.863.255,11.787,1.038,17.607.144,1.072,1.52,1.655,2.46,1.397,1.157-.318,1.542-1.385,1.397-2.46.062.462-.037-.334-.046-.412-.032-.28-.061-.56-.088-.84-.062-.627-.114-1.255-.162-1.884-.105-1.372-.186-2.746-.256-4.12-.164-3.201-.269-6.405-.352-9.61-.13-5.051-.218-10.106-.209-15.159.004-2.574-3.996-2.578-4,0h0Z"/><path class="g" d="M234.244,112.426c.508,6.827,1.656,13.636,1.184,20.5-.254,3.69-.858,7.361-1.736,10.953-.428,1.75-.913,3.456-1.074,5.259-.148,1.656.004,3.315.116,4.968.174,2.554,4.175,2.574,4,0-.108-1.59-.254-3.185-.131-4.779.138-1.796.756-3.532,1.158-5.28.84-3.647,1.409-7.387,1.666-11.122.472-6.864-.675-13.672-1.184-20.5-.19-2.551-4.192-2.572-4,0h0Z"/><path class="g" d="M228.851,68.613c.26,2.051.504,4.111.293,6.179.042-.416-.02.128-.035.215-.044.248-.095.495-.155.74-.106.428-.244.844-.397,1.258.134-.363-.087.179-.101.208-.11.223-.231.442-.361.654-.098.159-.202.314-.311.465.221-.306-.234.259-.284.314-.711.768-.817,2.079,0,2.828.773.71,2.069.82,2.828,0,1.483-1.6,2.376-3.629,2.698-5.778.356-2.378.126-4.714-.174-7.085-.131-1.034-.826-2.053-2-2-.971.043-2.141.888-2,2h0Z"/><path class="g" d="M214.636,64.267c-.116.065-.236.123-.354.184-.237.123.139-.061.19-.076-.085.026-.169.066-.253.096-.285.102-.577.184-.872.252-.173.04-.347.075-.522.104-.078.013-.159.02-.237.037.076-.017.451-.052.172-.026-.342.032-.682.057-1.026.058-.315.002-.63-.012-.943-.044-.452-.046.409.072-.028-.007-.16-.029-.318-.063-.475-.105-.14-.037-.279-.08-.416-.13-.079-.029-.16-.072-.241-.094.11.029.345.153.106.04-.497-.236-1.002-.452-1.509-.664-.444-.185-1.147-.029-1.541.202-.415.243-.811.718-.919,1.195-.117.512-.091,1.087.202,1.541.302.468.686.706,1.195.919-.215-.09-.263-.112-.022-.003.086.039.172.079.258.118.188.087.377.174.567.256.445.192.888.387,1.36.503.817.2,1.685.286,2.527.271,1.643-.029,3.357-.363,4.802-1.175.913-.513,1.296-1.839.718-2.736-.595-.923-1.76-1.266-2.736-.718h0Z"/><path class="g" d="M198.457,48.439c-.341,1.44.157,4.668,2.849,4.767,3.532-.255,3.461-4.193,2.149-5.959-1.074-1.446-3.979-1.885-4.998,1.192Z"/><path class="g" d="M219.678,46.404c-.311,1.425.156,4.621,2.639,4.726,3.258-.244,3.183-4.142,1.968-5.895-.994-1.435-3.675-1.876-4.608,1.169Z"/><path class="g" d="M211.963,55.484c.26.401.511.809.757,1.219.264.441.541.887.753,1.356l-.202-.478c.045.109.08.217.099.334l-.071-.532c.005.055.005.105,0,.16l.071-.532c-.004.034-.013.068-.025.1l.202-.478c-.012.033-.028.064-.048.093l.313-.405c-.082.104-.18.193-.284.275l.405-.313c-.089.065-.18.119-.281.164l.478-.202c-.136.055-.274.085-.419.105l.532-.071c-.262.034-.526.059-.786.108-.469.087-.962.521-1.195.919-.251.429-.357,1.061-.202,1.541.157.484.457.951.919,1.195l.478.202c.354.095.709.095,1.063,0,.035-.007.07-.012.105-.017l-.532.071c.35-.046.72-.057,1.055-.177.533-.191,1.011-.459,1.406-.874.294-.309.549-.676.655-1.097.123-.488.106-.816.017-1.299-.074-.4-.271-.77-.461-1.127-.41-.775-.873-1.524-1.35-2.26-.282-.435-.687-.779-1.195-.919-.479-.132-1.116-.072-1.541.202-.427.275-.803.685-.919,1.195s-.092,1.088.202,1.541h0Z"/><path class="g" d="M101.47,73.886c-.122.072-.246.142-.373.205-.061.03-.147.053-.2.095.309-.242.309-.125.108-.048-.301.115-.61.211-.922.29-.35.089-.709.129-1.059.21.092-.021.424-.048.148-.023-.086.008-.171.017-.257.025-.192.016-.385.027-.578.032-.335.01-.67.003-1.005-.023-.081-.006-.162-.017-.243-.023-.262-.017.43.073.177.025-.17-.033-.34-.059-.508-.1-.15-.036-.299-.078-.446-.128-.132-.044-.391-.211-.524-.2l.207.087c-.069-.03-.137-.059-.206-.089-.092-.04-.185-.08-.277-.12-.321-.137-.642-.274-.968-.401-.977-.381-2.237.419-2.46,1.397-.262,1.148.351,2.052,1.397,2.46.056.022.453.189.181.07-.248-.109.062.028.108.048.317.137.635.275.955.406.352.144.708.271,1.08.353.867.191,1.773.27,2.66.234,1.721-.07,3.527-.44,5.024-1.328.9-.534,1.305-1.825.718-2.736-.584-.906-1.773-1.289-2.736-.718h0Z"/><path class="g" d="M84.24,57.254c-.363,1.533.167,4.971,3.034,5.076,3.761-.272,3.685-4.465,2.288-6.346-1.144-1.54-4.237-2.008-5.322,1.27Z"/><path class="g" d="M106.837,55.103c-.33,1.487.163,4.823,2.793,4.931,3.45-.256,3.372-4.324,2.086-6.152-1.052-1.497-3.891-1.956-4.88,1.221Z"/><path class="g" d="M98.709,64.395c.293.429.576.865.853,1.304.296.47.62.949.845,1.458l-.202-.478c.039.097.069.192.088.295l-.071-.532c.007.059.008.112.005.171l.071-.532c-.01.058-.022.104-.045.158l.202-.478c-.017.034-.038.066-.063.095l.313-.405c-.081.091-.166.176-.26.254l.405-.313c-.107.082-.218.149-.342.202l.478-.202c-.216.083-.441.099-.666.147-.474.1-.957.511-1.195.919-.251.429-.357,1.061-.202,1.541.157.484.457.951.919,1.195.492.26.993.317,1.541.202.191-.04.387-.052.573-.113.555-.18.992-.441,1.419-.839.545-.508.904-1.247.847-2.003-.046-.61-.248-1.126-.545-1.656-.463-.827-.98-1.626-1.514-2.409-.296-.434-.676-.776-1.195-.919-.479-.132-1.116-.072-1.541.202-.427.275-.803.685-.919,1.195-.115.504-.1,1.099.202,1.541h0Z"/><path class="g" d="M181.588,87.956c6.989,4.172,15.002,6.234,23.133,6.074,7.206-.142,14.592-1.977,19.214-7.921.662-.852.83-1.998,0-2.828-.69-.69-2.162-.857-2.828,0-4.089,5.257-10.374,6.679-16.744,6.755-7.333.087-14.452-1.771-20.756-5.533-2.216-1.323-4.23,2.134-2.019,3.454h0Z"/><path class="g" d="M160.234,168.706c-.416-6.666-.621-13.345-.782-20.021-.139-5.736-.338-11.479-.025-17.212.32-5.868.893-11.77,2.03-17.541.98-4.97,2.766-9.727,5.774-13.842,3.678-5.03,9.089-8.593,14.183-12.028,2.123-1.432.123-4.899-2.019-3.454-4.919,3.318-10.011,6.726-13.894,11.275-3.527,4.132-6.035,9.16-7.339,14.431-2.834,11.454-3.03,23.5-2.781,35.225.164,7.724.373,15.453.854,23.165.159,2.557,4.161,2.575,4,0h0Z"/><path class="g" d="M224.029,86.869c3.581,1.189,7.11,2.649,10.113,4.989,3.652,2.846,6.168,6.797,7.93,11.028,3.947,9.476,5.055,19.862,6.934,29.868,1.135,6.046,2.389,12.07,3.54,18.113.481,2.526,4.337,1.456,3.857-1.063-1.05-5.518-2.189-11.019-3.241-16.536-1.041-5.457-1.863-10.955-2.956-16.401-1.944-9.689-4.753-20.613-12.587-27.303-3.655-3.122-8.005-5.051-12.527-6.552-2.449-.813-3.499,3.049-1.063,3.857h0Z"/><path class="g" d="M213.91,80.656c.141.915.529,1.756,1.224,2.388.61.555,1.275,1.061,1.949,1.535,1.215.854,2.536,1.507,3.919,2.044.455.177,1.137.035,1.541-.202.415-.243.811-.718.919-1.195.117-.512.091-1.087-.202-1.541-.298-.463-.684-.72-1.195-.919-.152-.059-.303-.12-.453-.183l.478.202c-1.287-.548-2.492-1.26-3.601-2.112l.405.313c-.434-.337-.907-.679-1.25-1.112l.313.405c-.075-.105-.137-.212-.193-.329l.202.478c-.108-.269-.155-.55-.199-.835-.071-.462-.534-.97-.919-1.195-.429-.251-1.061-.357-1.541-.202-.484.157-.951.457-1.195.919l-.202.478c-.095.354-.095.709,0,1.063h0Z"/><path class="g" d="M23.632,139.937c-4.128,1.333-7.731,3.992-9.926,7.774-2.207,3.803-2.575,7.979-1.935,12.251,1.246,8.318,2.459,16.642,3.678,24.965.533,3.64,1.064,7.281,1.606,10.921.159,1.069,1.509,1.658,2.46,1.397,1.145-.315,1.556-1.388,1.397-2.46-1.015-6.821-2.004-13.646-3.005-20.469-.583-3.971-1.167-7.942-1.756-11.913-.526-3.542-1.196-6.951-.016-10.446,1.336-3.957,4.635-6.894,8.561-8.162,2.44-.788,1.396-4.652-1.063-3.857h0Z"/><path class="g" d="M427.239,143.414c8.681,2.514,14.561,10.575,17.974,18.534,4.322,10.08,3.975,20.835,3.699,31.568-.157,6.11-1.082,12.153-1.768,18.217-.122,1.075,1.006,2,2,2,1.182,0,1.878-.922,2-2,1.319-11.664,2.729-23.429,1.668-35.188-.911-10.102-4.448-20.006-11.026-27.825-3.556-4.227-8.138-7.615-13.483-9.163-2.477-.717-3.535,3.141-1.063,3.857h0Z"/><path class="g" d="M429.498,140.476c-.554-1.238-1.224-3.122-1.796-4.644-.748-1.991-1.504-3.981-2.367-5.926-.739-1.665-1.627-3.474-3.167-4.535-2.157-1.486-5.64-.908-8.103-.738-10.435.722-21.587,3.483-30.146,9.735-4.382,3.2-8.252,7.238-10.529,12.216-.449.982-.28,2.153.718,2.736.86.503,2.285.269,2.736-.718,3.518-7.691,11.062-13.222,18.874-16.037,4.914-1.77,10.125-3.035,15.312-3.648,2.629-.311,5.479-.659,8.128-.415,1.45.134,2.071,1.976,2.607,3.161,1.602,3.538,2.693,7.286,4.279,10.83.441.986,1.876,1.221,2.736.718,1.015-.594,1.16-1.747.718-2.736h0Z"/><path class="g" d="M415.91,138.804c-8.954.087-17.866,1.472-26.476,3.912-8.32,2.358-16.614,5.53-24.254,9.597-6.89,3.668-13.052,8.593-17.461,15.091-4.572,6.739-6.707,14.726-8.122,22.649-.797,4.465-1.401,8.962-2.194,13.428-.39,2.195-.884,4.367-1.309,6.555-.469,2.41-.9,4.856-1.928,7.104-.449.982-.28,2.153.718,2.736.86.503,2.285.27,2.736-.718,1.727-3.779,2.348-7.946,3.15-11.995.761-3.838,1.324-7.711,1.937-11.574,1.205-7.587,2.573-15.372,6.143-22.259,3.53-6.81,9.062-12.118,15.608-16.022,7.071-4.217,14.964-7.299,22.797-9.766,9.293-2.927,18.901-4.644,28.654-4.739,2.572-.025,2.579-4.025,0-4h0Z"/><path class="g" d="M337.584,220.142c-5.917-5.138-11.304-10.782-16.679-16.474-2.517-2.665-5.433-7.079-9.695-5.558-3.16,1.128-6.116,3.687-8.576,5.893-4.591,4.117-8.761,9.13-11.697,14.572-.51.945-1.004,1.932-1.354,2.948-.621,1.807.27,3.059,1.201,4.541,1.965,3.129,4.01,6.208,6.107,9.25,7.924,11.492,16.454,23.217,29.03,29.969,6.615,3.551,14.096,5.472,21.606,4.451,7.334-.997,13.973-5.593,18.212-11.555,4.183-5.882,6.079-13.41,8.016-20.259,2.345-8.291,4.168-16.731,5.289-25.277.271-2.067.493-4.139.666-6.216.214-2.565-3.787-2.551-4,0-.656,7.871-2.08,15.662-3.945,23.332-1.694,6.967-3.537,14.152-6.36,20.761-2.52,5.899-6.721,10.611-12.514,13.444-6.193,3.029-13.468,2.442-19.807.177-12.276-4.388-20.992-14.569-28.442-24.783-2.058-2.822-4.061-5.684-6.013-8.58-.928-1.377-1.844-2.761-2.746-4.155-.452-.698-.901-1.399-1.345-2.102-.2-.316-.398-.632-.596-.949-.109-.174-.633-1.014-.595-.802.042.232.094-.182.156-.348.124-.33-.062.121.092-.225.194-.435.406-.863.627-1.285.538-1.027,1.136-2.022,1.765-2.995,1.546-2.391,3.289-4.644,5.185-6.768,2.09-2.342,4.363-4.576,6.878-6.463,1.238-.929,2.538-1.781,3.898-2.521,1.641-.892,2.464.476,3.548,1.61,4.91,5.14,9.692,10.406,14.889,15.263,1.432,1.338,2.892,2.646,4.371,3.931,1.936,1.681,4.776-1.137,2.828-2.828h0Z"/><path class="g" d="M280.538,187.751c-.615-1.387-1.976-2.542-3.065-3.551-1.474-1.366-3.05-2.616-4.518-3.988-.893-.834-3.031-2.247-2.568-3.666.491-1.507,2.168-1.122,3.309-.69,7.267,2.747,13.947,6.904,21.087,9.949,1.833.782,3.335,1.566,4.572,3.2,1.279,1.689,2.021,3.73,1.963,5.851-.071,2.575,3.93,2.573,4,0,.125-4.545-2.523-9.384-6.518-11.624-1.717-.962-3.671-1.603-5.453-2.447-2.132-1.01-4.243-2.064-6.356-3.113-2.191-1.087-4.382-2.173-6.597-3.21-2.013-.943-4.091-2.036-6.226-2.67-2.104-.625-4.603-.402-6.204,1.234-1.704,1.74-2.276,4.687-.864,6.77,1.311,1.934,3.274,3.519,5.037,5.022,1.142.973,2.278,1.958,3.349,3.01.599.589,1.257,1.171,1.598,1.941.438.988,1.878,1.219,2.736.718,1.018-.595,1.157-1.745.718-2.736h0Z"/><path class="g" d="M278.183,188.51c-7.182.731-14.369,1.4-21.559,2.044-3.836.343-7.683.701-11.484,1.339-3.209.539-6.234,1.53-7.295,4.976-1.111,3.609,1.249,6.65,4.86,7.136,1.069.144,2.147-.257,2.46-1.397.256-.932-.319-2.315-1.397-2.46-.571-.077-1.213-.145-1.713-.458-.176-.11-.237-.16-.365-.318.02.025-.058-.158-.065-.179-.176-.514-.011-1.306.309-1.791.632-.957,1.655-1.153,2.717-1.368,1.259-.254,2.529-.454,3.802-.624,6.145-.821,12.351-1.216,18.522-1.796,3.737-.351,7.472-.724,11.207-1.104,1.075-.109,2-.841,2-2,0-.997-.919-2.11-2-2h0Z"/><path class="g" d="M266.364,198.214c-4.495.127-8.985.348-13.463.765-2.129.198-4.259.42-6.38.69-1.997.254-4.073.818-5.479,2.361-2.603,2.855-1.15,7.027,2.211,8.409,1.837.755,3.761.673,5.698.493,1.881-.174,3.763-.331,5.645-.48,4.097-.325,8.197-.63,12.302-.84,2.561-.131,2.577-4.132,0-4-6.248.32-12.49.822-18.72,1.392-1.227.112-2.849.268-3.922-.508-.587-.424-.807-1.122-.308-1.734.836-1.027,2.632-1.103,3.822-1.242,1.837-.214,3.676-.41,5.518-.578,4.35-.395,8.711-.607,13.077-.73,2.569-.072,2.579-4.073,0-4h0Z"/><path class="g" d="M249.776,206.962c-2.379.944-4.327,3.483-3.441,6.139.745,2.233,2.783,3.394,5.041,3.518,3.142.173,6.32.047,9.464-.001,1.709-.027,3.419-.056,5.127-.116,2.567-.089,2.579-4.09,0-4-3.531.123-7.067.16-10.6.167-1.362.003-2.721-.032-4.081-.055-.077-.001-.154-.009-.231-.016.596.057-.308-.091-.278-.078-.409-.17-.428-.297-.604-.545-.056-.079-.085-.237.02-.442.145-.281.464-.642.645-.714,1.003-.398,1.705-1.337,1.397-2.46-.262-.955-1.45-1.798-2.46-1.397h0Z"/><path class="g" d="M258.505,218.579c5.205.062,10.408.225,15.613.295,1.955.026,3.911.072,5.862.205,1.682.114,3.461.216,5.049.833,1.007.391,2.195-.431,2.46-1.397.311-1.131-.386-2.067-1.397-2.46-1.712-.665-3.67-.787-5.483-.93-2.074-.164-4.155-.217-6.235-.247-5.29-.076-10.579-.235-15.869-.298-2.575-.03-2.576,3.969,0,4h0Z"/><path class="e" d="M475.73,255.149c0-14.748.393-18.438.535-43.736.038-6.686-6.367-11.536-12.788-9.669-16.456,4.783-40.278,11.736-56.638,16.456-5.514,1.591-9.313,6.627-9.337,12.366-.107,24.858-.385,34.882-.385,57.251l78.614-32.667Z"/><path class="g" d="M399.116,287.816c.001-12.842.141-25.682.258-38.523.032-3.532.06-7.064.083-10.597.013-1.98.024-3.961.034-5.941.008-1.743-.052-3.442.426-5.134.785-2.772,2.662-5.127,5.169-6.538,1.29-.726,2.705-1.076,4.117-1.484,1.584-.457,3.167-.915,4.75-1.374,13.868-4.015,27.728-8.056,41.59-12.09,3.066-.892,6.186-2.075,9.324-2.671,2.638-.501,5.373.47,7.214,2.393,2.358,2.462,2.185,5.504,2.163,8.685-.024,3.542-.057,7.085-.102,10.627-.111,8.806-.363,17.611-.405,26.419-.006,1.187-.008,2.375-.008,3.562,0,2.574,4,2.578,4,0,.002-9.063.244-18.122.375-27.183.05-3.434.087-6.868.116-10.302.031-3.75.526-7.738-1.03-11.258-1.293-2.924-3.789-5.161-6.753-6.303-3.299-1.271-6.422-.6-9.688.35-14.342,4.171-28.68,8.353-43.024,12.513-3.308.959-6.616,1.917-9.925,2.873-3.23.933-6.179,2.21-8.46,4.781s-3.619,5.798-3.818,9.223c-.236,4.057-.06,8.176-.09,12.24-.098,13.256-.279,26.512-.311,39.769-.005,1.988-.007,3.976-.007,5.963,0,2.574,4,2.578,4,0h0Z"/></g></g></svg>