<?xml version="1.0" encoding="UTF-8"?><svg id="b" xmlns="http://www.w3.org/2000/svg" width="469.546" height="316.626" viewBox="0 0 469.546 316.626"><defs><style>.f{fill:#fff;}.g{fill:#211715;}.h{fill:#ffda71;}.i{fill:#645d5c;}</style></defs><g id="c"><g id="d"><path class="f" d="M51.713,126.049s.413.482,1.071,1.256c6.284-7.724,13.051-15.409,20.141-22.983.008-.022.017-.041.026-.063-1.058-1.151-2.1-2.318-3.123-3.499-.593-3.831-1.911-8.91-2.804-12.661-1.201-5.045-2.438-10.178-5.086-14.638-1.952-3.287-4.771-6.453-8.556-5.914-.419.06-1.325.509-1.77,1.092-.794,1.04-.982,2.134-.749,3.174.822,3.66,1.388,5.561,2.292,8.891-1.855-1.72-3.204-2.972-3.204-2.972-5.067-4.703-15.419-13.277-20.486-17.98-1.302-1.209-2.556-2.078-4.17-2.82-1.614-.742-3.588-.929-5.129-.044-1.541.884-2.664,3.282-2.246,5.025.169.703.684,2.429,1.284,3.386,0,0,.181.288.477.76-1.016-.914-2.019-1.82-3.003-2.712-1.948-1.766-3.878-3.04-6.386-2.605-2.276.394-3.992,2.669-3.808,4.972.179,2.244,1.553,4.046,3.169,5.614.81.786,1.686,1.617,2.612,2.479-.744-.453-1.887-1.754-4.332-2.501-1.799-.551-4.337.426-5.138,2.132-.749,1.622-.499,3.567.374,5.127.874,1.55,2.101,3.026,3.39,4.264,1.784,1.713,4.056,3.755,6.519,5.869-1.622-.815-3.277-1.386-4.996-1.453-2.21-.087-3.64.997-4.052,2.275-.542,1.683-.39,3.293.823,5.157,1.104,1.695,3.38,3.77,5.547,5.763,3.189,2.934,7.517,5.73,10.799,7.926,8.153,5.037,12.825,7.91,21.316,9.91,1.117.263,8.279,6.705,9.195,7.774Z"/><path class="f" d="M448.315,108.365c-8.153,5.037-12.825,7.91-21.316,9.91-1.117.263-8.279,6.705-9.195,7.774,0,0-.414.483-1.074,1.26-6.317-7.731-13.155-15.622-20.164-23.05,1.058-1.151,2.1-2.318,3.123-3.499.593-3.831,1.911-8.91,2.804-12.661,1.201-5.045,2.438-10.178,5.086-14.638,1.952-3.287,4.771-6.453,8.556-5.914.419.06,1.325.509,1.77,1.092.794,1.04.982,2.134.749,3.174-.822,3.66-1.388,5.561-2.292,8.891,1.855-1.72,3.204-2.972,3.204-2.972,5.067-4.703,15.419-13.277,20.486-17.98,1.302-1.209,2.556-2.078,4.17-2.82s3.588-.929,5.129-.044,2.664,3.282,2.246,5.025c-.169.703-.684,2.429-1.284,3.386l-.477.76c1.016-.914,2.019-1.82,3.003-2.712,1.948-1.766,3.878-3.04,6.386-2.605,2.276.394,3.992,2.669,3.808,4.972-.179,2.244-1.553,4.046-3.169,5.614-.81.786-1.686,1.617-2.612,2.479.744-.453,1.887-1.754,4.332-2.501,1.799-.551,4.337.426,5.138,2.132.749,1.622.499,3.567-.374,5.127-.874,1.55-2.101,3.026-3.39,4.264-1.784,1.713-4.056,3.755-6.519,5.869,1.622-.815,3.277-1.386,4.996-1.453,2.21-.087,3.64.997,4.052,2.275.542,1.683.39,3.293-.823,5.157-1.104,1.695-3.38,3.77-5.547,5.763-3.189,2.934-7.517,5.73-10.799,7.926"/><path class="g" d="M55.957,87.85c-.091-2.153.122-4.301-.2-6.443-.307-2.038-1.04-4.042-1.561-6.035-.267-1.019-.519-2.042-.759-3.068-.181-.777-.516-1.575.115-2.227.278-.288.22-.156.374-.178.366-.053.726.002,1.074.083.773.18,1.463.613,2.059,1.129,3.351,2.901,4.984,7.671,6.167,11.795,1.302,4.538,2.358,9.184,3.377,13.793.277,1.255.54,2.514.76,3.78.133.765.259,1.355.769,1.979.506.619,1.055,1.208,1.588,1.805,2.029,2.273,4.127,4.483,6.279,6.64,2.185,2.19,5.579-1.204,3.394-3.394-2.718-2.725-5.342-5.539-7.867-8.445l.617,1.059c-.702-4.416-1.869-8.748-2.907-13.093-1.131-4.732-2.355-9.501-4.679-13.812-1.981-3.674-4.994-7.52-9.417-8.056-2.263-.274-4.424.499-5.72,2.442-1.502,2.251-.958,4.568-.367,7.008.542,2.239,1.179,4.452,1.774,6.677.571,2.136.237,4.374.33,6.561.13,3.077,4.93,3.094,4.8,0h0Z"/><path class="g" d="M22.414,106.293c-4.745-3.172-9.288-6.371-13.35-10.41-.855-.85-1.737-1.718-2.35-2.765-.634-1.082-.568-1.824-.366-2.961-.07.393.15-.125-.085.108.056-.056.523-.47.227-.255.35-.254.51-.296.924-.355,1.326-.19,2.759.367,3.955.857s2.638-.533,2.952-1.676c.378-1.376-.472-2.459-1.676-2.952-3.091-1.266-7.302-1.78-9.776.988-2.594,2.902-1.542,7.193.617,9.972,2.177,2.802,5.006,5.278,7.792,7.46,2.801,2.194,5.758,4.159,8.713,6.134,1.078.721,2.657.21,3.284-.861.689-1.178.22-2.561-.861-3.284h0Z"/><path class="g" d="M19.991,110.438c6.63,4.095,13.228,7.965,20.848,9.897.258.065.866.34,1.104.274-.391.109-.54-.331-.109.006.319.25.673.464.997.711-.394-.301.343.278.41.332.197.16.393.321.588.483.525.436,1.044.879,1.56,1.326,1.569,1.36,3.251,2.718,4.628,4.281,2.047,2.322,5.431-1.084,3.394-3.394-1.408-1.598-3.127-2.983-4.734-4.372-1.62-1.401-3.412-3.314-5.489-4.009-1.787-.598-3.657-.945-5.444-1.569-1.643-.573-3.237-1.248-4.799-2.015-3.641-1.791-7.083-3.964-10.532-6.094-2.635-1.628-5.049,2.523-2.423,4.145h0Z"/><path class="g" d="M12.381,70.907c-2.775-2.059-6.373-2.984-9.46-1.003-3.518,2.257-3.6,6.899-1.613,10.228,1.75,2.932,4.362,5.208,6.879,7.462,2.593,2.321,5.248,4.573,7.949,6.768,2.98,2.422,6.012,4.791,9.153,7.002,1.06.747,2.668.191,3.284-.861.702-1.2.202-2.535-.861-3.284-5.792-4.077-11.275-8.643-16.534-13.382-1.189-1.071-2.396-2.141-3.507-3.293-1.162-1.205-2.665-2.814-2.893-4.548-.167-1.27.336-2.172,1.631-2.403,1.198-.214,2.546.714,3.551,1.459,1.042.773,2.68.171,3.284-.861.715-1.222.183-2.509-.861-3.284h0Z"/><path class="g" d="M38.621,79.617c-4.483-3.894-8.936-7.822-13.364-11.778-2.189-1.955-4.367-3.921-6.546-5.888-2.001-1.806-4.127-3.429-6.904-3.669-2.656-.23-5.167,1.082-6.609,3.296-1.509,2.318-1.333,5.145-.19,7.566,1.053,2.23,2.966,3.918,4.73,5.58,1.819,1.713,3.668,3.392,5.534,5.053,4.35,3.873,8.784,7.655,13.31,11.322,1.006.815,2.41.984,3.394,0,.843-.843,1.012-2.574,0-3.394-6.92-5.607-13.711-11.429-20.134-17.602-1.281-1.231-2.828-2.671-2.963-4.563-.103-1.432,1.157-2.59,2.562-2.482,1.899.145,3.392,1.851,4.715,3.047,1.897,1.715,3.799,3.424,5.706,5.127,4.428,3.956,8.882,7.883,13.364,11.778,2.322,2.017,5.731-1.364,3.394-3.394h0Z"/><path class="g" d="M51.649,76.035c-4.827-4.468-9.901-8.668-14.865-12.982-2.431-2.112-4.742-4.454-7.307-6.399-3.152-2.39-7.795-4.081-11.261-1.304-1.628,1.305-2.67,3.401-2.769,5.486-.09,1.893.755,4.064,1.686,5.673,1.547,2.673,5.697.259,4.145-2.423-.707-1.222-1.379-2.757-.785-4.058.635-1.392,2.039-1.558,3.398-1.084,3.131,1.094,5.61,4.102,8.052,6.24,5.429,4.754,11.016,9.341,16.312,14.244,2.264,2.096,5.667-1.29,3.394-3.394h0Z"/><path class="g" d="M38.806,79.458c-5.787,5.551-10.235,12.288-14.605,18.961-.71,1.085-.217,2.653.861,3.284,1.169.684,2.572.226,3.284-.861,4.156-6.346,8.35-12.711,13.855-17.99,2.234-2.142-1.163-5.534-3.394-3.394h0Z"/><path class="g" d="M418.361,87.85c.079-1.867-.2-3.811.108-5.661.34-2.042,1.105-4.069,1.621-6.075.54-2.103,1.46-4.53.845-6.703-.656-2.321-2.569-4.057-4.982-4.284-4.449-.419-7.865,3.029-10.058,6.489-2.629,4.149-4.033,8.949-5.195,13.679-1.205,4.908-2.53,9.831-3.325,14.826l.617-1.059c-2.525,2.905-5.148,5.72-7.867,8.445-2.184,2.19,1.209,5.585,3.394,3.394,1.925-1.93,3.808-3.902,5.636-5.924.848-.937,1.966-1.912,2.606-3.006.546-.933.55-2.387.764-3.44.932-4.586,2.059-9.161,3.239-13.69,1.133-4.35,2.545-9.099,5.553-12.566,1.019-1.174,2.418-2.496,4.096-2.386.368.024.715.132.892.799.231.868-.354,2.18-.565,3.038-.578,2.349-1.364,4.665-1.87,7.028-.501,2.339-.21,4.73-.31,7.096-.13,3.089,4.67,3.083,4.8,0h0Z"/><path class="g" d="M449.526,110.438c2.905-1.942,5.815-3.869,8.57-6.022,2.836-2.216,5.72-4.721,7.935-7.572,2.14-2.754,3.193-6.97.687-9.883-2.459-2.857-6.713-2.361-9.846-1.077-1.199.491-2.049,1.595-1.676,2.952.312,1.135,1.746,2.171,2.952,1.676,1.213-.497,2.616-1.027,3.955-.857.372.047.566.098.924.355-.285-.205.212.24.227.255-.267-.263.021.341-.085-.108.242,1.025.277,1.806-.271,2.79-.625,1.122-1.54,2.035-2.445,2.935-4.062,4.039-8.605,7.238-13.35,10.41-1.076.719-1.543,2.117-.861,3.284.625,1.069,2.201,1.585,3.284.861h0Z"/><path class="g" d="M447.104,106.293c-3.448,2.13-6.89,4.303-10.532,6.094-1.561.768-3.156,1.442-4.799,2.015-1.787.623-3.658.971-5.444,1.569-2.077.695-3.868,2.607-5.489,4.009-1.606,1.389-3.325,2.775-4.734,4.372-2.036,2.31,1.347,5.717,3.394,3.394,1.347-1.528,2.989-2.857,4.522-4.189.55-.478,1.105-.952,1.666-1.417.195-.162.391-.323.588-.483.066-.054.804-.633.41-.332.324-.247.677-.461.997-.711.431-.337.281.102-.109-.006.238.066.847-.209,1.104-.274,7.62-1.933,14.219-5.803,20.848-9.897,2.623-1.62.215-5.774-2.423-4.145h0Z"/><path class="g" d="M459.559,75.052c1.003-.744,2.354-1.673,3.551-1.459,1.293.231,1.797,1.137,1.631,2.403-.228,1.741-1.724,3.338-2.893,4.548-1.113,1.152-2.318,2.222-3.507,3.293-5.259,4.739-10.742,9.305-16.534,13.382-1.058.745-1.555,2.098-.861,3.284.612,1.047,2.218,1.611,3.284.861,5.627-3.961,10.977-8.358,16.133-12.91,2.498-2.205,5.054-4.401,7.031-7.103,2.206-3.014,3.334-7.651.309-10.584-3.066-2.972-7.409-2.203-10.567.14-1.039.771-1.566,2.078-.861,3.284.599,1.025,2.237,1.638,3.284.861h0Z"/><path class="g" d="M434.291,83.012c3.947-3.429,7.871-6.883,11.775-10.36,1.927-1.716,3.848-3.437,5.765-5.164,1.55-1.397,3.157-3.346,5.126-4.163,1.383-.574,3.003-.207,3.559,1.303.592,1.609-.758,3.347-1.792,4.439-2.929,3.095-6.244,5.891-9.439,8.703-3.849,3.388-7.76,6.708-11.744,9.936-1.008.817-.849,2.545,0,3.394.996.996,2.384.819,3.394,0,3.984-3.228,7.894-6.548,11.744-9.936,1.93-1.698,3.843-3.415,5.73-5.161,1.78-1.647,3.656-3.263,5.105-5.221,1.541-2.083,2.403-4.847,1.635-7.399-.725-2.408-2.792-4.461-5.287-4.955-2.799-.554-5.315.475-7.487,2.184-2.222,1.748-4.254,3.772-6.359,5.659-5.005,4.487-10.043,8.938-15.118,13.347-2.336,2.03,1.071,5.412,3.394,3.394h0Z"/><path class="g" d="M421.262,79.429c5.297-4.903,10.883-9.49,16.312-14.244,2.423-2.122,4.87-5.079,7.955-6.211,1.379-.506,2.843-.375,3.495,1.054.594,1.302-.078,2.836-.785,4.058-1.55,2.679,2.596,5.098,4.145,2.423,1.848-3.192,2.403-6.97.014-10.036-2.818-3.617-7.641-2.856-11.114-.69-2.745,1.712-5.06,4.223-7.491,6.346-2.64,2.306-5.302,4.585-7.956,6.874-2.681,2.314-5.369,4.624-7.969,7.031-2.272,2.103,1.129,5.491,3.394,3.394h0Z"/><path class="g" d="M427.317,82.852c5.504,5.279,9.699,11.644,13.855,17.99.709,1.083,2.125,1.539,3.284.861,1.077-.63,1.574-2.195.861-3.284-4.37-6.673-8.818-13.411-14.605-18.961-2.23-2.139-5.629,1.251-3.394,3.394h0Z"/><path class="f" d="M303.158,314.308c0-23.219-.2-58.81.03-64.58.2-5.06.79-11.72,4.53-16.25,3.33-4.04,7.954-9.055,11.954-12.815,28.666-24.462,85.545-73.755,99.174-90.744-7.592-9.421-16.026-19.187-24.666-28.161-.339-.352-.932-.4-1.323-.105-17.891,13.52-71.333,55.588-85.259,64.087-4.761,2.906-21.19,8.911-25.28,10.021-3.163.859-8.153,2.213-11.013,3.007-.395.78-.701,1.375-.701,1.375-.199.262-.342.455-.342.455-4.983,6.704-17.556,17.828-35.709,17.671-15.167-.131-29.882-9.212-35.029-18.21l-9.028-3.403c-1.195-.325-2.333-.634-3.3-.896-4.09-1.11-20.519-7.116-25.28-10.021-13.926-8.499-67.368-50.567-85.259-64.087-.393-.297-.991-.244-1.33.113-8.774,9.248-17.094,18.679-24.659,28.153,13.629,16.989,70.509,66.282,99.174,90.744,4,3.76,8.624,8.775,11.954,12.815,3.74,4.53,4.33,11.19,4.53,16.25.23,5.77.03,41.361.03,64.58h136.799Z"/><path class="f" d="M280.682,103.555c-.136.11-.269.228-.398.351,0,0,3.604-35.637-45.73-35.637s-45.068,35.637-45.068,35.637c-1.466-1.409-3.441-1.938-5.131-1.878-3.678.13-5.243,2.119-5.916,3.287-2.01,3.486-1.925,9.91-.576,13.885.956,2.815,2.521,7.121,6.295,10.209,1.673,1.369,4.194,2.235,6.526,1.634,1.709,5.808,4.805,12.816,10.241,19.323,5.081,6.081,10.47,10.285,16.68,12.406-.76,3.4-1.58,7.08-2.24,8.47-1.943,4.117-7.911,7.421-15.882,8.747,5.108,9.02,19.861,18.15,35.069,18.281,18.153.157,30.726-10.967,35.709-17.671,0,0,.192-.258.451-.599-8.004-1.318-13.999-4.629-15.958-8.758-.66-1.4-1.37-5.102-2.159-8.579,12.381-3.895,22.627-21.359,24.329-25.977.524-1.091,1.381-3.339,2.075-5.633.369.062.579.098.579.098,2.188.37,4.477-.469,6.032-1.741,3.774-3.088,5.339-7.394,6.295-10.209,1.349-3.975,1.434-10.399-.576-13.885-.673-1.168-2.238-3.157-5.916-3.287-1.541-.054-3.32.381-4.733,1.527Z"/><path class="i" d="M227.863,31.931c2.231-.255,4.529-.387,6.892-.387,13.377,0,23.761,4.119,32.653,10.526,10.457,7.548,21.28,20.887,22.187,42.363.26,6.156-.464,11.176-2.162,17.889-.59-.162-1.259-.268-2.019-.295-1.69-.06-3.665.47-5.131,1.878l-7.201-5.705c-2.325-5.85-7.575-12.314-13.051-17.026-3.195-2.749-5.405-3.963-8.308-5.225,0,0-4.558-.818-8.92-1.151-.066.029-.1.043-.1.043-6.083,2.563-14.662,7.947-19.477,10.621-1.149.638-2.501-.376-2.348-1.769.101-.918.102-1.887-.207-3.164-.321-1.322-1.336-1.883-2.127-1.468-6.744,3.537-16.356,12.683-21.801,18.751l-7.256,6.093c-1.466-1.409-3.441-1.938-5.131-1.878-.845.03-1.578.158-2.213.354-1.722-6.299-2.453-12.537-2.224-17.949.915-21.661,12.356-35.045,22.458-42.558,7.095-5.276,15.633-8.817,25.485-9.945Z"/><path class="g" d="M191.184,102.209c-3.05-2.748-7.444-3.322-11.149-1.562-2.672,1.269-4.237,3.912-4.938,6.693-1.664,6.6.03,14.19,3.823,19.783,2.782,4.102,6.763,7.033,11.909,6.34,1.286-.173,1.986-1.823,1.676-2.952-.381-1.388-1.662-1.85-2.952-1.676-3.493.47-6.2-3.349-7.609-6-1.39-2.615-2.393-5.57-2.599-8.533-.185-2.658.008-6.363,1.481-8.28-.169.219.325-.349.382-.407.31-.32.236-.242.498-.41.549-.353,1.092-.557,1.737-.68,1.537-.295,3.166.014,4.347,1.079,2.29,2.063,5.695-1.321,3.394-3.394h0Z"/><path class="g" d="M281.981,105.604c2.099-1.891,5.506-1.369,7.029.502-.343-.421.111.191.167.283.129.213.273.452.369.664.318.7.5,1.488.652,2.237.333,1.639.344,3.35.228,5.013-.203,2.909-1.174,5.801-2.518,8.378-1.405,2.695-4.138,6.633-7.69,6.155-1.283-.173-2.576.308-2.952,1.676-.307,1.118.383,2.778,1.676,2.952,8.353,1.124,13.212-7.015,15.375-13.921,1.083-3.457,1.207-7.276.634-10.835-.475-2.954-1.734-5.753-4.241-7.498-3.667-2.552-8.898-1.907-12.124.999-2.3,2.072,1.104,5.458,3.394,3.394h0Z"/><path class="g" d="M277.544,127.081c-.679,3.305-1.938,6.467-3.086,9.361.001-.003.203-.438-.007.009-.091.194-.178.39-.27.584-.214.45-.439.895-.67,1.336-.574,1.095-1.19,2.168-1.833,3.223-3.275,5.373-7.265,10.449-12.152,14.449-2.674,2.189-5.697,3.927-9.038,4.7-3.008.696-1.735,5.325,1.276,4.629,6.951-1.608,12.732-6.698,17.258-11.984,3.729-4.355,7.224-9.256,9.573-14.515.143-.321.281-.645.415-.971.063-.153.349-.823.075-.191.381-.876.754-1.753,1.089-2.648.818-2.183,1.528-4.422,1.998-6.707.261-1.268-.368-2.593-1.676-2.952-1.188-.326-2.69.401-2.952,1.676h0Z"/><path class="g" d="M187.468,128.196c1.512,6.673,4.219,13.145,8.006,18.849,4.111,6.192,9.518,11.989,16.064,15.633,3.352,1.866,7.012,3.132,10.807,3.694,1.281.19,2.579-.319,2.952-1.676.311-1.131-.386-2.761-1.676-2.952-13.404-1.984-23.41-13.56-28.525-25.462-1.295-3.012-2.275-6.166-2.999-9.361-.682-3.011-5.311-1.737-4.629,1.276h0Z"/><path class="g" d="M266.25,38.37c-16.176-10.506-37.286-12.136-54.967-4.433-14.458,6.3-25.981,19.205-30.891,34.143-3.637,11.066-3.66,22.886-.782,34.12.766,2.99,5.397,1.723,4.629-1.276-2.404-9.385-2.618-19.08-.134-28.475,1.917-7.25,5.407-14.062,10.256-19.791,4.59-5.422,9.84-9.75,16.072-13.01,7.96-4.163,16.947-5.904,25.889-5.685,9.872.242,19.231,3.177,27.504,8.551,2.598,1.688,5.007-2.466,2.423-4.145h0Z"/><path class="g" d="M289.934,102.2c1.133-4.627,1.98-9.337,2.097-14.11.115-4.681-.353-9.415-1.279-14.003-1.544-7.649-4.679-15.028-9.28-21.343-2.268-3.113-4.823-5.989-7.674-8.578-2.282-2.073-5.687,1.312-3.394,3.394,10.943,9.94,16.666,23.9,16.839,38.62.059,5.016-.748,9.884-1.938,14.743-.734,3,3.893,4.28,4.629,1.276h0Z"/><path class="g" d="M250.513,78.022c4.559,1.996,8.272,4.96,11.71,8.535,3.42,3.556,6.677,7.671,8.546,12.282.487,1.2,1.598,2.048,2.952,1.676,1.138-.313,2.166-1.744,1.676-2.952-2.15-5.305-5.589-9.981-9.511-14.119-3.747-3.953-7.94-7.373-12.951-9.567-1.186-.52-2.576-.348-3.284.861-.595,1.018-.333,2.761.861,3.284h0Z"/><path class="g" d="M198.44,99.511c5.408-6.007,11.391-11.9,18.11-16.435.71-.479,1.432-.94,2.172-1.37.149-.087.404-.186.521-.296.196-.185.177-.052.158-.123.001.004-1.057-.152-1.01-.19-.095.077.044.135.015.303-.057.332.129.864.131,1.226.002.47-.087.939-.068,1.407.054,1.345.746,2.642,1.883,3.379,2.021,1.31,3.927.227,5.745-.818,1.691-.972,3.37-1.963,5.056-2.943,4.152-2.413,8.336-4.852,12.761-6.737,1.193-.508,1.457-2.265.861-3.284-.722-1.234-2.086-1.371-3.284-.861-3.949,1.683-7.7,3.817-11.414,5.957-1.762,1.016-3.515,2.048-5.273,3.07-.766.445-1.532.888-2.304,1.322-.067.037-.484.245-.486.272.011-.26.992.052,1.03.058.114.018.089.33.234.245.103-.061.055-.78.057-.885.038-2.225-.515-4.821-2.673-5.895-2.057-1.024-4.01.382-5.705,1.47-3.596,2.309-6.913,5.08-10.086,7.933-3.439,3.093-6.731,6.361-9.826,9.799-2.062,2.29,1.322,5.696,3.394,3.394h0Z"/><path class="g" d="M268.534,178.931c-.154.204-.306.409-.46.613-.405.534.307-.379-.125.161-.226.283-.454.563-.687.84-.616.731-1.26,1.438-1.926,2.124-1.412,1.455-2.922,2.821-4.516,4.074-3.684,2.897-7.971,5.29-12.435,6.839-11.459,3.977-23.9,2.483-34.41-3.455-4.847-2.739-9.538-6.403-12.376-11.28-1.553-2.669-5.703-.255-4.145,2.423,2.856,4.908,7.327,8.785,12.08,11.794,5.572,3.528,11.951,6.013,18.473,7.028,12.066,1.878,24.436-1.279,34.274-8.479,3.994-2.923,7.423-6.314,10.397-10.26.781-1.036.165-2.683-.861-3.284-1.229-.719-2.501-.177-3.284.861h0Z"/><path class="g" d="M270.968,181.355c5.529-1.553,11.133-2.874,16.563-4.755,5.897-2.043,11.773-4.257,17.455-6.845,3.32-1.513,6.294-3.482,9.284-5.556,3.879-2.69,7.692-5.477,11.488-8.282,10.02-7.402,19.917-14.973,29.796-22.561,9.573-7.353,19.116-14.746,28.681-22.11,1.865-1.436,3.732-2.87,5.602-4.301.806-.617,1.613-1.233,2.421-1.847.334-.254.667-.507,1.001-.76.169-.128.402-.258.545-.413.036-.039.268-.171.265-.2l-1.258.071.328.342c.587.942,1.691,1.777,2.451,2.587.871.928,1.737,1.861,2.598,2.798,1.673,1.821,3.329,3.658,4.969,5.51,3.255,3.676,6.447,7.408,9.581,11.187,1.483,1.788,2.953,3.588,4.411,5.396v-3.394c-3.037,3.775-6.446,7.258-9.858,10.691-4.871,4.902-9.881,9.666-14.932,14.382-12.228,11.418-24.727,22.548-37.296,33.588-11.707,10.282-23.496,20.471-35.342,30.593-3.667,3.133-6.993,6.644-10.203,10.24-1.65,1.848-3.41,3.707-4.778,5.779-1.333,2.02-2.222,4.37-2.797,6.713-1.39,5.668-1.228,11.63-1.252,17.428-.068,16.858.043,33.718.063,50.576.002,2.032.004,4.064.004,6.096,0,3.089,4.8,3.094,4.8,0,0-17.181-.097-34.362-.079-51.543.005-5.021-.111-10.076.213-15.09.275-4.248.964-8.908,3.628-12.383,3.144-4.101,6.872-7.897,10.562-11.505,2.489-2.433,5.226-4.62,7.868-6.884,2.747-2.354,5.49-4.713,8.23-7.075,6.113-5.271,12.209-10.561,18.284-15.875,12.679-11.092,25.286-22.273,37.659-33.706,9.188-8.489,18.564-17.004,26.792-26.451.623-.715,1.235-1.441,1.829-2.18.882-1.096.891-2.289,0-3.394-6.194-7.679-12.6-15.188-19.285-22.445-1.66-1.802-3.291-3.673-5.053-5.375-1.587-1.533-3.403-1.698-5.163-.365-1.636,1.239-3.267,2.486-4.896,3.734-9.17,7.028-18.297,14.112-27.451,21.16-10.237,7.882-20.487,15.748-30.838,23.48-4.226,3.157-8.468,6.294-12.764,9.356-2.891,2.061-5.79,4.171-8.847,5.984-4.839,2.869-10.282,4.684-15.561,6.632-5.423,2.001-10.884,3.568-16.457,5.091-1.514.414-3.027.828-4.538,1.252-2.969.834-1.708,5.466,1.276,4.629h0Z"/><path class="g" d="M200.165,182.296c5.093-.872,10.336-2.601,14.289-6.05,1.559-1.36,2.77-3.047,3.482-4.99.923-2.52,1.401-5.234,1.985-7.846.283-1.264-.384-2.597-1.676-2.952-1.205-.331-2.668.406-2.952,1.676-.557,2.493-1.048,5.036-1.853,7.464-.062.187-.132.371-.197.557-.179.513.232-.408-.027.04-.221.381-.436.752-.676,1.122-.27.417.265-.28-.1.134-.133.151-.261.306-.398.454-.309.334-.638.649-.981.948-.057.05-.528.442-.351.301.153-.122-.409.299-.486.353-.389.272-.79.528-1.199.77-.467.277-.946.534-1.432.775-.467.232-.974.463-1.24.571-2.395.975-4.918,1.609-7.463,2.045-1.279.219-1.995,1.792-1.676,2.952.372,1.353,1.67,1.896,2.952,1.676h0Z"/><path class="g" d="M250.283,163.299c.596,2.64,1.012,5.392,1.91,7.952.683,1.949,1.931,3.642,3.484,4.994,3.957,3.447,9.197,5.178,14.293,6.05,1.276.218,2.585-.339,2.952-1.676.317-1.154-.392-2.732-1.676-2.952-2.544-.435-5.071-1.067-7.464-2.045-.28-.114-.675-.293-1.125-.514-.526-.258-1.044-.534-1.548-.832-.409-.242-.81-.498-1.2-.77-.187-.131-.374-.263-.554-.403.36.28-.218-.193-.285-.251-.343-.299-.673-.614-.982-.948-.137-.148-.265-.303-.399-.454-.417-.47.235.383-.102-.134-.224-.343-.428-.688-.636-1.041-.332-.562.081.337-.067-.125-.06-.188-.13-.373-.19-.561-.776-2.467-1.214-5.047-1.783-7.567-.286-1.265-1.744-2.008-2.952-1.676-1.3.357-1.963,1.684-1.676,2.952h0Z"/><path class="g" d="M191.136,174.342c-5.236-1.424-10.321-3.179-15.39-5.119-4.566-1.748-9.201-3.395-13.365-6.022-7.327-4.622-14.245-9.948-21.177-15.131-9.857-7.369-19.624-14.858-29.376-22.365-8.929-6.872-17.833-13.776-26.768-20.639-1.641-1.26-3.283-2.519-4.929-3.773-.703-.536-1.39-1.126-2.127-1.614-.827-.549-1.834-.752-2.81-.508-1.244.311-2.07,1.433-2.907,2.321-6.498,6.9-12.814,13.975-18.867,21.269-1.499,1.806-2.98,3.627-4.446,5.46-.879,1.1-.892,2.285,0,3.394,3.012,3.744,6.39,7.199,9.772,10.605,4.789,4.822,9.713,9.51,14.677,14.15,12.165,11.371,24.602,22.452,37.111,33.444,11.618,10.209,23.317,20.325,35.072,30.375,3.497,2.989,6.721,6.218,9.823,9.617,1.624,1.78,3.305,3.569,4.768,5.486,1.39,1.821,2.208,3.985,2.749,6.191,1.31,5.341,1.061,11.046,1.082,16.514.063,16.738-.045,33.477-.065,50.215-.002,2.032-.004,4.064-.004,6.096,0,3.089,4.8,3.094,4.8,0,0-17.323.1-34.646.079-51.97-.006-5.055.12-10.151-.25-15.197-.348-4.751-1.189-9.783-3.917-13.805-1.44-2.123-3.251-4.041-4.962-5.947-1.772-1.975-3.591-3.909-5.463-5.791-5.175-5.202-11.052-9.769-16.609-14.558-6.174-5.321-12.332-10.662-18.467-16.027-12.734-11.135-25.396-22.359-37.825-33.834-9.309-8.594-18.815-17.212-27.147-26.779-.623-.715-1.235-1.441-1.829-2.18v3.394c5.861-7.331,11.997-14.439,18.332-21.364,1.592-1.74,3.197-3.469,4.813-5.186.147-.157,1.21-1.2,1.177-1.247-.023-.033-1.234-.207-1.175-.044.029.081.201.139.266.201.306.294.705.534,1.043.791,1.582,1.202,3.16,2.409,4.736,3.618,8.628,6.619,17.222,13.283,25.837,19.919,9.733,7.497,19.479,14.979,29.306,22.354,7.207,5.409,14.408,10.894,21.944,15.842,3.698,2.428,7.736,4.128,11.829,5.782,4.985,2.014,10.043,3.966,15.19,5.532,1.388.422,2.797.777,4.196,1.157,2.985.811,4.258-3.818,1.276-4.629h0Z"/><path class="h" d="M122.401,38.692c-.075-.498-.793-.493-.864.005-.47,3.27-.953,5.414-3.129,9.315-2.699,4.836-6.683,5.836-12.072,6.842-.491.092-.466.803.03.863,4.074.492,6.241,1.456,9.691,4.591,3.208,2.915,4.902,5.885,5.398,10.084.058.486.73.537.852.063,1.063-4.129,3.111-7.245,6.305-10.147,3.249-2.952,5.359-3.978,8.995-4.499.499-.072.497-.791-.002-.864-5.302-.782-9.524-2.11-12.119-6.76-2.049-3.673-2.627-6.451-3.085-9.492Z"/><path class="h" d="M330.604,2.707c-.07-.467-.743-.462-.81.005-.441,3.066-.893,5.076-2.933,8.732-2.53,4.534-6.266,5.471-11.318,6.415-.46.086-.437.753.028.809,3.819.461,5.851,1.365,9.086,4.304,3.007,2.732,4.595,5.518,5.061,9.454.054.456.684.504.798.059.997-3.871,2.917-6.792,5.911-9.513,3.046-2.767,5.025-3.73,8.433-4.218.468-.067.466-.741-.002-.81-4.97-.733-8.929-1.978-11.361-6.338-1.921-3.443-2.463-6.047-2.892-8.899Z"/><path class="h" d="M364.07,50.017c-.047-.311-.495-.308-.54.003-.294,2.044-.595,3.384-1.956,5.822-1.687,3.023-4.177,3.647-7.545,4.276-.307.057-.291.502.019.539,2.546.308,3.9.91,6.057,2.869,2.005,1.822,3.064,3.678,3.374,6.302.036.304.456.336.532.039.664-2.581,1.944-4.528,3.941-6.342,2.03-1.845,3.35-2.486,5.622-2.812.312-.045.311-.494-.001-.54-3.314-.489-5.952-1.319-7.574-4.225-1.281-2.296-1.642-4.032-1.928-5.933Z"/><path class="g" d="M124.715,38.054c-.452-1.1-1.161-1.97-2.429-2.09-1.31-.124-2.563.607-2.98,1.887-.519,1.593-.573,3.335-1.113,4.949-1.046,3.125-2.747,6.299-5.752,7.86-1.311.681-2.819,1.058-4.278,1.384-1.939.434-4.583.637-4.583,3.253,0,2.699,2.725,2.707,4.651,3.159,1.587.372,2.974,1.044,4.289,2.007,2.795,2.045,5.259,4.745,6.165,8.151.23.865.27,1.817.553,2.654.458,1.356,1.961,2.21,3.369,1.823,2.183-.6,2.245-3.282,3.06-5.024,1.525-3.259,4.198-6.168,7.218-8.112,1.382-.89,2.838-1.39,4.451-1.685,1.088-.199,2.066-.452,2.673-1.49.624-1.066.409-2.496-.439-3.37-.838-.864-2.025-.87-3.135-1.079-.961-.181-1.917-.398-2.852-.685-1.546-.475-3.037-1.181-4.218-2.307-2.991-2.85-4.051-7.349-4.652-11.285-.196-1.282-1.808-1.991-2.952-1.676-1.371.377-1.873,1.666-1.676,2.952.708,4.635,2.211,9.6,5.54,13.06,1.483,1.542,3.317,2.611,5.289,3.396.985.392,2.004.687,3.038.923,1.022.233,2.258.243,3.221.634l-1.059-.617.125.156-.617-1.059.042.192v-1.276l-.041.192.617-1.059-.124.156,1.059-.617c-.799.322-1.772.335-2.611.569-.967.269-1.913.649-2.812,1.096-1.902.945-3.592,2.366-5.134,3.808-1.53,1.43-2.914,3.052-4.031,4.826-.582.924-1.064,1.897-1.49,2.901-.213.502-.418,1.007-.597,1.523-.136.391-.197.992-.396,1.332l.861-.861-.206.1,1.211-.328-.226-.017,1.211.328-.191-.13,1.103,1.434c-.337-.813-.373-2.051-.651-3.003-.303-1.039-.719-2.06-1.211-3.025-1.005-1.972-2.487-3.721-4.105-5.217-1.575-1.457-3.294-2.877-5.246-3.797-.908-.428-1.852-.793-2.825-1.043-.966-.248-2.251-.287-3.036-.583l1.059.617-.129-.152.617,1.059-.048-.19v1.276l-.09.222-.861.861c-.171.077.44-.004.534-.022.293-.057.586-.115.878-.176.506-.105,1.01-.217,1.512-.341.99-.245,1.964-.54,2.91-.92,2.009-.806,3.875-1.938,5.326-3.57,1.699-1.911,2.859-4.24,3.821-6.59.407-.996.743-2.014.989-3.062.24-1.021.233-2.246.62-3.21l-.617,1.059.156-.126-1.059.617.192-.043h-1.276l.192.04-1.059-.617.156.124-.617-1.059.085.207c.492,1.198,1.594,2.049,2.952,1.676,1.134-.312,2.172-1.746,1.676-2.952Z"/><path class="g" d="M332.676,1.496c-1.09-2.326-4.551-1.79-5.197.578-.416,1.526-.499,3.097-1.023,4.613-.976,2.828-2.525,5.679-5.248,7.1-1.291.674-2.751,1.022-4.17,1.332-1.901.416-4.306.724-4.211,3.264.098,2.607,2.706,2.567,4.6,3.032,1.42.349,2.663.969,3.843,1.833,2.658,1.948,4.947,4.509,5.76,7.759.187.749.227,1.554.465,2.279.417,1.273,1.704,2.049,3.024,1.857,2.305-.335,2.39-2.793,3.142-4.526,1.359-3.131,3.913-5.931,6.759-7.789,1.247-.814,2.532-1.291,3.99-1.579,1.08-.213,2.114-.355,2.745-1.388.574-.94.573-2.085-.001-3.025-.701-1.146-1.93-1.23-3.119-1.445-.918-.166-1.831-.366-2.726-.63-1.462-.433-2.889-1.072-4.014-2.126-2.826-2.648-3.814-6.884-4.377-10.566-.196-1.282-1.807-1.991-2.952-1.676-1.37.377-1.873,1.666-1.676,2.952.664,4.346,2.075,8.943,5.148,12.221,1.356,1.446,3.06,2.477,4.883,3.217.881.358,1.78.647,2.703.873.516.126,1.036.234,1.558.331.307.057,1.148.068,1.289.133l-.861-.861.113.191-.328-1.211v.22c.11-.404.219-.808.328-1.211l-.112.191.861-.861c-.049.022-.867.068-1.08.114-.434.095-.866.206-1.289.341-.806.258-1.6.589-2.352.976-1.798.925-3.404,2.29-4.862,3.676-1.422,1.351-2.707,2.885-3.736,4.557-.486.79-.894,1.615-1.26,2.467-.232.54-.453,1.082-.644,1.638-.108.316-.175.873-.328,1.135l.861-.861-.193.094,1.211-.328-.212-.016,1.211.328-.179-.122,1.103,1.434c-.302-.73-.349-1.921-.606-2.805-.286-.983-.68-1.95-1.144-2.862-.948-1.863-2.346-3.518-3.873-4.932-1.487-1.377-3.115-2.721-4.958-3.592-1.917-.906-3.884-1.286-5.973-1.552l1.211.328-.225-.097.861.861-.117-.187.328,1.211-.008-.219-.328,1.211.104-.194-.861.861c.172-.088.931-.117,1.261-.185.509-.106,1.018-.217,1.522-.343.89-.222,1.767-.489,2.62-.827,1.927-.765,3.716-1.837,5.108-3.399,1.602-1.796,2.698-3.982,3.606-6.193.358-.872.662-1.761.89-2.676.115-.463.212-.93.299-1.399.055-.302.078-1.213.128-1.322l-.861.861.191-.113-1.211.328h.22c-.404-.111-.808-.22-1.211-.329l.191.111-.861-.861.105.224c.55,1.174,2.237,1.473,3.284.861,1.203-.703,1.413-2.106.861-3.284Z"/><path class="g" d="M366.142,48.806c-.865-1.845-3.601-1.821-4.616-.146-.593.977-.544,2.394-.889,3.486-.313.994-.8,1.997-1.433,2.98-.429.666-.905,1.098-1.666,1.515-.006.003-.706.346-.295.168-.225.098-.462.177-.695.253-.493.162-.997.291-1.503.407-1.654.378-3.586.7-3.632,2.853-.039,1.854,1.484,2.53,2.864,2.775,1.251.222,1.753.373,2.726,1.003,1.756,1.136,3.365,2.92,3.883,4.879.374,1.416.42,2.944,2.205,3.409,1.107.289,2.271-.195,2.881-1.147.428-.667.523-1.485.826-2.211.776-1.863,2.399-3.665,4.068-4.806.928-.634,1.352-.81,2.501-1.05.753-.157,1.477-.256,2.053-.832.831-.831,1.016-2.157.45-3.182-.803-1.455-2.469-1.369-3.882-1.724-.259-.065-.516-.136-.77-.216-.095-.03-.893-.334-.628-.215-.229-.102-.452-.219-.669-.344-.086-.05-.761-.518-.539-.338-1.908-1.543-2.613-4.442-2.997-6.943-.197-1.282-1.807-1.991-2.952-1.676-1.37.376-1.874,1.666-1.676,2.952.468,3.047,1.5,6.26,3.673,8.538.992,1.04,2.223,1.765,3.543,2.301.568.231,1.145.421,1.74.571.358.09.719.166,1.082.235.089.017,1.169.226.718.017l-.861-.861.075.128-.328-1.211v.147c.11-.404.219-.808.328-1.211l-.075.127.861-.861c.453-.209-.461-.019-.552.001-.297.065-.591.141-.881.236-.593.193-1.177.439-1.731.726-1.225.634-2.331,1.569-3.329,2.512-1.023.967-1.951,2.074-2.687,3.276-.31.506-.571,1.035-.807,1.578-.163.375-.322.752-.461,1.137-.07.193-.135.388-.195.585-.114.332-.127.398-.04.196l1.434-1.103-.171.044h1.276l-.163-.069,1.434,1.103-.088-.176.328,1.211c-.418-3.182-1.691-5.815-4.077-7.999-1.044-.956-2.185-1.887-3.48-2.48-1.39-.637-2.765-.899-4.275-1.092l1.211.328-.15-.065.861.861-.078-.125.328,1.211-.005-.146-.328,1.211.07-.129-.861.861c-.437.224.594-.031.693-.052.352-.074.704-.151,1.052-.24.571-.145,1.132-.32,1.68-.536,1.402-.553,2.709-1.316,3.728-2.448,1.122-1.248,1.889-2.736,2.531-4.274.276-.66.519-1.325.692-2.02.081-.325.147-.652.207-.981.016-.091.218-1.12-.006-.632l-.861.861.127-.076-1.211.328h.147c-.404-.11-.808-.219-1.211-.329l.128.074-.861-.861.07.149c.55,1.174,2.237,1.473,3.284.861,1.203-.703,1.413-2.106.861-3.284Z"/><g id="e"><path class="g" d="M234.107,121.285c.388,1.481.761,2.986.984,4.502l-.086-.638c.026.208.038.413.017.621l.086-.638c-.015.097-.036.187-.068.279l.242-.573c-.029.065-.059.121-.099.18l.375-.486c-.046.056-.09.099-.147.145l.486-.375c-.114.073-.234.132-.356.189l.573-.242c-.196.082-.391.142-.601.175l.638-.086c-.19.022-.375.021-.564-.001l.638.086c-.213-.03-.421-.081-.634-.11-.319-.1-.638-.114-.957-.043-.319.014-.617.109-.892.285-.498.291-.973.862-1.103,1.434-.14.614-.11,1.304.242,1.849.312.484.835,1.022,1.434,1.103.492.066.97.191,1.471.213.772.034,1.489-.203,2.178-.52.853-.392,1.521-1.164,1.747-2.083.192-.779.11-1.453-.022-2.233-.245-1.45-.58-2.888-.953-4.31-.152-.579-.588-1.133-1.103-1.434s-1.273-.429-1.849-.242c-1.25.404-2.018,1.651-1.676,2.952h0Z"/><path class="g" d="M210.298,108.512c-.752,2.443-.262,8.063,4.366,8.541,6.117-.037,6.443-6.831,4.383-10.026-1.686-2.616-6.644-3.704-8.75,1.485Z"/><path class="g" d="M259.473,108.512c.752,2.443.262,8.063-4.366,8.541-6.117-.037-6.443-6.831-4.384-10.026,1.686-2.616,6.643-3.703,8.75,1.485Z"/><path class="g" d="M231.906,144.073c-.996-1.084-1.879-2.232-2.588-3.526-.303-.553-.563-1.109-.754-1.71-.114-.358-.221-.727-.284-1.098-.115-.674.19-.871-.756.034-.899.86-.858.662-.247.662.197,0,.393,0,.59,0,.458,0,.917,0,1.375,0,1.113,0,2.225-.002,3.338-.002,2.435-.002,4.87-.004,7.304-.005,1.069,0,2.139-.001,3.208-.002.193,0,.387,0,.58,0,.66,0,.763.226-.165-.682-.824-.806-.641-.993-.809-.269-.098.423-.207.844-.326,1.261-.81,2.834-2.131,5.411-4.255,7.336-.961.871-.885,2.509,0,3.394.956.956,2.431.873,3.394,0,2.703-2.45,4.429-5.835,5.445-9.3.595-2.027,1.276-4.61-.901-5.982-1.257-.792-2.933-.559-4.362-.558-2.994.002-5.989.004-8.983.006-1.362,0-2.724.002-4.086.003-1.544.001-3.139-.14-4.298,1.111-1.742,1.88-.639,4.989.256,7.021.935,2.12,2.369,4.002,3.93,5.7,2.095,2.279,5.482-1.122,3.394-3.394h0Z"/></g></g></g></svg>