<?xml version="1.0" encoding="UTF-8"?><svg id="b" xmlns="http://www.w3.org/2000/svg" width="240.324" height="361.088" viewBox="0 0 240.324 361.088"><defs><style>.g{fill:#bdbdbd;}.h{fill:#3f88c9;}.i{fill:#d9d9d9;}.j{fill:#211715;}.k{fill:#fff;}.l{fill:#645d5c;}</style></defs><g id="c"><g id="d"><path class="k" d="M167.531,88.218c1.644-1.484,4.082-2.201,6.36-1.861,2.279.341,4.354,1.715,5.397,3.588.737,1.314.975,2.81,1.111,4.269.499,5.753-.635,11.615-3.243,16.857-1.27,2.554-2.925,4.999-5.227,6.86-2.135,1.703-4.282,2.517-7.826.722-.525,3.164-1.639,6.19-2.07,7.477-1.677,4.482-10.458,19.15-21.873,26.136.015,3.605.209,7.357,1.409,10.331,2.58,6.39,16.52,14.43,17.48,14.85,0,0-5.409,34.723-45.705,34.723s-41.775-34.723-41.775-34.723c.96-.42,12.71-7.34,15.3-13.73,1.215-2.998,1.399-6.769,1.406-10.366-5.206-2.532-10.006-6.538-14.313-11.613-6.049-7.128-9.161-15.151-10.858-21.892-3.286,1.313-5.738-.382-7.659-1.915-2.302-1.861-3.957-4.305-5.227-6.86-2.608-5.242-3.741-11.104-3.243-16.857.136-1.459.374-2.955,1.111-4.269,1.043-1.873,3.118-3.247,5.397-3.588,2.279-.341,4.716.377,6.36,1.861,0,0-1.538-44.716,54.462-44.716s53.222,44.716,53.222,44.716Z"/><path class="j" d="M137.771,153.266c.074,4.05.302,8.588,2.553,12.102,1.593,2.487,3.808,4.557,6.077,6.416,2.332,1.91,4.791,3.667,7.327,5.294,1.323.849,2.676,1.787,4.111,2.44,1.179.537,2.583.337,3.284-.861.603-1.031.324-2.744-.861-3.284-1.294-.589-2.515-1.427-3.711-2.185-2.162-1.371-4.339-2.858-6.292-4.423-1.146-.918-2.26-1.879-3.306-2.91-.829-.817-1.734-1.815-2.219-2.514-.347-.5-.66-1.022-.922-1.572.262.549-.189-.52-.203-.564-.176-.52-.319-1.051-.442-1.586-.477-2.082-.556-4.226-.595-6.354-.056-3.085-4.856-3.095-4.8,0h0Z"/><path class="j" d="M72.782,179.519c1.391-.635,2.696-1.571,3.958-2.421,2.364-1.591,4.662-3.319,6.77-5.239,2.025-1.844,4.051-3.98,5.235-6.48,1.767-3.729,1.916-8.028,1.935-12.083.015-3.089-4.785-3.093-4.8,0-.009,1.915-.031,3.853-.29,5.754-.205,1.508-.689,3.362-1.217,4.36-1.125,2.126-2.869,3.835-4.721,5.471-1.81,1.598-3.731,3.013-5.752,4.35-1.134.75-2.3,1.575-3.542,2.142-1.179.539-1.468,2.245-.861,3.284.708,1.211,2.1,1.402,3.284.861h0Z"/><path class="g" d="M2.598,296.488c-1.039,20.255,1.802,35.18,11.817,41.352,7.139,4.399,16.318,4.599,22.712,1.404-.175,6.026-.445,11.842-.452,19.444l201.244-.297c-4.889-67.556-12.54-127.691-18.722-148.296-1.778-5.926-4.444-9.481-7.407-11.852-2.97-2.376-7.889-3.944-11.314-5.598-11.131-5.377-25.664-11.363-37.072-16.123,0,0-.8-.334-2.175-.908-3.621-3.725-7.788-7.149-11.217-9.223-4.982,21.36-13.834,44.417-20.852,65.197-4.709,13.944-9.417,27.888-14.126,41.831-6.279-15.57-10.432-26.048-15.761-41.831-7.017-20.78-15.869-43.837-20.852-65.197l-16.915,11.798c-10.34,5.544-23.248,9.156-33.902,14.234-2.933,1.398-6.563,1.837-9.303,4.213-3.333,2.889-5.822,7.776-6.815,12.741-2.963,14.815-7.111,43.259-8.889,87.111"/><path class="l" d="M59.753,87.892c1.722,1.773,2.682-1.859,3.333-3.278,1.037-2.259,2.556-5.556,3.667-7.778.612-1.223,1.494-3.016,2.035-4.265.573-1.323,1.181-2.627,1.823-3.91,1.299-2.597,2.735-5.11,4.294-7.528.748-1.16,1.559-2.334,2.747-3.114,3.37-2.212,7.995-.427,12.106-.736,4.566-.344,8.349-3.291,12.561-4.97,5.855-2.333,14.834-2.948,20.508-.255,2.87.148,5.546.022,8.148,0,2.241-.019,5.389-.13,8.722.389,8.37,1.921,14.179,6.539,18.389,13.537,2.5,4.156,5.369,10.054,6.63,14.671.5,1.829.944,3.685,1.24,5.569.099.63.171,1.276.229,1.91.04.43.47.583,1.484-.104l-.139.189c1.634-1.475,4.052-2.193,6.319-1.867,3.973-13.051,2.899-29.599-.963-39.465-2.657-6.787-6.726-14.621-14.97-19.146l-7.568-6.696c-3.397-6.9-10.497-12.808-19.83-16.141-9.781-3.493-38.294-4.086-47.879,4.202l-9.841,6.73c-10.977,5.01-18.721,17.001-22.019,29.358-3.399,12.733-3.428,31.19,1.356,41.513,2.611-.949,5.735-.273,7.711,1.511l-.093-.327Z"/><path class="j" d="M152.422,19.833c-5.013-10.006-16.012-16.761-26.84-18.606-10.057-1.714-20.759-1.656-30.771.324-4.921.973-9.987,2.559-13.868,5.858-.988.84-.864,2.53,0,3.394.979.979,2.404.842,3.394,0,.037-.031.584-.477.185-.167.175-.136.357-.264.539-.39.378-.261.767-.505,1.164-.736.693-.402,1.912-.993,2.313-1.158,2.009-.831,4.12-1.424,6.239-1.897,4.745-1.06,9.565-1.466,14.447-1.558,8.952-.168,17.701.326,25.762,4.561,5.552,2.917,10.451,7.13,13.291,12.798,1.384,2.762,5.526.334,4.145-2.423h0Z"/><path class="j" d="M161.983,115.846c-.075,2.208-.587,4.355-1.219,6.465-.238.794-.498,1.581-.766,2.366-.092.272-.183.544-.278.815-.063.181-.361.837-.05.145-.944,2.106-2.091,4.115-3.317,6.069-3.682,5.869-8.167,11.371-13.548,15.765-2.975,2.429-6.364,4.464-10.072,5.523-2.965.847-1.705,5.48,1.276,4.629,7.661-2.188,14.042-7.702,19.168-13.613,4.058-4.679,7.92-9.941,10.487-15.611,1.755-3.878,2.975-8.299,3.119-12.552.105-3.09-4.695-3.086-4.8,0h0Z"/><path class="j" d="M59.8,115.913c3.012,16.135,12.103,32.024,27.266,39.509,1.162.573,2.597.313,3.284-.861.62-1.059.306-2.708-.861-3.284-7.321-3.614-13.469-9.732-17.722-16.652-3.761-6.119-6.025-12.955-7.338-19.988-.238-1.275-1.778-1.999-2.952-1.676-1.338.368-1.915,1.674-1.676,2.952h0Z"/><path class="j" d="M169.228,89.915c2.152-1.838,5.812-1.629,7.603.636,1.081,1.367,1.182,3.325,1.254,4.992.083,1.923.01,3.876-.302,5.777-.627,3.83-1.928,7.572-3.998,10.865-1.537,2.446-4.083,5.753-7.328,4.86-2.983-.821-4.255,3.809-1.276,4.629,8.347,2.297,13.82-7.566,16.002-14.107,1.304-3.91,1.898-8.127,1.691-12.245-.202-4.015-1.27-7.835-4.927-10.017-3.881-2.317-8.741-1.664-12.114,1.216-.986.842-.866,2.528,0,3.394.977.977,2.405.844,3.394,0h0Z"/><path class="j" d="M61.544,86.521c-3.103-2.65-7.339-3.394-11.103-1.724-3.837,1.702-5.448,5.237-5.842,9.218-.803,8.1,1.63,17.156,6.923,23.417,2.833,3.352,6.921,6.044,11.452,4.99,3.008-.699,1.734-5.329-1.276-4.629-3.153.733-6.22-2.766-7.77-5.088-2.19-3.281-3.568-7.075-4.258-10.946-.339-1.901-.446-3.843-.392-5.772.047-1.678.087-3.697,1.069-5.138,1.706-2.504,5.533-2.874,7.804-.934.985.841,2.427.967,3.394,0,.862-.862.99-2.549,0-3.394h0Z"/><path class="j" d="M71.588,13.763c-9.655,4.481-16.452,13.586-20.498,23.189-4.166,9.886-5.508,20.956-5.044,31.622.249,5.71,1.002,11.558,3.007,16.938.453,1.214,1.624,2.041,2.952,1.676,1.166-.321,2.131-1.732,1.676-2.952-3.418-9.168-3.458-19.659-2.325-29.26,1.141-9.676,4.38-19.279,10.395-27.041,3.281-4.233,7.386-7.765,12.258-10.026,1.176-.546,1.471-2.24.861-3.284-.705-1.206-2.104-1.409-3.284-.861h0Z"/><path class="j" d="M156.707,29.813c6.633,3.706,10.789,10.064,13.572,16.969,2.972,7.375,3.87,15.501,3.648,23.403-.139,4.957-.796,9.87-2.132,14.65-.833,2.98,3.797,4.252,4.629,1.276,2.54-9.09,2.898-18.799,1.63-28.123-1.071-7.872-3.67-15.692-8.177-22.293-2.806-4.111-6.389-7.591-10.748-10.027-2.7-1.508-5.123,2.636-2.423,4.145h0Z"/><path class="j" d="M122.023,50.818c-5.36-2.479-11.357-3.157-17.127-1.822-2.863.663-5.488,1.961-8.085,3.298-2.261,1.164-4.661,2.445-7.251,2.601-2.716.164-5.403-.524-8.118-.383-2.946.153-5.487,1.274-7.332,3.615-3.719,4.718-5.968,10.399-8.58,15.746-1.202,2.461-2.139,5.041-3.378,7.482-.566,1.116-1.238,2.159-1.732,3.31-.208.486-.415.97-.669,1.434.019-.035-.256.396-.253.403-.334-.649,1.954-.306,1.952-.308-2.266-2.093-5.669,1.293-3.394,3.394,2.073,1.914,4.6,1.18,5.899-1.178.394-.714.643-1.496,1.009-2.224.666-1.326,1.448-2.578,2.061-3.935,2.243-4.964,4.322-10.023,6.93-14.815.727-1.335,1.491-2.65,2.293-3.941.685-1.103,1.341-2.34,2.347-3.191,1.882-1.592,4.849-.983,7.083-.773,2.836.266,5.583.23,8.303-.72,2.674-.934,5.115-2.37,7.659-3.591,5.585-2.68,12.302-2.876,17.958-.26,1.176.544,2.586.332,3.284-.861.606-1.036.321-2.737-.861-3.284h0Z"/><path class="j" d="M113.156,40.377c1.154.18,2.298.413,3.423.728.904.253,2.132.673,2.783.955.152.066.87.408,1.221.591.41.214.814.441,1.209.681.417.254.825.524,1.222.808.076.054.672.52.308.225.17.137.339.276.505.418.677.582,1.311,1.213,1.893,1.89.16.186.317.376.469.569-.258-.327.046.07.128.185.242.34.472.689.689,1.045.234.385.453.78.656,1.182.11.217.209.438.315.657.224.463-.115-.334.084.194.324.855.601,1.715.812,2.605.3,1.261,1.734,2.011,2.952,1.676,1.289-.354,1.977-1.687,1.676-2.952-.954-4.015-3.143-7.748-6.281-10.445-3.615-3.107-8.107-4.91-12.789-5.641-1.279-.2-2.581.326-2.952,1.676-.313,1.139.388,2.751,1.676,2.952h0Z"/><path class="j" d="M139.723,53.93c5.918,1.404,10.594,4.995,14.098,9.905,3.858,5.405,7.07,11.713,8.766,18.146.303,1.15.58,2.307.807,3.474.211,1.086.217,2.25.477,3.318.596,2.442,3.246,2.426,5.01,1.33,2.618-1.627.211-5.782-2.423-4.145-.771.379-.423.501,1.045.366l.861.861c.191.632.231.63.122-.007-.046-.373-.095-.745-.146-1.117-.09-.63-.196-1.258-.317-1.883-.242-1.245-.54-2.479-.868-3.703-.553-2.065-1.289-4.063-2.117-6.033-1.658-3.947-3.614-7.796-5.953-11.385-4.332-6.649-10.215-11.889-18.086-13.756-3.003-.713-4.285,3.915-1.276,4.629h0Z"/><path class="k" d="M116.854,175.633c-.099.077-.169.147-.201.207h-4.637c-.152-.283-1.161-.802-2.054-1.161-10.565-4.25-19.38-10.731-23.24-15.921-3.808,3.501-5.018,6.209-7.495,10.953,5.086,20.413,13.392,42.17,20.047,61.879,5.33,15.783,9.482,26.262,15.761,41.831,4.709-13.944,9.417-27.887,14.126-41.831,6.688-19.806,15.043-41.681,20.123-62.182-2.372-4.557-3.61-7.224-7.337-10.649-3.861,5.19-12.675,11.671-23.24,15.921-.704.283-1.481.667-1.852.955Z"/><path class="k" d="M132.642,193.503c7.111-8.444,11.556-15.667,16-25.333-1.985-3.828-3.319-6.308-6.695-9.412-3.861,5.19-12.675,11.671-23.24,15.921-.893.359-1.902.879-2.054,1.161-.253.471.239.885.471,1.255.363.581,2.148,2.074,5.185,5.407,3.446,3.782,7.481,7.593,10.333,11Z"/><path class="k" d="M96.027,193.503c-7.111-8.444-11.556-15.667-16-25.333,1.985-3.828,3.319-6.308,6.695-9.412,3.861,5.19,12.675,11.671,23.24,15.921.893.359,1.902.879,2.054,1.161.253.471-.239.885-.471,1.255-.363.581-2.148,2.074-5.185,5.407-3.446,3.782-7.481,7.593-10.333,11Z"/><path class="h" d="M117.284,178.835c-2.608.009-4.777.014-7.413.016-.864.856-2.041,2.038-3.51,3.652-.787.864-1.605,1.729-2.432,2.591.582,3.019.99,4.927,1.632,7.674.104.483.224.949.345,1.432.259,1.035.518,2.105.518,3.175,0,.616-3.02,22.656-5.133,40.092,4.423,12.7,8.279,22.397,13.746,35.954,4.319-12.789,8.638-25.579,12.957-38.369-2.658-17.775-5.471-36.349-5.454-37.332.035-1.915.638-3.796,1.242-5.625.744-2.285,1.201-4.284,1.688-6.248-1.074-1.11-2.142-2.228-3.159-3.344-1.482-1.626-2.665-2.814-3.531-3.672-.517.002-1.013.003-1.494.005Z"/><path class="j" d="M107.156,199.628c4.969-.002,9.938-.11,14.908-.112,1.255,0,2.458-1.104,2.4-2.4s-1.055-2.401-2.4-2.4c-4.969.002-9.938.11-14.908.112-1.255,0-2.458,1.104-2.4,2.4s1.055,2.401,2.4,2.4h0Z"/><path class="j" d="M101.848,186.935c.429,2.165.895,4.321,1.398,6.47.316,1.353.854,2.779.759,4.184-.101,1.483-.371,2.972-.563,4.444-.886,6.783-1.786,13.564-2.659,20.349-.601,4.668-1.191,9.337-1.762,14.009-.157,1.289,1.216,2.4,2.4,2.4,1.428,0,2.242-1.107,2.4-2.4.991-8.115,2.041-16.223,3.104-24.329.624-4.764,1.471-9.554,1.866-14.344.122-1.475-.279-2.975-.631-4.396-.629-2.538-1.174-5.098-1.683-7.663-.252-1.272-1.768-2.002-2.952-1.676-1.327.365-1.929,1.677-1.676,2.952h0Z"/><path class="j" d="M118.494,176.436c-2.947.005-5.894.013-8.841.019-1.255.002-2.458,1.102-2.4,2.4s1.055,2.402,2.4,2.4c2.947-.005,5.894-.013,8.841-.019,1.255-.002,2.458-1.102,2.4-2.4s-1.055-2.402-2.4-2.4h0Z"/><path class="j" d="M130.304,234.401c-1.159-7.749-2.326-15.497-3.476-23.248-.427-2.881-.853-5.762-1.267-8.645-.147-1.027-.292-2.055-.433-3.083-.025-.185.056.441-.007-.052-.019-.149-.039-.297-.058-.445-.033-.261-.072-.523-.094-.785-.092-1.116.162-2.205.459-3.278.583-2.108,1.303-4.167,1.838-6.29.755-2.996-3.873-4.275-4.629-1.276-.852,3.385-2.635,6.99-2.497,10.536.058,1.481.37,2.979.577,4.443.901,6.405,1.873,12.801,2.83,19.198.709,4.734,1.419,9.468,2.127,14.202.192,1.283,1.81,1.99,2.952,1.676,1.374-.377,1.869-1.665,1.676-2.952h0Z"/><path class="j" d="M111.291,277.02c-1.72,5.277-2.897,10.933-2.782,16.503.073,3.536.459,7.083.683,10.612.682,10.781,1.126,21.572,1.877,32.349.516,7.406,1.097,14.808,1.747,22.204.114,1.291,1.022,2.4,2.4,2.4,1.21,0,2.514-1.101,2.4-2.4-1.86-21.155-2.784-42.353-4.229-63.534-.39-5.72.767-11.439,2.534-16.858.96-2.944-3.674-4.205-4.629-1.276h0Z"/><path class="j" d="M147.698,165.753c-3.405,14.528-8.185,28.695-13.077,42.778-4.984,14.347-9.9,28.714-14.759,43.104-2.857,8.462-5.715,16.924-8.572,25.385-.99,2.933,3.644,4.192,4.629,1.276,5.133-15.2,10.264-30.4,15.398-45.599,4.73-14.005,9.848-27.879,14.34-41.964,2.494-7.821,4.797-15.708,6.67-23.703.704-3.005-3.923-4.287-4.629-1.276h0Z"/><path class="j" d="M148.801,168.464c3.704,2.264,7.029,5.131,10.089,8.196,1.617,1.62,3.175,3.315,4.583,5.122.587.753,1.141,1.536,1.66,2.337.262.404.515.813.755,1.23.102.177.202.355.298.535.071.131.14.263.207.396.112.23.095.172-.053-.173l.328-1.211c.17-.169.133-.17-.111-.003-.215.119-.431.237-.646.356-.287.158-.574.317-.861.475-.789.435-1.579.871-2.368,1.306-1.507.831-3.014,1.662-4.52,2.493-1.306.721-1.619,2.743-.486,3.769,2.22,2.01,4.43,4.033,6.573,6.125.452.441.9.885,1.345,1.332.434.436,1.383,1.131,1.642,1.687.092.197.118-.057-.031.291-.321.75-.785,1.478-1.169,2.198-2.69,5.037-5.435,10.046-8.217,15.033-5.741,10.293-11.642,20.497-17.619,30.655-3.301,5.609-6.626,11.202-9.965,16.788-1.589,2.658,2.56,5.074,4.145,2.423,12.585-21.054,25.033-42.213,36.547-63.876.832-1.565,1.542-3.1.944-4.889-.528-1.579-1.908-2.728-3.05-3.871-2.507-2.511-5.122-4.909-7.751-7.29l-.486,3.769c2.009-1.108,4.018-2.216,6.027-3.324,1.75-.965,4.407-1.885,4.528-4.237.081-1.571-1.04-3.14-1.863-4.41-.908-1.402-1.928-2.734-2.986-4.025-4.215-5.147-9.382-9.877-15.069-13.352-2.643-1.615-5.057,2.534-2.423,4.145h0Z"/><path class="j" d="M76.108,167.029c3.405,14.528,8.185,28.695,13.077,42.778,4.723,13.597,9.24,27.283,14.296,40.76,2.798,7.458,5.759,14.852,8.736,22.24.484,1.201,1.6,2.048,2.952,1.676,1.14-.313,2.164-1.743,1.676-2.952-5.282-13.11-10.403-26.268-14.944-39.656-4.75-14.002-9.846-27.89-14.352-41.974-2.549-7.967-4.903-16.001-6.812-24.147-.705-3.006-5.334-1.734-4.629,1.276h0Z"/><path class="j" d="M77.211,164.319c-5.687,3.476-10.854,8.206-15.069,13.352-1.023,1.249-2.01,2.536-2.896,3.887-.853,1.3-2.032,2.937-1.952,4.549.117,2.36,2.775,3.269,4.528,4.237,2.009,1.108,4.018,2.216,6.027,3.324l-.486-3.769c-2.454,2.222-4.896,4.459-7.249,6.789-1.074,1.064-2.382,2.132-3.145,3.454-.95,1.647-.701,3.381.113,5.009,2.655,5.313,5.675,10.477,8.607,15.64,6.281,11.061,12.821,21.975,19.453,32.828,3.673,6.01,7.377,12,11.093,17.983,1.626,2.619,5.781.212,4.145-2.423-12.59-20.273-25.138-40.611-36.539-61.584-.746-1.372-1.486-2.747-2.219-4.125-.132-.248-.426-.617-.472-.898-.05-.308-.101.186.047-.136.278-.602,1.179-1.221,1.642-1.687,2.557-2.572,5.231-5.024,7.918-7.457,1.134-1.026.821-3.049-.486-3.769-1.507-.831-3.014-1.662-4.52-2.493-.718-.396-1.435-.792-2.153-1.187-.359-.198-.718-.396-1.076-.594-.179-.098-.955-.723-.757-.353l.328,1.211c.016.382-.148.322.084-.09.099-.177.193-.357.293-.533.235-.416.483-.824.741-1.226.512-.799,1.058-1.581,1.637-2.333,1.433-1.862,3.036-3.603,4.696-5.265,3.061-3.065,6.386-5.933,10.089-8.196,2.632-1.609.223-5.762-2.423-4.145h0Z"/><path class="j" d="M134.339,195.2c4.884-5.818,9.27-12,12.858-18.703.876-1.637,1.71-3.296,2.512-4.971.415-.867.992-1.789,1.248-2.718.327-1.191-.451-2.264-.983-3.268-1.682-3.172-3.691-6.023-6.329-8.479-1.234-1.149-2.827-.763-3.769.486-4.025,5.337-10.918,9.605-17.06,12.667-1.995.995-4.088,1.762-6.09,2.731-2.092,1.012-3.315,2.981-1.835,5.135,1.56,2.271,3.865,4.101,5.723,6.121,3.404,3.701,7.088,7.155,10.333,11,.837.991,2.532.862,3.394,0,.982-.982.839-2.401,0-3.394-3.052-3.615-6.506-6.865-9.72-10.332-1.382-1.491-2.765-2.972-4.209-4.403-.389-.386-.773-.778-1.162-1.163-.156-.154-.503-.66-.008.043-.059-.084-.38-.633-.343-.472v1.276l.07-.276-.617,1.059c-.244.286.251-.17.433-.267.183-.098.373-.191.562-.277.808-.365,1.642-.676,2.455-1.031,1.428-.622,2.836-1.289,4.221-2.001,2.545-1.307,5.017-2.762,7.382-4.372,3.965-2.698,7.716-5.776,10.616-9.621l-3.769.486c2.782,2.591,4.582,5.578,6.32,8.926v-2.423c-4.143,8.98-9.262,17.268-15.625,24.848-.833.992-.973,2.421,0,3.394.856.856,2.557.997,3.394,0Z"/><path class="j" d="M97.724,191.806c-6.363-7.58-11.482-15.868-15.625-24.848v2.423c1.738-3.348,3.538-6.335,6.32-8.926l-3.769-.486c2.9,3.845,6.651,6.923,10.616,9.621,2.366,1.61,4.837,3.064,7.382,4.372,1.318.678,2.657,1.315,4.015,1.911.812.357,1.638.681,2.451,1.035.263.115.518.227.773.363.163.087.722.606.433.267l-.617-1.059.07.276v-1.276c.037-.161-.284.388-.343.472.495-.703.147-.197-.008-.043-.39.385-.773.777-1.162,1.163-1.444,1.431-2.827,2.913-4.209,4.403-3.214,3.467-6.668,6.717-9.72,10.332-.836.99-.971,2.423,0,3.394.858.858,2.554.995,3.394,0,2.855-3.382,6.065-6.443,9.096-9.665,1.405-1.494,2.778-3.015,4.227-4.468.701-.703,1.459-1.372,2.096-2.136,1.372-1.643,1.985-3.83-.03-5.298-1.651-1.202-3.817-1.783-5.661-2.647-3.803-1.783-7.468-3.885-10.889-6.324-2.79-1.99-5.871-4.6-7.768-7.115-.942-1.249-2.536-1.635-3.769-.486-2.637,2.456-4.645,5.307-6.329,8.479-.486.916-1.172,1.87-1.026,2.949.131.969.778,1.962,1.199,2.845.83,1.74,1.694,3.463,2.603,5.163,3.588,6.704,7.974,12.885,12.858,18.703.834.993,2.534.86,3.394,0,.984-.984.836-2.398,0-3.394Z"/><path class="j" d="M192.935,358.688c-.016-9.939-.585-19.866-.601-29.806-.017-10.872-.045-21.656,1.886-32.394,3.709-20.63,6.807-41.373,9.483-62.161,1.369-10.629,2.615-21.274,3.672-31.939.128-1.292-1.195-2.4-2.4-2.4-1.404,0-2.272,1.105-2.4,2.4-1.953,19.714-4.505,39.372-7.436,58.963-1.554,10.385-3.225,20.753-5.053,31.093-.955,5.399-1.832,10.774-2.203,16.251-.364,5.367-.373,10.749-.359,16.126.031,11.294.594,22.575.612,33.867.005,3.088,4.805,3.094,4.8,0h0Z"/><path class="j" d="M34.727,339.241c-.191,6.482-.442,12.961-.452,19.447-.005,3.089,4.795,3.093,4.8,0,.01-6.486.261-12.964.452-19.447.091-3.09-4.709-3.087-4.8,0h0Z"/><path class="j" d="M162.766,178.837c14.333,5.979,28.532,12.209,42.694,18.573,2.916,1.31,5.492,2.859,7.508,5.382,1.962,2.454,3.174,5.414,4.051,8.402,1.049,3.574,1.867,7.216,2.624,10.861,2.26,10.876,3.922,21.878,5.45,32.877,2.039,14.683,3.731,29.415,5.253,44.16,1.799,17.434,3.336,34.896,4.659,52.372.175,2.309.345,4.618.513,6.927.094,1.293,1.036,2.4,2.4,2.4,1.226,0,2.494-1.1,2.4-2.4-1.305-18.008-2.833-36-4.63-53.965-1.559-15.576-3.315-31.133-5.403-46.647-1.559-11.583-3.257-23.165-5.532-34.632-1.917-9.661-3.69-21.1-12.17-27.295-2.983-2.179-6.59-3.328-9.928-4.83-3.464-1.559-6.874-3.238-10.344-4.788-7.627-3.407-15.334-6.634-23.044-9.848-1.742-.726-3.484-1.452-5.226-2.178-1.197-.499-2.64.539-2.952,1.676-.38,1.382.475,2.451,1.676,2.952h0Z"/><path class="j" d="M131.297,286.945c.267.24.482.531.742.773-.244-.321-.294-.383-.15-.185.046.067.091.134.135.203.074.117.143.236.208.359.101.192.208.609-.024-.107.045.14.105.276.149.417.084.273.142.552.183.834l-.086-.638c.063.505.06,1.008-.004,1.513l.086-.638c-.04.283-.096.563-.173.838-.033.117-.069.233-.108.348-.038.112-.232.587-.035.122.194-.46.002-.017-.053.092-.053.105-.109.208-.169.309-.056.094-.117.185-.176.277-.248.383.42-.482.141-.179-.099.108-.501.65-.644.626.016.003.556-.389.188-.156-.06.038-.117.078-.177.116-.135.084-.274.162-.416.234-.063.032-.128.061-.192.092-.338.167.497-.184.228-.097-.136.044-.269.097-.406.139-.327.1-.661.169-1,.219l.638-.086c-.605.079-1.21.082-1.816.006l.638.086c-.487-.069-.931-.209-1.397-.358.723.232.394.172.208.081-.117-.058-.233-.12-.345-.187-.083-.05-.162-.105-.244-.157-.33-.212.513.441.129.097-.22-.198-.425-.403-.624-.622-.282-.311.343.508-.006-.014-.067-.1-.13-.202-.189-.307-.058-.102-.107-.208-.161-.311-.188-.362.22.622.034.046-.079-.245-.132-.496-.171-.751l.086.638c-.055-.433-.052-.863,0-1.296l-.086.638c.044-.307.108-.608.198-.905.043-.141.093-.278.142-.417.162-.456-.243.497-.024.063.143-.283.29-.562.46-.829.08-.126.164-.249.251-.37.04-.056.081-.135.133-.18-.073.063-.394.477-.132.181.09-.102.178-.204.275-.299.084-.082.464-.391.103-.113-.364.28.041-.019.139-.081.135-.085.274-.163.416-.234.025-.012.173-.104.194-.093.003.001-.592.227-.273.116.139-.048.275-.1.416-.142.322-.097.65-.163.983-.208l-.638.086c.527-.062,1.051-.063,1.577.004l-.638-.086c.223.033.444.074.662.132.09.024.18.051.269.08.096.031.501.195.08.015-.403-.172-.073-.029.019.017.1.05.198.104.294.161.096.058.188.122.282.183.337.221-.46-.377-.132-.095.49.421,1.033.703,1.697.703.589,0,1.292-.261,1.697-.703.824-.898,1.017-2.521,0-3.394-1.392-1.195-3.066-1.827-4.905-1.866-1.537-.032-3.22.384-4.511,1.236-2.739,1.807-4.294,5.441-3.607,8.656.382,1.788,1.598,3.309,3.058,4.353,1.219.871,2.797,1.247,4.275,1.302,2.878.106,5.969-1.288,7.31-3.932.691-1.363,1.114-2.955.967-4.491-.195-2.038-1.051-3.874-2.586-5.257-.933-.84-2.486-.989-3.394,0-.842.917-.996,2.497,0,3.394Z"/><path class="j" d="M4.998,296.488c.858-21.039,2.332-42.082,5.03-62.971.794-6.145,1.776-12.721,2.924-19.042.635-3.496,1.193-7.067,2.761-10.292,1.073-2.207,2.476-4.428,4.424-5.972s4.496-2.041,6.763-2.906c2.904-1.108,5.686-2.546,8.572-3.71,3.056-1.233,6.142-2.392,9.222-3.564,6.113-2.326,12.244-4.691,18.026-7.77,2.728-1.452.306-5.597-2.423-4.145-10.475,5.577-22.01,8.746-32.766,13.702-2.319,1.069-4.768,1.744-7.109,2.755-2.489,1.076-4.485,2.749-6.148,4.876-3.074,3.933-4.587,8.545-5.51,13.385-2.878,15.08-4.655,30.383-6.022,45.666-1.19,13.304-1.998,26.641-2.543,39.986-.126,3.089,4.674,3.083,4.8,0h0Z"/><path class="j" d="M27.39,94.858c-1.096.507-2.202.994-3.312,1.47-.313.134-.627.268-.941.401-.36.153.301-.125-.063.026-.142.059-.284.119-.427.179-.643.269-1.287.536-1.932.802-2.401.991-4.809,1.967-7.201,2.979-1.161.491-1.501,2.291-.861,3.284.778,1.207,2.041,1.387,3.284.861-.524.222.239-.1.389-.163.247-.103.494-.206.741-.308.556-.23,1.113-.459,1.669-.688,1.228-.504,2.458-1.007,3.685-1.514,2.479-1.025,4.957-2.058,7.391-3.185,1.143-.529,1.517-2.266.861-3.284-.759-1.178-2.061-1.427-3.284-.861h0Z"/><path class="j" d="M27.664,81.803c-4.671-.369-9.346-.719-14.001-1.261-1.252-.146-2.453,1.208-2.4,2.4.064,1.425,1.059,2.244,2.4,2.4,4.655.542,9.33.892,14.001,1.261,1.255.099,2.455-1.175,2.4-2.4-.062-1.385-1.056-2.294-2.4-2.4h0Z"/><path class="j" d="M32.903,70.678c-3.741-3.072-7.257-6.41-10.733-9.775-.903-.874-2.507-.966-3.394,0-.868.945-.964,2.461,0,3.394,3.476,3.365,6.993,6.703,10.733,9.775.969.796,2.459,1.019,3.394,0,.809-.881,1.036-2.543,0-3.394h0Z"/><path class="j" d="M103.413,130.205c3.015,2.955,7.797,3.811,11.844,3.81s8.83-.847,11.85-3.8c2.212-2.163-1.183-5.556-3.394-3.394-.099.097-.6.522-.302.286.28-.221-.369.245-.517.336-.263.162-.534.31-.81.449-.185.093-.374.182-.564.265.325-.142-.008,0-.161.054-1.994.715-3.991,1.004-6.102,1.005-2.059,0-4.049-.263-5.993-.97-.028-.01-.722-.295-.27-.096-.159-.07-.316-.144-.472-.221-.307-.151-.608-.314-.899-.494-.223-.138-.433-.293-.65-.44.614.418-.017-.036-.166-.183-2.208-2.164-5.605,1.228-3.394,3.394h0Z"/><path class="j" d="M142.489,93.319c.852,2.773.293,9.152-4.961,9.692-6.943-.045-7.309-7.758-4.97-11.383,1.915-2.968,7.543-4.199,9.931,1.691Z"/><g id="e"><path class="i" d="M81.71,56.525c-22.979,1.14-37.979,19.726-36.946,40.552,1.196,24.109,16.985,38.602,40.816,37.42,24.386-1.21,38.108-17.168,36.912-41.276-1.04-20.968-17.883-37.832-40.781-36.696Z"/><path class="k" d="M82.323,68.86c-15.708.779-25.963,13.484-25.256,27.721.818,16.481,11.611,26.388,27.902,25.58,16.67-.827,26.05-11.736,25.233-28.216-.711-14.334-12.225-25.861-27.878-25.085Z"/><path class="l" d="M78.135,134.866c.286,5.772,1.996,35.474,2.407,43.762.247,4.975,4.239,7.973,8.091,7.782,5.119-.254,7.574-2.635,7.281-8.545-.429-8.65-1.957-34.999-2.362-43.171l-15.417.171Z"/><path class="j" d="M81.71,54.125c-9.261.498-18.107,3.709-25.22,9.717-6.523,5.51-11.134,13.247-13.062,21.551-3.749,16.143,1.675,35.265,15.697,44.848,6.866,4.692,15.28,6.682,23.519,6.722,8.512.042,17.314-1.726,24.658-6.176,6.743-4.085,11.744-10.258,14.646-17.556,3.17-7.971,3.769-17.199,2.308-25.609-1.471-8.466-5.692-16.478-11.916-22.412-6.478-6.176-14.817-9.855-23.675-10.87-2.31-.265-4.633-.322-6.955-.216-3.076.14-3.093,4.941,0,4.8,8.244-.375,16.359,1.649,23.183,6.364,6.185,4.274,10.873,10.662,13.259,17.776,2.505,7.468,2.673,15.861.862,23.489-1.609,6.779-4.953,12.782-10.262,17.318-5.365,4.583-12.577,7.143-19.698,7.945-7.599.855-15.744.241-22.647-2.962-6.349-2.947-11.334-7.691-14.622-13.842-3.633-6.799-5.108-15.027-4.577-22.733.517-7.506,3.428-14.938,8.308-20.686,5.193-6.116,12.247-10.215,20.082-11.882,2.019-.43,4.051-.675,6.111-.786,3.073-.165,3.092-4.966,0-4.8Z"/><path class="j" d="M75.735,134.866c.704,14.122,1.604,28.234,2.335,42.355.115,2.218.329,4.336,1.415,6.329,1.201,2.203,3.239,3.864,5.585,4.713,3.953,1.43,9.48.248,11.805-3.451,2.078-3.307,1.416-7.518,1.218-11.218-.216-4.039-.442-8.077-.667-12.115-.498-8.928-1.028-17.854-1.473-26.784-.153-3.074-4.954-3.093-4.8,0,.363,7.301.791,14.599,1.2,21.898.234,4.176.467,8.352.697,12.528.173,3.151.46,6.324.488,9.48.008.949-.036,1.739-.285,2.618-.194.682-.452,1.176-.886,1.595-.394.381-.901.643-1.465.817-.913.282-1.633.383-2.563.387-1.519.006-3.148-.729-4.188-2.065-1.047-1.344-1.185-2.931-1.269-4.562-.366-7.095-.773-14.188-1.17-21.281s-.821-14.162-1.174-21.245c-.153-3.074-4.954-3.093-4.8,0h0Z"/><path class="j" d="M82.323,66.46c-6.546.364-12.743,2.615-17.772,6.86-4.534,3.828-7.757,9.235-9.113,15.001-2.674,11.374,1.147,24.751,10.987,31.535,4.748,3.273,10.599,4.684,16.31,4.749,6.013.068,12.266-1.175,17.454-4.317,10.307-6.243,13.912-18.862,11.965-30.284-1.004-5.89-3.947-11.49-8.249-15.639-4.582-4.42-10.483-7.017-16.776-7.75-1.597-.186-3.201-.224-4.807-.154-3.077.134-3.094,4.935,0,4.8,5.48-.239,10.818,1.068,15.37,4.181,4.097,2.802,7.224,7.047,8.803,11.742,3.097,9.21,1.249,20.72-6.128,27.096-3.476,3.005-8.274,4.738-12.971,5.285-5.09.592-10.622.2-15.205-1.941-4.23-1.976-7.487-5.077-9.675-9.178-2.385-4.469-3.353-9.912-3.028-15.005.675-10.58,8.386-19.373,18.691-21.634,1.371-.301,2.743-.469,4.143-.547,3.072-.171,3.092-4.972,0-4.8Z"/></g><g id="f"><path class="k" d="M47.759,243.011c2.076-6.745,5.948-12.345,7.105-19.338,1.128-6.825,1.799-13.979,1.941-20.902.158-7.643.097-15.822,1.208-22.409.898-5.323,7.376-9.642,13.903-11.303,5.204-1.028,14.457-1.741,17.709-2.091,4.056-.437,7.642.575,8.899,3.871,1.562,4.092-.094,7.139-3.445,9.314,3.354.555,4.693,3.249,4.902,5.274.147,1.424.427,4.059-2.477,5.528,2.654,1.266,3.522,3.376,3.578,4.929.113,3.101-1.749,5.792-5.845,6.871,8.37,9.603-5.836,10.053-10.057,14.437-1.162,3.149.086,6.84-.257,10.201-.41,4.016-.669,3.699-3.445,6.573-4.619,4.781-5.832,5.709-6.877,12.569l-26.841-3.522Z"/><path class="j" d="M50.073,243.649c1.25-3.976,3.148-7.688,4.735-11.531,1.7-4.118,2.503-8.271,3.09-12.67,1.216-9.109,1.222-18.195,1.521-27.358.074-2.249.182-4.498.377-6.74.156-1.79.252-3.708.794-5.432.961-3.052,4.064-5.178,6.755-6.583,3.035-1.584,6.245-2.229,9.609-2.658,3.323-.423,6.659-.736,9.993-1.05,2.669-.251,6.38-1.115,8.528.85.976.893,1.399,2.595,1.213,3.894-.234,1.631-1.516,2.836-2.822,3.707-1.574,1.051-1.594,3.966.573,4.387.944.183,1.768.472,2.384,1.242.421.526.682,1.312.765,1.797.236,1.395.238,2.537-1.297,3.376-1.526.834-1.601,3.331,0,4.145.963.49,1.831,1.091,2.245,2.128.155.388.215,1.066.101,1.695-.357,1.971-2.066,3.035-4.04,3.59-1.837.516-2.212,2.665-1.059,4.011.608.71,1.15,1.458,1.573,2.294.027.053.189.434.053.089.067.171.124.346.174.522.046.165.085.33.115.498-.103-.587-.033-.008-.025.11.038.557.102-.354.024-.031-.033.137-.068.273-.103.41-.038.148-.193.358.055-.108-.066.124-.142.244-.206.368-.212.413.213-.134-.215.267-.133.125-.264.255-.396.38-.091.087-.55.418-.113.103-2.349,1.694-5.197,2.529-7.747,3.857-1.435.747-3.276,1.757-3.863,3.342-1.036,2.797-.413,5.82-.3,8.703.041,1.041-.022,2.273-.162,3.179-.062.397-.15.782-.254,1.169-.115.428-.01.064.035-.032-.093.195-.205.372-.319.554-.193.307.39-.418-.049.052-.101.109-.2.22-.301.328-.317.337-.649.659-.975.987-.845.851-1.679,1.715-2.509,2.582-1.396,1.46-2.819,2.994-3.751,4.803-1.131,2.195-1.618,4.597-1.994,7.017-.199,1.279.326,2.581,1.676,2.952,1.138.313,2.752-.388,2.952-1.676.4-2.571.81-4.912,2.108-6.892,1.161-1.771,3.384-3.856,5.135-5.616.763-.767,1.566-1.548,2.091-2.505.628-1.144.795-2.411.953-3.685.225-1.819.157-3.57.011-5.392-.143-1.783-.295-3.532.282-5.253l-.617,1.059c.172-.173.35-.335.535-.494-.314.27-.05.033.128-.087.399-.269.808-.518,1.23-.749.851-.466,1.737-.867,2.623-1.261,1.844-.82,3.767-1.569,5.424-2.742,1.82-1.288,3.257-3.014,3.398-5.327.168-2.756-1.58-5.187-3.281-7.172l-1.059,4.011c3.559-1,6.763-3.401,7.444-7.227.676-3.8-1.178-7.219-4.603-8.96v4.145c3.134-1.713,4.058-4.805,3.594-8.156-.488-3.524-3.076-6.35-6.592-7.032l.573,4.387c3.53-2.357,5.779-5.821,5.05-10.182-.686-4.104-3.762-6.815-7.808-7.396-3.24-.465-6.671.182-9.909.499-3.833.375-7.682.763-11.475,1.436-4.127.733-8.204,2.761-11.433,5.407-1.501,1.23-2.872,2.736-3.807,4.446-1.03,1.883-1.324,3.849-1.594,5.949-1.252,9.756-.568,19.649-1.383,29.44-.451,5.413-.904,11.072-2.687,16.235-1.684,4.873-4.25,9.387-5.799,14.315-.928,2.954,3.704,4.218,4.629,1.276h0Z"/><path class="j" d="M74.429,183.424c3.638-.237,7.282-.398,10.924-.559,3.232-.142,6.489-.37,9.725-.313,3.09.054,3.09-4.746,0-4.8-3.237-.056-6.494.171-9.725.313-3.642.161-7.286.322-10.924.559-1.294.084-2.4,1.043-2.4,2.4,0,1.234,1.1,2.485,2.4,2.4h0Z"/><path class="j" d="M73.167,193.735c8.111-.206,16.226-.178,24.336-.382,3.083-.078,3.095-4.878,0-4.8-8.111.204-16.226.175-24.336.382-3.083.078-3.095,4.879,0,4.8h0Z"/><path class="j" d="M76.599,205.554c6.283-.158,12.566-.32,18.849-.481,3.083-.079,3.095-4.879,0-4.8-6.283.16-12.566.323-18.849.481-3.083.078-3.095,4.878,0,4.8h0Z"/></g><path class="j" d="M78.217,98.941c-.854-3.56.346-11.55,6.987-11.822,8.717.597,8.575,10.34,5.355,14.724-2.637,3.589-9.801,4.703-12.341-2.902Z"/><path class="g" d="M45.752,228.692c-.276-.063-.528-.116-.754-.157-2.463,4.639-14.315,24.787-22.318,41.875l43.56,24.032c8.103-19.86,16.195-42.667,17.925-51.046-2.891-2.1-30.496-12.882-38.412-14.704Z"/><path class="j" d="M24.752,271.621c5.894-12.558,12.666-24.684,19.473-36.763.957-1.698,1.929-3.391,2.846-5.111l-2.71,1.103c5.213.969,10.335,3.111,15.289,4.933,3.29,1.21,6.565,2.46,9.825,3.749,1.542.609,3.081,1.228,4.615,1.858,1.488.612,2.128.878,3.532,1.486,1.767.766,3.749,1.469,5.332,2.593l-1.103-2.71c-.716,3.434-1.777,6.802-2.839,10.141-1.585,4.985-3.304,9.927-5.078,14.847-4.071,11.297-8.418,22.509-13.132,33.554-2.103,4.928-4.17,9.947-6.716,14.667-3.096,5.74-6.961,11.184-11.492,15.881-1.878,1.947-3.883,3.844-6.286,5.121-2.535,1.347-5.449,1.963-8.304,2.041-3.207.088-6.428-.47-9.398-1.698-2.458-1.017-4.381-2.3-6.1-4.073-3.173-3.272-4.972-7.789-6.064-12.374-1.455-6.11-1.718-12.461-1.632-18.719.026-1.888.094-3.774.189-5.659.154-3.088-4.646-3.079-4.8,0-.359,7.179-.308,14.4.807,21.515.846,5.402,2.421,10.961,5.569,15.504,3.372,4.867,8.368,8.113,14.12,9.511,6.466,1.572,14.006.964,19.617-2.859,5.46-3.721,9.777-9.232,13.499-14.61,3.449-4.985,6.068-10.321,8.528-15.841,5.124-11.497,9.769-23.215,14.148-35.013,3.478-9.371,7.044-18.847,9.5-28.55.177-.7.344-1.403.491-2.111.236-1.133-.183-2.057-1.103-2.71-1.341-.952-2.993-1.564-4.486-2.223-2.839-1.253-5.711-2.431-8.592-3.583-6.403-2.561-12.862-5.014-19.405-7.198-2.375-.792-4.789-1.64-7.256-2.099-1.022-.19-2.185.116-2.71,1.103-5.425,10.183-11.325,20.1-16.622,30.358-1.965,3.806-3.876,7.64-5.696,11.517-.55,1.173-.328,2.588.861,3.284,1.041.609,2.73.318,3.284-.861h0Z"/><path class="i" d="M80.653,81.01c.411-.134.826-.254,1.248-.352.241-.056.483-.105.726-.149.122-.022.243-.042.366-.06l-.271.035c.848-.18,1.823-.137,2.682-.085.216.013.431.037.646.053.504.038-.454-.08.188.025.427.069.85.158,1.269.265s.833.233,1.24.377c.2.071.418.133.606.231-.564-.291.165.085.272.136,1.13.542,2.645.348,3.284-.861.567-1.072.347-2.704-.861-3.284-3.941-1.891-8.487-2.323-12.671-.96-1.192.388-2.088,1.679-1.676,2.952.385,1.191,1.674,2.093,2.952,1.676h0Z"/></g></g></svg>