<?xml version="1.0" encoding="UTF-8"?><svg id="b" xmlns="http://www.w3.org/2000/svg" width="215.066" height="198.588" viewBox="0 0 215.066 198.588"><defs><style>.d{fill:#3d8dcc;}.e{fill:#fff;}.f{fill:#211715;}.g{fill:#febe69;}</style></defs><g id="c"><path class="e" d="M162.664,2.513c-.397,0-75.939,0-160.255,0,0,97.695,0,191.196,0,193.576,57.121,0,103.135,0,160.255,0,0-.793,0-193.532,0-193.576Z"/><path class="f" d="M137.914,47.334c-28.762,0-57.524,0-86.286,0h-24.435c-3.089,0-3.094,4.8,0,4.8,28.76,0,57.52,0,86.28,0,8.147,0,16.294,0,24.441,0,3.089,0,3.094-4.8,0-4.8h0Z"/><path class="f" d="M27.193,35.001c17.921,0,35.842,0,53.763,0,3.089,0,3.094-4.8,0-4.8-17.921,0-35.842,0-53.763,0-3.089,0-3.094,4.8,0,4.8h0Z"/><path class="e" d="M27.162,149.813c0-25.211,0-48.803,0-74.014h.522s53.87,0,110.03,0h.196c0,25.211,0,48.803,0,74.014"/><path class="f" d="M161.668.113c-11.889,0-23.778,0-35.667,0-24.263,0-48.526,0-72.788,0-14.772,0-29.544,0-44.316,0-3.091,0-8.613-1.074-8.888,3.4-.005.082.002.165,0,.246-.018.597,0,1.198,0,1.796,0,7.231,0,14.463,0,21.694,0,12.743,0,25.486,0,38.229v45.292c0,14.313,0,28.625,0,42.938,0,10.349,0,20.698,0,31.046v8.291c0,2.467.049,5.262,3.463,5.443,1.694.09,3.418,0,5.114,0h12.088c12.733,0,25.467,0,38.2,0,15.053,0,30.105,0,45.158,0,12.958,0,25.915,0,38.873,0,6.169,0,12.385.224,18.551,0,2.055-.075,3.508-1.413,3.607-3.497.023-.485,0-.977,0-1.463v-7.711c0-10.078,0-20.157,0-30.235,0-14.194,0-28.387,0-42.581,0-15.132,0-30.264,0-45.395,0-12.931,0-25.863,0-38.794,0-7.571,0-15.141,0-22.712,0-2.281.356-5.399-2.758-5.902-1.278-.206-2.583.331-2.952,1.676-.314,1.144.389,2.744,1.676,2.952-1.639-.265-.662-1.925-.766-1.087-.027.215,0,.452,0,.668v2.514c0,3.156,0,6.312,0,9.467,0,10.779,0,21.558,0,32.337,0,14.362,0,28.723,0,43.085,0,14.785,0,29.57,0,44.354,0,12.348,0,24.695,0,37.043v20.32c0,.455-.089,1.014,0,1.463.151.765,1.952-1.161,1.362-1.303-.139-.034-.314.007-.457,0-2.209-.113-4.454,0-6.665,0-10.289,0-20.579,0-30.868,0-14.533,0-29.066,0-43.599,0-14.219,0-28.437,0-42.656,0-9.631,0-19.261,0-28.892,0h-3.441c-.363,0-1.246-.172-1.578,0-.122.063,1.267,1.476,1.337,1.338.05-.099,0-.35,0-.459v-2.131c0-7.549,0-15.099,0-22.648,0-12.694,0-25.389,0-38.083,0-14.956,0-29.912,0-44.868,0-14.052,0-28.103,0-42.155,0-10.279,0-20.558,0-30.837V5.613c0-.593.059-1.221,0-1.811-.009-.089.023-.199,0-.285,0-.001,0-.002,0-.003l-.898,1.4c.333,0,.666,0,.999,0,.997,0,1.994,0,2.991,0,1.82,0,3.641,0,5.461,0,27.488,0,54.976,0,82.465,0,18.21,0,36.42,0,54.63,0,3.737,0,7.475,0,11.212,0,3.089,0,3.094-4.8,0-4.8Z"/><path class="d" d="M137.912,131.311v18.5h-55.38v-18.5h55.38Z"/><path class="e" d="M137.912,112.801v18.51h-55.38v-18.51h55.38Z"/><path class="d" d="M137.912,94.301v18.5h-55.38v-18.5h55.38Z"/><path class="e" d="M137.912,75.801v18.5h-55.38v-18.5h55.38Z"/><path class="d" d="M82.532,131.311v18.5H27.162v-18.5h55.37Z"/><path class="e" d="M82.532,112.801v18.51H27.162v-18.51h55.37Z"/><path class="d" d="M82.532,94.301v18.5H27.162v-18.5h55.37Z"/><path class="e" d="M82.532,75.801v18.5H27.162v-18.5h55.37Z"/><path class="f" d="M28.283,96.702c28.366,0,56.731,0,85.097,0h24.53c3.089,0,3.094-4.8,0-4.8-28.366,0-56.731,0-85.097,0-8.177,0-16.353,0-24.53,0-3.089,0-3.094,4.8,0,4.8h0Z"/><path class="f" d="M28.659,115.206c28.313,0,56.626,0,84.939,0,8.104,0,16.208,0,24.311,0,3.089,0,3.094-4.8,0-4.8-28.313,0-56.626,0-84.939,0h-24.311c-3.089,0-3.094,4.8,0,4.8h0Z"/><path class="f" d="M28.283,133.709c27.993,0,55.987,0,83.98,0h24.141c3.089,0,3.094-4.8,0-4.8-27.993,0-55.987,0-83.98,0-8.047,0-16.094,0-24.141,0-3.089,0-3.094,4.8,0,4.8h0Z"/><path class="f" d="M80.136,75.799c0,19.523,0,39.046,0,58.569v15.445c0,3.089,4.8,3.094,4.8,0,0-19.523,0-39.046,0-58.569v-15.445c0-3.089-4.8-3.094-4.8,0h0Z"/><path class="f" d="M27.259,147.413h-.097c.8.8,1.6,1.6,2.4,2.4,0-19.182,0-38.364,0-57.546,0-5.489,0-10.978,0-16.468l-2.4,2.4c3.705,0,7.41,0,11.115,0h26.469c10.615,0,21.231,0,31.846,0,9.216,0,18.431,0,27.647,0h9.098c1.439,0,2.941.125,4.376,0,.065-.006.132,0,.197,0l-2.4-2.4c0,19.182,0,38.364,0,57.546,0,5.489,0,10.978,0,16.468l2.4-2.4c-3.564,0-7.128,0-10.692,0-8.558,0-17.116,0-25.674,0h-31.468c-9.223,0-18.447,0-27.67,0-4.897,0-9.805-.101-14.701,0-.148.003-.297,0-.445,0-3.089,0-3.094,4.8,0,4.8,4.144,0,8.287,0,12.431,0h26.565c10.507,0,21.014,0,31.521,0h26.882c4.344,0,8.725.165,13.067,0,.061-.002.123,0,.184,0,1.297,0,2.4-1.1,2.4-2.4,0-19.182,0-38.364,0-57.546,0-5.489,0-10.978,0-16.468,0-1.297-1.1-2.4-2.4-2.4-3.679,0-7.359,0-11.038,0h-26.429c-10.615,0-21.229,0-31.844,0-9.227,0-18.455,0-27.682,0-4.504,0-9.043-.163-13.546,0-.069.003-.139,0-.208,0-1.297,0-2.4,1.1-2.4,2.4,0,19.182,0,38.364,0,57.546,0,5.489,0,10.978,0,16.468,0,1.297,1.1,2.4,2.4,2.4h.097c3.089,0,3.094-4.8,0-4.8Z"/><path class="f" d="M103.188,175.015c11.574,0,23.148,0,34.722,0,3.089,0,3.094-4.8,0-4.8-11.574,0-23.148,0-34.722,0-3.089,0-3.094,4.8,0,4.8h0Z"/><path class="e" d="M194.124,25.372c-.097.156-.179.325-.244.505l-2.369,6.509-.018.049c.822.299,13.484,4.908,14.36,5.227.008-.034.014-.051.014-.051l2.369-6.509c.517-1.421-.215-2.992-1.636-3.509l-9.211-3.353c-1.241-.452-2.597.05-3.265,1.132Z"/><path class="g" d="M205.898,37.674c2.46.9,3.74,3.62,2.84,6.08-7.26,19.93-33.55,92.16-36.38,99.95-7.8-2.83-15.59-5.67-23.38-8.51l36.38-99.93c.9-2.47,3.63-3.74,6.09-2.84l14.45,5.25Z"/><path class="e" d="M148.978,135.194c7.79,2.84,15.58,5.68,23.38,8.51-.12.32-.2.54-.23.63-.03.03-.13.17-.13.17l-14.68,19.04c-3.18-1.16-6.37-2.32-9.56-3.48l.99-24.03s.01-.18.01-.22l.22-.62Z"/><path class="f" d="M157.318,163.544l-6.4,8.29c-1.2,1.54-3.67.64-3.59-1.31l.43-10.46c3.19,1.16,6.38,2.32,9.56,3.48Z"/><path class="f" d="M206.539,35.365c-4.715-1.716-9.417-3.473-14.147-5.149-3.923-1.39-7.894.601-9.358,4.434-.199.52-.381,1.048-.572,1.571-3.062,8.413-6.124,16.827-9.187,25.24l-14.087,38.704-10.955,30.097c-.586,1.61-1.362,3.252-1.789,4.914-.321,1.25-.174,2.775-.226,4.045l-.347,8.435-.79,19.221c-.05,1.211-.163,2.438-.15,3.651.033,2.948,2.845,5.182,5.733,4.281,1.161-.362,1.887-1.204,2.595-2.121,6.668-8.642,13.334-17.285,20.001-25.928.265-.344.533-.686.796-1.032-.76.997.273-.465.414-.83.044-.114.083-.23.125-.344.393-1.057.771-2.119,1.157-3.179,1.681-4.618,3.362-9.236,5.042-13.854,5.279-14.503,10.558-29.006,15.836-43.51,4.595-12.623,9.189-25.246,13.784-37.87.524-1.439,1.098-2.845.992-4.418-.203-3.028-2.137-5.25-4.869-6.36-1.201-.488-2.637.53-2.952,1.676-.377,1.373.47,2.463,1.676,2.952,1.956.794,1.261,2.85.73,4.31-.467,1.283-.934,2.567-1.401,3.85-1.187,3.262-2.375,6.525-3.562,9.787-3.041,8.355-6.082,16.711-9.123,25.066-5.956,16.363-11.911,32.726-17.867,49.089-1.407,3.866-2.814,7.732-4.221,11.598l.617-1.059c-4.206,5.253-8.23,10.663-12.34,15.992l-7.399,9.591c-.578.75-1.134,1.526-1.739,2.254-.021.025-.109.108-.109.142.004-.454.489-.324.707-.326.336-.003.052.444.189-.038.248-.872.085-2.08.122-2.98l.226-5.499.57-13.877.435-10.583c.014-.353.045-.709.044-1.062-.002-.548.061.205-.064.194.032.003.251-.689.267-.733l4.653-12.784,8.477-23.29c3.238-8.896,6.476-17.792,9.714-26.688l8.499-23.35,4.697-12.905c.6-1.648,1.795-2.532,3.663-1.871,3.703,1.31,7.384,2.688,11.076,4.031l3.141,1.143c1.218.443,2.629-.498,2.952-1.676.367-1.336-.454-2.507-1.676-2.952Z"/><path class="f" d="M171.726,140.931c-6.945-2.528-13.89-5.056-20.835-7.583-1.218-.443-2.629.498-2.952,1.676-.367,1.336.454,2.507,1.676,2.952,6.945,2.528,13.89,5.056,20.835,7.583,1.218.443,2.629-.498,2.952-1.676.367-1.336-.454-2.507-1.676-2.952h0Z"/><path class="f" d="M208.182,38.249l2.161-5.937c.584-1.604.62-3.289-.283-4.807-.809-1.359-2.124-1.973-3.533-2.486l-7.118-2.591c-.896-.326-1.731-.677-2.699-.742-2.455-.166-4.36,1.491-5.186,3.668-.804,2.119-1.551,4.262-2.327,6.392-.443,1.218.498,2.629,1.676,2.952,1.336.367,2.507-.454,2.952-1.676.663-1.821,1.325-3.642,1.988-5.463.112-.308.209-.628.338-.93.036-.083.13-.222-.003.032l.122-.194c-.139.191-.115.185.073-.017-.191.15-.17.151.063.002-.202.079-.222.092-.059.041.223-.076-.353-.153.134-.019-.522-.143.225.066.268.08.041.013.082.03.123.045.293.102.584.213.876.319l6.592,2.399c.527.192,1.118.337,1.62.59-.472-.238.373.292-.091-.012.339.222.145.111.043.033l.109.192c-.093-.236-.097-.22-.011.048l-.018-.198c-.01.286.006.3.049.041-.036.299-.179.609-.283.892l-2.209,6.069c-.443,1.218.498,2.629,1.676,2.952,1.336.367,2.507-.454,2.952-1.676h0Z"/><path class="f" d="M201.215,91.72c2.018-5.544,4.036-11.088,6.054-16.632l7.355-20.206c.69-1.896.645-3.914-.64-5.582-1.438-1.866-4.178-2.424-6.305-3.198-1.218-.443-2.629.498-2.952,1.676-.367,1.336.454,2.507,1.676,2.952l2.198.8c.388.141.774.288,1.163.423.108.038.221.073.326.119-.452-.198.031-.029.109.146.224.503-.081,1.051-.268,1.564l-2.795,7.68c-2.806,7.709-5.612,15.418-8.418,23.127-.71,1.952-1.421,3.903-2.131,5.855-.443,1.218.498,2.629,1.676,2.952,1.336.367,2.507-.454,2.952-1.676h0Z"/><path class="f" d="M155.807,160.447c-1.752-.638-3.505-1.276-5.257-1.913-.557-.203-1.353-.048-1.849.242s-.973.862-1.103,1.434c-.14.614-.11,1.304.242,1.849.354.549.819.879,1.434,1.103,1.752.638,3.505,1.276,5.257,1.913.557.203,1.353.048,1.849-.242s.973-.862,1.103-1.434c.14-.614.11-1.304-.242-1.849-.354-.549-.819-.879-1.434-1.103h0Z"/></g></svg>