<?xml version="1.0" encoding="UTF-8"?><svg id="b" xmlns="http://www.w3.org/2000/svg" width="312.631" height="399.296" viewBox="0 0 312.631 399.296"><defs><style>.g{fill:#bdbdbd;}.h{fill:#fff;}.i{fill:#f4b467;}.j{fill:#211715;}.k{fill:#645d5c;}</style></defs><g id="c"><g id="d"><path class="k" d="M125.652,91.734c.557-1.624,1.203-3.063,1.94-4.344-4.217-.26-7.887-.556-10.844-.888.297,2.99.106,6.128-.26,8.892.072-.013.144-.024.216-.035,2.723-.407,5.654.572,7.425,2.518.396-2.3.904-4.336,1.524-6.143Z"/><path class="k" d="M248.663,85.916c-2.973.524-7.552.976-13.253,1.356,1.968,2.697,3.473,6.005,4.511,10.116,1.792-1.617,4.449-2.4,6.933-2.028.393.059.78.146,1.157.262,1.042-2.919,1.58-6.302,1.787-9.867-.387.07-.769.128-1.135.161Z"/><path class="h" d="M239.921,97.388c1.792-1.617,4.449-2.4,6.933-2.028s4.746,1.869,5.883,3.911c.803,1.432,1.063,3.062,1.211,4.653.544,6.271-.692,12.661-3.534,18.375-1.384,2.784-3.188,5.449-5.697,7.477-1.927,1.537-4.286,2.677-6.793,3.062,0,0-.423.065-1.165.186-.557,2.083-1.182,3.838-1.489,4.771-1.853,5.028-11.68,21.645-24.364,29.299.052,5.129.574,9.059,1.446,14.032.819,4.674.562,8.852,7.061,11.199,0,0-.803,37.634-37.573,37.634s-41.989-36.004-41.989-36.004c.8-.34,4-1.47,4.43-1.63,6.15-2.23,6.25-6.08,6.94-10.46.04-.24.08-.49.12-.74.22-1.28.42-2.61.6-3.99.43-3.341.71-6.852.81-10.103-4.922-2.896-9.495-6.93-13.667-11.923-5.926-7.092-9.27-14.983-11.234-21.93-1.379-.212-2.215-.341-2.215-.341-2.507-.385-4.866-1.525-6.793-3.062-2.509-2.028-4.313-4.693-5.697-7.477-2.842-5.714-4.078-12.104-3.534-18.375.148-1.591.408-3.222,1.211-4.653,1.137-2.042,3.399-3.54,5.883-3.911s5.141.411,6.933,2.028c0,0,5.461-45.799,56.424-45.799,58.667,0,59.86,45.799,59.86,45.799Z"/><path class="i" d="M180.581,2.4c-41.774-.204-65.673,27.697-69.107,61.379-3.394,3.183-10.925,7.479-10.82,12.768s7.066,8.938,11.856,9.368c10.192,1.796,39.157,2.749,68.076,2.859,28.919-.11,57.885-1.062,68.076-2.859,4.79-.43,11.751-4.079,11.856-9.368.105-5.289-7.425-9.585-10.82-12.768-3.434-33.684-27.335-61.586-69.118-61.379Z"/><path class="j" d="M233.01,62.806c-12.461-2.872-25.16-4.676-37.925-5.435-14.362-.854-28.947-.714-43.203,1.366-7.873,1.149-15.614,3.027-23.127,5.648-1.223.427-2.036,1.643-1.676,2.952.326,1.188,1.723,2.105,2.952,1.676,13.155-4.589,26.846-6.641,40.736-7.129,13.835-.486,27.771.051,41.49,1.952,6.543.907,13.04,2.114,19.476,3.598,3.006.693,4.29-3.934,1.276-4.629h0Z"/><path class="j" d="M180.581,0c-14.7-.041-29.568,3.399-41.884,11.661-11.028,7.398-19.284,18.041-24.308,30.282-2.863,6.974-4.537,14.349-5.314,21.836l.703-1.697c-4.281,3.955-11.018,7.375-11.505,13.902-.502,6.731,7.145,11.27,12.909,12.162.186.029,1.299.18.868.114.184.028.368.062.552.091.576.092,1.153.172,1.731.25,1.212.163,2.425.308,3.642.432,2.865.294,5.738.508,8.611.693,7.717.496,15.447.777,23.176.989,18.394.505,36.79.555,55.187.158,8.148-.176,16.296-.423,24.436-.846,5.827-.303,11.673-.646,17.459-1.426.546-.074,1.091-.149,1.635-.235.216-.034.431-.073.647-.106-.058.009-.38.056-.049.01.353-.049.707-.088,1.058-.144,1.537-.246,2.999-.748,4.424-1.364,2.87-1.242,5.721-3.253,7.233-6.065,3.612-6.721-2.414-12.193-7.257-16.02-1.065-.841-2.14-1.673-3.137-2.594l.703,1.697c-1.367-13.161-5.7-26.092-13.625-36.785-8.078-10.899-19.286-18.903-32.164-23.155C198.039,1.108,189.274-.025,180.581,0c-3.088.009-3.094,4.809,0,4.8,13.035-.037,26.093,2.76,37.296,9.612,9.806,5.997,17.502,14.774,22.571,25.055,2.537,5.146,4.373,10.679,5.584,16.335.325,1.517.604,3.044.839,4.577.09.588.166,1.126.235,1.684.114.921.047,2.116.521,2.927.726,1.241,2.405,2.205,3.513,3.08,1.222.966,2.444,1.938,3.585,3,1.094,1.018,2.14,2.101,2.854,3.426.52.966.693,1.836.421,2.864-.638,2.411-3.299,4.165-5.59,5.137-1.474.625-3.02.895-4.384,1.103-.438.067-.874.146-1.312.212-.205.03-.41.059-.616.088.514-.072-.447.057-.572.072-2.648.327-5.309.553-7.97.749-16.554,1.222-33.198,1.464-49.79,1.607-17.952.155-35.94-.135-53.873-.997-6.086-.292-12.195-.614-18.245-1.36-.261-.032-.521-.065-.782-.1.458.061-.153-.023-.305-.046-.472-.069-.941-.154-1.413-.226-1.32-.202-2.795-.458-4.234-1.044-2.289-.932-5.011-2.683-5.7-5.056-.313-1.077-.162-1.997.381-3.004.688-1.277,1.683-2.324,2.732-3.311,1.176-1.107,2.441-2.114,3.707-3.115,1.087-.859,2.494-1.716,3.325-2.837.876-1.182.726-3.432.945-4.866.228-1.487.498-2.968.81-4.44.617-2.905,1.401-5.775,2.358-8.586,3.677-10.806,10.112-20.605,18.9-27.979,9.417-7.901,21.373-12.523,33.538-13.972,3.541-.422,7.105-.601,10.67-.591,3.089.009,3.093-4.791,0-4.8Z"/><path class="j" d="M208.512,167.593c.111,5.763,1.048,11.419,1.98,17.094.315,1.917.826,3.867,1.955,5.48,1.562,2.232,3.816,3.532,6.327,4.473,1.214.455,2.631-.506,2.952-1.676.37-1.345-.458-2.496-1.676-2.952-1.642-.615-3.104-1.555-3.879-2.931-.347-.617-.502-1.09-.715-1.961-.203-.831-.335-1.678-.462-2.524-.757-5.008-1.584-9.921-1.682-15.001-.06-3.085-4.86-3.095-4.8,0h0Z"/><path class="j" d="M140.488,196.269c2.244-.927,4.647-1.524,6.803-2.655,2.57-1.349,4.402-3.53,5.307-6.278.852-2.59,1.083-5.511,1.47-8.197.579-4.013.948-8.052,1.082-12.104.102-3.09-4.698-3.086-4.8,0-.115,3.468-.378,6.94-.847,10.379-.356,2.606-.652,5.339-1.314,7.891-.267,1.031-.443,1.618-1.143,2.512-.498.637-1.587,1.375-2.506,1.818-1.704.821-3.581,1.283-5.328,2.006-1.197.495-2.05,1.592-1.676,2.952.311,1.132,1.747,2.174,2.952,1.676h0Z"/><path class="g" d="M182.292,223.131c2.799-3.919,10.666-15.172,12.415-17.646,3.072-4.345,10.702-17.154,15.521-25.353,5.715,2.17,12.857,4.88,12.857,4.88,20.974,8.507,36.386,16.533,54.305,26.278,3.141,1.708,5.979,4.38,8.593,6.82,6.299,5.879,13.152,25.2,14.067,37.233,3.844,50.523,7.589,93.057,10.191,141.552-.249,0-.498,0-.498,0,0,0-105.811,0-211.583,0,.014-27.515.125-99.065-.072-107.346-.037-.296-.453-6.362-1.049-15.2-9.502,2.123-26.121,8.989-35.532,11.123-8.941,2.028-18.457,4.107-27.884,3.731-11.49-.458-21.745-7.921-27.099-17.881-6.62-12.314-3.63-19.415-2.211-32.186.84-7.559,4.485-16.218,5.724-22.854,2.304-12.349,12.733-42.637,14.153-47.133,3.359-10.638,13.086-32.659,15.537-38.213,13.597,4.41,30.39,11.104,43.476,16.224-2.324,9.812-11.982,48.165-14.082,56.423-.371,1.459-1.198,4.659-2.225,8.62,5.333-2.858,11.736-6.29,11.736-6.29,11.758-5.879,16.105-6.81,26.463-10.449,5.671-1.993,22.956-7.839,34.714-10.638l14.144-3.676c2.935,5.591,7.005,12.644,8.547,15.363,4.334,7.643,12.562,21.298,17.881,28.577l1.911-1.96Z"/><path class="j" d="M222.448,187.327c15.339,6.231,30.216,13.443,44.819,21.23,6.655,3.549,13.726,6.888,18.551,12.924.181.226.531.713.852,1.187.372.549.725,1.11,1.066,1.679.781,1.304,1.49,2.649,2.154,4.015,1.434,2.952,2.635,6.009,3.691,9.115,2.172,6.384,3.692,12.904,4.203,19.605.7,9.177,1.417,18.353,2.138,27.529,1.376,17.513,2.768,35.024,4.059,52.544s2.485,35.19,3.48,52.801c.125,2.215.247,4.431.367,6.647.166,3.072,4.967,3.092,4.8,0-.967-17.941-2.136-35.87-3.433-53.79-1.285-17.761-2.687-35.513-4.084-53.266-.735-9.34-1.468-18.681-2.186-28.022-.299-3.889-.515-7.782-1.168-11.632-.573-3.379-1.394-6.715-2.371-9.999-1.918-6.447-4.363-12.997-7.961-18.711-1.584-2.516-3.475-4.556-5.666-6.549-1.627-1.48-3.313-2.911-5.127-4.159-1.732-1.192-3.634-2.129-5.481-3.127-14.665-7.93-29.529-15.446-44.893-21.939-2.172-.918-4.35-1.822-6.534-2.709-1.201-.488-2.637.53-2.952,1.676-.377,1.373.47,2.462,1.676,2.952h0Z"/><path class="j" d="M100.561,396.896c.008-16.187.029-32.373.038-48.56s.027-32.45-.031-48.675c-.012-3.415.109-6.872-.095-10.283-.183-3.067-.433-6.133-.644-9.198-.96-13.981-1.914-27.962-2.894-41.941-.818-11.663-1.539-23.344-2.603-34.988-.05-.552-.102-1.105-.164-1.656-.144-1.288-1-2.4-2.4-2.4-1.185,0-2.545,1.104-2.4,2.4,1.16,10.352,1.649,20.811,2.384,31.198,1.026,14.51,2.019,29.022,3.014,43.535.449,6.55.952,13.038.986,19.602.081,15.247.056,30.494.05,45.741-.007,16.891-.026,33.781-.039,50.672-.001,1.518-.002,3.036-.003,4.555-.002,3.089,4.798,3.094,4.8,0h0Z"/><path class="j" d="M274.564,214.453c-.898,8.132-1.905,16.253-2.867,24.377-1.468,12.397-2.939,24.793-4.415,37.189-.464,3.897-.927,7.794-1.396,11.69-.264,2.193-.26,4.359-.275,6.57-.094,13.532-.099,27.064-.122,40.596-.031,18.499-.05,36.998-.068,55.496-.002,2.124-.004,4.247-.006,6.371-.003,3.089,4.797,3.094,4.8,0,.018-18.452.035-36.904.063-55.356.022-14.669.036-29.338.114-44.006.015-2.74-.199-5.608.133-8.333.384-3.155.757-6.311,1.133-9.467,1.438-12.063,2.87-24.127,4.299-36.192,1.103-9.31,2.221-18.618,3.293-27.931.038-.334.077-.669.114-1.003.143-1.29-1.205-2.4-2.4-2.4-1.416,0-2.257,1.106-2.4,2.4h0Z"/><path class="j" d="M178.517,225.091c0,5.378.021,10.755.035,16.133.028,10.499.059,20.997.091,31.496.04,13.398.081,26.797.122,40.195.043,14.077.087,28.154.13,42.23.039,12.534.077,25.068.115,37.602.004,1.332.008,2.664.012,3.996.009,3.088,4.809,3.094,4.8,0-.036-12.189-.074-24.378-.112-36.568-.043-14.006-.087-28.013-.13-42.019-.042-13.602-.084-27.205-.125-40.807-.033-10.977-.066-21.954-.096-32.931-.017-6.13-.037-12.261-.044-18.391,0-.312,0-.624,0-.936,0-3.089-4.8-3.094-4.8,0h0Z"/><path class="g" d="M219.385,179.962c-2.002-1.654-4.24-3.273-6.371-4.588-3.678,6.315-13.532,23.072-17.724,29.266,1.796,1.127,2.918,1.839,2.918,1.839,3.411,2.165,24.298,8.281,26.922,7.694.154-7.696.155-23.376-.125-28.555-1.134-1.62-3.207-3.663-5.62-5.656Z"/><path class="g" d="M146.2,179.476c1.637-1.316,3.404-2.593,5.126-3.694,2.163,5.073,9.056,16.995,11.175,20.731,1.404,2.476,3.217,5.582,5.206,8.899-1.648,1.046-2.672,1.696-2.672,1.696-3.411,2.165-22.553,7.652-25.177,7.064-.154-7.696-.155-23.376.125-28.555,1.227-1.752,3.55-3.998,6.217-6.142Z"/><path class="j" d="M148.831,175.998c2.681,6.545,6.453,12.696,9.946,18.829,3.798,6.669,7.677,13.288,11.758,19.789,2.487,3.961,5.02,7.905,7.774,11.687.762,1.046,2.085,1.562,3.284.861,1.033-.604,1.628-2.23.861-3.284-5.028-6.904-9.464-14.264-13.823-21.602-3.511-5.911-6.915-11.895-10.226-17.921-1.022-1.86-2.032-3.728-3.003-5.616-.396-.77-.786-1.543-1.162-2.323-.171-.356-.34-.712-.504-1.071-.074-.163-.147-.326-.22-.489-.213-.477.141.352-.058-.136-.491-1.199-1.595-2.049-2.952-1.676-1.135.312-2.171,1.746-1.676,2.952h0Z"/><path class="j" d="M210.95,174.149c-4.04,6.936-8.123,13.849-12.309,20.699-3.465,5.671-7.187,11.104-11.001,16.541-2.466,3.515-4.925,7.036-7.42,10.531-.753,1.056-.186,2.671.861,3.284,1.206.705,2.528.197,3.284-.861,4.156-5.823,8.237-11.699,12.349-17.553,4.417-6.289,8.237-13.039,12.158-19.641,2.089-3.517,4.164-7.042,6.223-10.577,1.558-2.675-2.589-5.094-4.145-2.423h0Z"/><path class="j" d="M149.976,173.799c-3.176,2.063-6.236,4.396-8.956,7.037-1.086,1.054-2.351,2.248-3.109,3.571-.541.944-.386,2.449-.417,3.522-.163,5.655-.154,11.318-.132,16.975.012,3.09.036,6.18.097,9.27.019.988.726,2.113,1.762,2.314,1.841.358,3.813-.134,5.617-.506,2.629-.541,5.231-1.226,7.813-1.955,2.694-.76,5.375-1.579,8.018-2.504,1.871-.655,3.884-1.293,5.577-2.342,2.622-1.623.214-5.777-2.423-4.145-.285.176-.581.329-.882.474-.141.068-.285.13-.427.197-.611.288.171-.061-.244.107-.95.385-1.91.74-2.877,1.079-2.552.893-5.14,1.686-7.741,2.425-2.492.708-5.001,1.371-7.534,1.916-.955.205-1.913.392-2.88.534.739-.108-.313.027-.524.037-.504.023-.839-.069-.217.052l1.762,2.314c-.186-9.492-.372-19.07.125-28.555l-.328,1.211c2.526-3.52,6.666-6.497,10.344-8.886,2.581-1.677.178-5.834-2.423-4.145h0Z"/><path class="j" d="M212.589,177.944c3.678,2.389,7.818,5.366,10.344,8.886l-.328-1.211c.497,9.485.311,19.063.125,28.555l1.762-2.314c-.267.052.758.033.26-.047-.128-.021-.279-.003-.41-.009-.167-.007-.332-.031-.498-.042-.677-.045.368.065-.099-.011-1.035-.17-2.062-.372-3.086-.601-2.755-.617-5.483-1.358-8.194-2.143-2.782-.806-5.552-1.665-8.286-2.621-1.076-.376-2.144-.772-3.201-1.199-.42-.17.406.195-.21-.091-.179-.083-.36-.162-.538-.248-.277-.135-.55-.276-.812-.438-2.634-1.631-5.047,2.52-2.423,4.145,1.287.797,2.777,1.311,4.187,1.839,2.046.766,4.123,1.448,6.207,2.099,4.394,1.374,8.848,2.671,13.364,3.579,1.622.326,3.36.739,5.013.418,1.039-.202,1.742-1.318,1.762-2.314.113-5.764.123-11.532.092-17.297-.015-2.697-.039-5.395-.105-8.092-.024-.969-.031-1.945-.099-2.912-.116-1.644-1.329-2.837-2.418-3.992-2.929-3.106-6.417-5.761-9.989-8.081-2.598-1.688-5.007,2.466-2.423,4.145h0Z"/><path class="j" d="M79.844,207.986c4.164-2.076,8.383-4.029,12.743-5.659,3.777-1.412,7.622-2.635,11.433-3.951,7.193-2.484,14.4-4.914,21.68-7.136,4.879-1.489,9.785-2.911,14.747-4.099,3.003-.719,1.731-5.349-1.276-4.629-8.791,2.105-17.435,4.853-26.015,7.685-7.008,2.314-14.036,4.644-20.967,7.176-5.054,1.846-9.954,4.067-14.768,6.467-2.765,1.379-.336,5.52,2.423,4.145h0Z"/><path class="j" d="M74.321,243.298c.418.23.824.479,1.213.755.088.062.175.146.27.197-.142-.075-.42-.333-.12-.089.187.152.37.31.548.474.32.294.625.606.913.932.144.162.28.331.418.498.309.373-.338-.469-.059-.074.063.088.128.175.19.264.515.731.96,1.509,1.345,2.316.095.199.184.4.274.601.195.436-.164-.412-.062-.146.04.103.083.205.123.309.177.457.337.92.486,1.387.38,1.195,1.685,2.086,2.952,1.676,1.198-.388,2.084-1.671,1.676-2.952-1.342-4.219-3.779-8.11-7.746-10.292-1.1-.605-2.668-.305-3.284.861-.595,1.125-.314,2.637.861,3.284h0Z"/><path class="j" d="M208.184,262.503c8.7.042,17.4.128,26.1.202,4.202.036,8.404.072,12.606.101.903.006,3.473-.413,3.872.587.119.299,0,.986-.009,1.376-.016.723-.032,1.447-.049,2.17-.034,1.472-.069,2.943-.097,4.415-.013.658.133,1.002-.486,1.316-.517.262-1.24.146-1.806.145-1.353-.002-2.705-.007-4.058-.013-3.675-.015-7.35-.034-11.025-.053-7.49-.039-14.979-.085-22.469-.105-.889-.002-3.087.379-3.66-.421-.336-.469-.095-2.129-.095-2.829v-5.082c0-1.039-.154-1.758,1.176-1.81,3.079-.119,3.094-4.92,0-4.8-3.128.121-5.84,2.189-5.976,5.458-.045,1.095,0,2.202,0,3.298,0,3.279-.773,7.53,2.222,9.764,1.747,1.303,3.764,1.215,5.82,1.22,1.733.004,3.466.011,5.199.018,4.445.019,8.889.042,13.334.065,4.319.022,8.638.046,12.957.065,1.709.008,3.418.015,5.128.02,1.841.005,3.709.149,5.417-.679,1.129-.547,2.069-1.47,2.602-2.606.712-1.517.525-3.312.561-4.945.034-1.537.072-3.075.105-4.612.032-1.502.006-2.893-.883-4.182-1.67-2.421-4.318-2.558-6.984-2.576-2.169-.015-4.338-.031-6.506-.049-10.999-.089-21.997-.206-32.996-.259-3.089-.015-3.093,4.785,0,4.8Z"/><path class="j" d="M248.661,285.983c-.007,5.056-.138,10.114-.194,15.17-.034,3.124-.065,6.249-.058,9.373.002.919.361,2.461-.761,2.858-.983.348-2.539.062-3.586.063-7.049.007-14.097.016-21.146.024-3.337.004-6.675.008-10.012.011-.65,0-1.3.001-1.95.002-.551,0-1.252.128-1.77-.058-1.249-.449-.762-2.33-.735-3.345.209-7.758.66-15.522.671-23.284.004-3.089-4.796-3.093-4.8,0-.01,7.43-.431,14.864-.644,22.29-.058,2.014-.35,4.158.605,6.016,1.05,2.041,3.159,3.115,5.389,3.183,3.213.098,6.445-.006,9.659-.01,7.679-.009,15.358-.018,23.038-.026,3.542-.004,7.845.654,9.993-2.888.974-1.607.848-3.416.846-5.211-.001-1.617.007-3.233.02-4.85.049-6.439.225-12.879.233-19.318.004-3.089-4.796-3.094-4.8,0h0Z"/><path class="j" d="M158.413,257.703c-9.819.048-19.639.148-29.458.23-2.324.019-4.649.039-6.973.056-2.061.016-4.368-.245-6.391.187-1.372.293-2.622,1.056-3.477,2.168-1.039,1.352-1.106,2.79-1.071,4.425.031,1.464.067,2.927.1,4.39.038,1.692-.171,3.597.566,5.167,1.875,3.996,6.753,3.291,10.394,3.277,4.174-.016,8.348-.038,12.522-.06,7.894-.041,15.797.034,23.689-.103,3.175-.055,5.942-2.155,6.074-5.467.057-1.421,0-2.855,0-4.277,0-1.481.058-2.974,0-4.454-.129-3.308-2.78-5.416-5.976-5.54-3.089-.119-3.084,4.681,0,4.8,1.164.045,1.176.56,1.176,1.482v4.21c0,1.19.129,2.461,0,3.645-.093.854-1.09.8-1.933.801-7.147.008-14.293.057-21.44.094-3.874.02-7.749.041-11.623.058-1.488.007-2.976.013-4.464.018-.983.003-2.766.33-3.653-.14-.609-.323-.473-.644-.486-1.316-.028-1.472-.063-2.944-.097-4.415-.017-.723-.033-1.447-.049-2.17-.009-.426-.139-1.051-.009-1.376.213-.535.921-.56,1.465-.571,3.883-.081,7.771-.056,11.655-.088,9.819-.082,19.638-.182,29.458-.23,3.088-.015,3.094-4.815,0-4.8Z"/><path class="j" d="M113.135,285.983c.007,5.595.156,11.192.211,16.787.031,3.12-.042,6.248.033,9.367.055,2.303,1.18,4.4,3.277,5.459,1.621.819,3.451.65,5.211.651,7.503.008,15.006.017,22.509.025,3.504.004,7.008.008,10.513.011,1.827.002,3.642.109,5.273-.879,2.049-1.241,2.878-3.444,2.824-5.748-.193-8.285-.699-16.572-.711-24.86-.004-3.088-4.804-3.094-4.8,0,.01,6.855.382,13.714.592,20.565.026.852.051,1.704.074,2.556.022.792.258,1.917.048,2.686-.298,1.096-1.546.882-2.427.881-3.112-.003-6.223-.006-9.335-.01-7.203-.008-14.407-.017-21.61-.025-1.445-.002-2.89-.003-4.335-.004-.954,0-2.085.139-2.298-1.03-.218-1.2.005-2.645.002-3.866-.005-1.607-.016-3.213-.031-4.82-.054-5.915-.212-11.832-.22-17.747-.004-3.088-4.804-3.094-4.8,0h0Z"/><path class="j" d="M98.28,399.296c10.825,0,21.65,0,32.474,0h178.989c3.089,0,3.094-4.8,0-4.8H98.28c-3.089,0-3.094,4.8,0,4.8h0Z"/><path class="j" d="M115.76,377.077c6.714,0,13.428.004,20.141.007,10.055.005,20.11.011,30.165.016,11.183.007,22.365.013,33.548.02,9.921.006,19.843.012,29.764.017,6.445.003,12.89.007,19.335.008.439,0,.878,0,1.317,0,3.089,0,3.094-4.8,0-4.8-5.847,0-11.695-.004-17.542-.007-9.611-.005-19.222-.011-28.833-.016-11.156-.007-22.313-.013-33.469-.02-10.314-.006-20.627-.012-30.941-.017-7.259-.004-14.519-.008-21.778-.008-.569,0-1.139,0-1.708,0-3.089,0-3.094,4.8,0,4.8h0Z"/><path class="j" d="M247.405,85.831c-.052.854-.122,1.706-.217,2.556-.026.235-.038.483-.086.715l.039-.284c-.016.118-.033.235-.05.352-.06.407-.125.812-.198,1.217-.278,1.544-.66,3.068-1.179,4.55-.416,1.186.472,2.678,1.676,2.952,1.341.305,2.507-.406,2.952-1.676,1.166-3.326,1.649-6.877,1.863-10.382.077-1.255-1.159-2.456-2.4-2.4-1.366.061-2.318,1.055-2.4,2.4h0Z"/><path class="j" d="M242.236,96.75c-.947-3.715-2.392-7.381-4.621-10.521-.725-1.021-2.128-1.606-3.284-.861-1.014.653-1.638,2.189-.861,3.284.977,1.377,1.804,2.851,2.491,4.393.043.097.085.195.128.292.133.296-.175-.432-.054-.128.08.202.164.403.242.606.171.442.333.887.485,1.336.321.947.598,1.907.845,2.876.31,1.217,1.735,2.07,2.952,1.676,1.257-.407,2.009-1.648,1.676-2.952h0Z"/><path class="j" d="M126.523,98.026c.313-1.687.703-3.361,1.225-4.997.232-.727.496-1.44.776-2.149.158-.4-.242.552.023-.054.071-.163.145-.325.219-.487.146-.315.3-.627.46-.935.575-1.115.326-2.657-.861-3.284-1.1-.581-2.669-.33-3.284.861-1.582,3.065-2.559,6.388-3.186,9.769-.12.645-.099,1.266.242,1.849.291.498.862.973,1.434,1.103,1.178.268,2.708-.356,2.952-1.676h0Z"/><path class="j" d="M241.618,99.085c2.474-2.119,6.664-1.843,8.672.801,1.221,1.608,1.301,3.902,1.364,5.832.069,2.103-.04,4.225-.398,6.299-1.325,7.683-5.409,17.044-13.971,18.506-1.279.218-1.995,1.792-1.676,2.952.372,1.353,1.67,1.895,2.952,1.676,8.616-1.471,13.753-9.514,16.205-17.26,1.325-4.187,1.911-8.686,1.647-13.072-.256-4.245-1.474-8.255-5.372-10.492-4.135-2.374-9.248-1.695-12.818,1.363-.985.844-.867,2.527,0,3.394.976.976,2.407.846,3.394,0h0Z"/><path class="j" d="M235.434,126.387c-.082,2.554-.68,5.042-1.411,7.481-.272.908-.571,1.808-.873,2.706-.084.25-.17.499-.257.747-.035.098-.079.193-.115.291-.151.413.236-.516.027-.064-1.114,2.406-2.395,4.715-3.802,6.962-4.158,6.638-9.235,12.936-15.404,17.812-3.434,2.715-7.303,4.905-11.576,5.885-3.01.69-1.736,5.319,1.276,4.629,8.586-1.969,15.778-8.145,21.453-14.609,4.677-5.328,9.058-11.361,12.012-17.84,1.967-4.313,3.318-9.266,3.471-14,.1-3.09-4.701-3.086-4.8,0h0Z"/><path class="j" d="M125.334,95.691c-3.081-2.639-7.409-3.612-11.247-2.094-4.161,1.646-6.25,5.134-6.782,9.457-1.02,8.295,1.196,17.723,6.195,24.478,2.828,3.822,6.721,6.805,11.497,7.621,1.276.218,2.585-.339,2.952-1.676.317-1.153-.392-2.733-1.676-2.952-8.562-1.462-12.646-10.823-13.971-18.506-.358-2.075-.467-4.196-.398-6.3.063-1.928.145-4.226,1.364-5.832,2.008-2.644,6.198-2.921,8.672-.801.984.843,2.428.966,3.394,0,.863-.863.989-2.547,0-3.394h0Z"/><path class="j" d="M123.669,125.5c1.483,8.562,4.231,16.982,8.772,24.43,5.044,8.273,12.373,15.742,21.013,20.243,4.557,2.374,9.432,3.826,14.539,4.353,1.291.133,2.4-1.198,2.4-2.4,0-1.409-1.105-2.266-2.4-2.4-17.475-1.804-31.092-17.453-36.576-33.203-1.394-4.002-2.397-8.126-3.12-12.3-.221-1.278-1.79-1.996-2.952-1.676-1.351.371-1.898,1.671-1.676,2.952h0Z"/><g id="e"><path class="h" d="M52.323,117.231c3.07-7.136,6.466-17.763,6.548-21.409.095-4.172,1.019-9.006,2.044-13.029.978-3.84,2.508-6.418,6.451-8.357,3.532-1.736,7.217.795,10.029,3.253.795-2.373,4.264-4.557,6.66-5.086,1.555-.344,3.139.175,4.518,1.061.74-.744,1.288-1.295,1.288-1.295,4.572-3.939,8.844-3.16,11.36-.139l.198.238c.601-.744,1.202-1.487,1.202-1.487,1.113-1.377,6.718-1.276,8.83-.819,3.455.746,6.749,3.487,8.114,6.756,1.249,2.994.596,7.134-2.861,8.437-.029.011-.057.021-.086.031,1.096,7.731-1.392,16.834-1.872,18.53-1.254,4.435-3.081,8.524-6.356,12-2.834,3.008-6.103,5.315-9.816,7.211-3.417,1.745-7.579,2.5-10.702,4.796-2.111,1.552-7.465,12.939-7.965,16.363,0,0-.067.461-.174,1.206-10.977-4.304-24.302-9.561-35.54-13.292l3.766-6.869,2.31-3.797c.636-1.154,1.337-2.633,2.056-4.303Z"/><path class="j" d="M91.558,74.066c2.385-1.992,5.519-2.921,7.758-.379,2.05,2.328,2.78,5.81,3.387,8.757.59,2.863,1.248,5.857,1.27,8.738.02,2.665-.621,5.016-3.416,5.826-2.961.858-1.702,5.492,1.276,4.629,3.282-.951,5.673-3.335,6.516-6.667.777-3.071.283-6.152-.209-9.219-.512-3.186-1.035-6.401-2.112-9.455-1.101-3.122-2.792-6.39-5.856-7.98-4.208-2.183-8.61-.483-12.007,2.354-.995.831-.859,2.535,0,3.394.985.985,2.396.834,3.394,0h0Z"/><path class="j" d="M104.318,72.678c.367-.413-.366.257-.047.018.072-.054.164-.07.236-.121-.435.309-.357.115-.164.082.212-.037.425-.126.636-.174.174-.039,1.067-.155.465-.098,1.133-.107,2.26-.154,3.398-.106.502.021,1.001.061,1.5.112.636.065-.419-.097.142.023.271.058.542.107.81.18.322.087.638.193.951.308.465.17.223.095.127.05.154.07.307.145.458.222.304.156.602.325.892.507.145.091.29.186.431.283-.012-.008.57.428.342.245,1.16.93,1.856,1.743,2.507,2.914.141.254.276.514.392.78-.161-.369.089.288.129.424.078.265.131.534.19.804.099.452.008.077,0-.021.016.208.033.414.037.622.005.278-.013.552-.03.828.031-.52-.045.217-.083.375-.065.264-.146.523-.244.776.184-.475-.183.291-.26.416-.037.061-.294.397-.107.167.188-.232-.094.094-.144.142-.099.095-.198.19-.298.284-.26.244.297-.182-.013.008-.122.075-.244.152-.367.225-.053.031-.464.224-.216.12.254-.106-.194.058-.254.074-.199.055-.483.062-.129.046-.145.007-.29-.002-.434.006-.56.028.321.122-.224-.026-.324-.088-.645-.165-.963-.274-.69-.236-1.355-.539-2.031-.811-1.641-.659-3.269-.932-5.022-.611-1.276.233-1.998,1.781-1.676,2.952.369,1.341,1.673,1.91,2.952,1.676-.435.08.029-.006.154-.002.187.005.371.003.558.022-.464-.048.419.12.57.165.774.231,1.512.565,2.258.87,1.587.648,3.219,1.03,4.934.694,3.543-.696,5.638-4.109,5.856-7.499s-1.555-6.668-3.967-8.941c-2.471-2.33-5.488-3.614-8.852-3.881-1.485-.118-2.988-.107-4.467.079-1.502.189-3.262.477-4.327,1.675-.86.969-.955,2.439,0,3.394.876.876,2.53.973,3.394,0h0Z"/><path class="j" d="M114.487,88.768c.077,4.866-.713,9.721-2.025,14.399-1.485,5.294-4.017,9.778-8.215,13.387-2.128,1.83-4.551,3.345-7.063,4.589-2.492,1.234-5.214,1.938-7.74,3.106-1.869.864-3.417,1.889-4.629,3.545-1.032,1.41-1.87,2.967-2.669,4.517-1.098,2.129-2.087,4.315-2.991,6.533-.628,1.541-1.299,3.151-1.563,4.804-.204,1.278.329,2.582,1.676,2.952,1.143.314,2.747-.389,2.952-1.676.538-3.37,2.229-6.531,3.735-9.529.805-1.603,1.649-3.206,2.661-4.69.112-.164.227-.327.344-.488-.042.057-.32.377-.051.068.156-.179.307-.366.486-.523.051-.045.692-.441,1.035-.636.639-.364,1.306-.69,1.985-.975,2.645-1.111,5.396-1.903,7.942-3.25,2.602-1.377,5.052-3.033,7.285-4.953,4.428-3.807,7.343-8.684,9.072-14.229,1.694-5.432,2.663-11.262,2.573-16.951-.049-3.086-4.849-3.095-4.8,0h0Z"/><path class="j" d="M79.383,88.836c.439,1.546.938,3.08,1.291,4.649.325,1.446.386,2.931.616,4.394.397,2.525,1.204,5.079,2.842,7.082,3.443,4.207,10.039,2.688,12.998-1.305,1.648-2.224,2.031-5.065,1.759-7.76-.326-3.234-.941-6.484-1.489-9.687-.921-5.389-2.531-11.063-7.227-14.354-2.735-1.916-5.776-2.164-8.803-.846-2.735,1.191-5.212,3.201-6.288,6.042-.459,1.212.509,2.632,1.676,2.952,1.349.371,2.491-.459,2.952-1.676.499-1.319,2.451-2.494,3.773-3.039,1.587-.655,2.907-.3,4.268.711,3.251,2.418,4.191,6.918,4.878,10.674.439,2.398.76,4.818,1.161,7.222.326,1.952.741,4.279-.036,6.087-.597,1.39-1.782,2.184-3.263,2.574-1.403.37-2.129.116-2.846-.856-1.145-1.552-1.564-3.695-1.79-5.568-.359-2.97-1.028-5.698-1.843-8.573-.842-2.967-5.475-1.706-4.629,1.276h0Z"/><path class="j" d="M79.093,75.992c-2.466-2.132-5.228-4.162-8.573-4.489-2.894-.282-5.645,1.268-7.751,3.128-4.057,3.584-4.917,9.822-5.681,14.876-.253,1.673-.465,3.355-.564,5.045-.031.521-.031,1.044-.065,1.565-.007.107-.019.214-.026.322-.04.69.044-.184-.032.275-.291,1.758-.728,3.488-1.209,5.203-1.268,4.521-2.826,8.978-4.613,13.32-1.28,3.11-2.933,5.988-4.694,8.883-1.61,2.646,2.54,5.061,4.145,2.423,1.368-2.249,2.726-4.443,3.813-6.846,1.846-4.081,3.409-8.299,4.784-12.56,1.116-3.462,2.274-7.056,2.606-10.698.462-5.063.75-10.44,2.687-15.224.826-2.039,2.316-3.551,4.316-4.533,2.69-1.322,5.518,1.024,7.463,2.705,2.326,2.011,5.736-1.369,3.394-3.394h0Z"/><path class="j" d="M68.322,87.982c.02,4.62,5.026,6.615,8.656,7.956.39.144.781.286,1.17.434.165.063.329.13.494.195.257.101-.672-.306-.287-.119.067.032.135.062.202.095,1.126.55,2.648.343,3.284-.861.57-1.079.343-2.695-.861-3.284-1.378-.673-2.864-1.109-4.282-1.688-.09-.037-.183-.09-.277-.114-.061-.016.565.244.342.144-.046-.021-.093-.04-.139-.06-.201-.088-.401-.179-.599-.273-.394-.187-.782-.387-1.16-.606-.17-.099-.338-.202-.503-.309-.154-.1-.342-.299-.512-.357.129.045.495.395.192.143-.071-.059-.14-.119-.209-.181-.144-.13-.283-.267-.413-.411-.018-.02-.192-.235-.198-.232.013-.006.328.459.245.315-.028-.048-.066-.093-.097-.14-.109-.164-.186-.342-.285-.511-.037-.063.221.638.106.226-.026-.094-.055-.186-.077-.28-.009-.041-.015-.083-.025-.123-.073-.279.062.374.05.387.025-.027-.015-.304-.016-.346-.006-1.255-1.1-2.458-2.4-2.4s-2.406,1.055-2.4,2.4h0Z"/></g><path class="j" d="M61.498,242.574c2.953-11.804,6.122-23.555,9.163-35.337,3.27-12.671,6.419-25.374,9.588-38.07,1.777-7.118,3.576-14.231,5.268-21.37.323-1.362-.429-2.464-1.676-2.952-14.4-5.634-28.764-11.44-43.476-16.224-.91-.296-2.301.176-2.71,1.103-2.605,5.904-5.174,11.823-7.67,17.773-2.91,6.938-5.834,13.915-8.132,21.085-3.847,12.006-7.993,23.91-11.41,36.052-.864,3.071-1.697,6.157-2.369,9.277-.92,4.268-2.053,8.42-3.3,12.607-.759,2.549-1.495,5.109-2.057,7.711-.546,2.532-.796,5.095-1.14,7.657-.603,4.487-1.482,8.976-1.572,13.515-.187,9.518,4.115,18.874,10.71,25.628,6.741,6.903,15.68,10.643,25.306,10.618,5.981-.016,11.942-.905,17.798-2.062,4.601-.909,9.199-1.894,13.69-3.255,8.522-2.582,16.814-5.87,25.355-8.393,1.708-.505,3.428-.973,5.169-1.352,3.017-.657,1.74-5.286-1.276-4.629-8.181,1.783-16.063,4.959-23.979,7.63-8.943,3.017-18.124,5.357-27.494,6.605-5.022.669-10.438,1.167-15.448.171-4.276-.85-8.236-2.684-11.756-5.243-6.922-5.032-12.338-13.552-13.152-22.153-.383-4.046.158-8.086.742-12.085.711-4.864,1.173-9.733,2.427-14.498,1.268-4.818,2.987-9.524,4.038-14.398.632-2.933,1.251-5.852,2.024-8.753,3.386-12.718,7.646-25.194,11.771-37.685,4.126-12.493,9.357-24.583,14.645-36.622.407-.926.815-1.851,1.223-2.776l-2.71,1.103c14.712,4.784,29.077,10.589,43.476,16.224l-1.676-2.952c-3.372,14.221-7.013,28.381-10.58,42.554-2.902,11.531-5.869,23.043-8.859,34.552-1.53,5.889-3.104,11.768-4.581,17.67-.75,2.997,3.878,4.276,4.629,1.276h0Z"/><g id="f"><path class="j" d="M171.447,143.731c3.409,1.8,7.082,2.546,10.935,2.521s7.83-.763,10.935-3.182c1.023-.797.837-2.557,0-3.394-1.01-1.01-2.368-.799-3.394,0,.696-.542.046-.051-.132.063-.224.144-.456.277-.692.401-.142.074-.922.418-.375.198-.314.127-.632.243-.955.347-1.962.631-3.673.78-5.746.768-2.022-.012-3.576-.168-5.485-.739-.35-.105-.691-.229-1.035-.348-.113-.039-.222-.089-.334-.13.593.219.083.037-.031-.016-.428-.201-.85-.412-1.268-.633-1.146-.605-2.61-.291-3.284.861-.634,1.084-.289,2.676.861,3.284h0Z"/><path class="j" d="M181.394,117.671c.488,1.86.956,3.75,1.236,5.655l-.086-.638c.033.261.048.518.021.781l.086-.638c-.018.121-.045.235-.086.351l.242-.573c-.036.082-.074.151-.124.226l.375-.486c-.058.071-.113.125-.185.182l.486-.375c-.143.092-.294.166-.448.237l.573-.242c-.247.103-.491.178-.755.22l.638-.086c-.238.028-.471.026-.709-.001l.638.086c-.267-.037-.529-.102-.797-.138-.67-.09-1.239-.115-1.849.242-.498.291-.973.862-1.103,1.434-.14.614-.11,1.304.242,1.849.312.484.835,1.022,1.434,1.103.564.076,1.111.221,1.684.246.856.037,1.658-.22,2.425-.569.936-.426,1.663-1.24,1.913-2.249.21-.852.117-1.625-.027-2.479-.308-1.822-.729-3.627-1.197-5.414-.318-1.214-1.729-2.072-2.952-1.676-1.25.404-2.018,1.651-1.676,2.952h0Z"/><path class="j" d="M151.013,101.79c-.944,3.069-.329,10.128,5.485,10.729,7.684-.046,8.093-8.581,5.506-12.593-2.118-3.285-8.345-4.652-10.991,1.865Z"/><path class="j" d="M212.544,101.79c.944,3.069.329,10.128-5.484,10.728-7.684-.046-8.093-8.581-5.507-12.594,2.118-3.285,8.345-4.652,10.991,1.865Z"/></g></g></g></svg>